<svg width="390" height="844" viewBox="0 0 390 844" fill="none" xmlns="http://www.w3.org/2000/svg">
<g clip-path="url(#clip0_806_5565)">
<rect width="390" height="844" fill="#ABA69E"/>
<path fill-rule="evenodd" clip-rule="evenodd" d="M126.612 150.057C123.314 143.962 118.482 139.733 113.095 137.624C113.115 129.949 111.332 122.178 107.575 115.234C104.6 109.736 100.71 105.352 96.291 102.181C109.824 89.0759 113.213 65.7608 103.553 47.9089C95.3798 32.804 80.295 26.1023 66.3224 29.886C53.1354 20.6924 36.1584 20.4049 22.3871 30.8389C15.146 36.3253 9.80912 44.0047 6.59965 52.6736C-0.705643 52.0103 -8.24722 54.0493 -14.8929 59.0845C-31.1474 71.3999 -35.8872 96.9758 -25.4795 116.21C-23.6948 119.508 -21.5807 122.405 -19.2207 124.88C-22.9403 138.506 -21.6723 153.92 -14.6378 166.921C-4.20181 186.207 15.6236 194.077 33.2404 187.521C33.7732 192.69 35.2707 197.802 37.8026 202.482C46.8226 219.151 65.5547 224.012 79.642 213.338C80.2282 212.894 80.7972 212.43 81.3486 211.947L85.4173 213.141C85.4173 213.141 106.742 217.383 109.92 196.187C113.008 195.477 116.038 194.079 118.848 191.949C130.768 182.918 134.244 164.162 126.612 150.057Z" fill="#7D7C7C"/>
<path fill-rule="evenodd" clip-rule="evenodd" d="M311.449 116.861C306.884 109.278 300.288 103.854 292.771 100.809C297.103 89.0539 297.497 75.8017 293.447 63.5104C295.258 62.5807 297.036 61.5259 298.772 60.3436C322.213 44.3787 329.048 11.2239 314.039 -13.7098C302.252 -33.2908 280.498 -41.9784 260.348 -37.0735C241.331 -48.9914 216.849 -49.364 196.989 -35.8382C186.547 -28.726 178.851 -18.771 174.222 -7.53321C163.687 -8.39317 152.812 -5.74993 143.228 0.777359C119.787 16.7423 112.952 49.8971 127.961 74.8307C130.535 79.1061 133.583 82.8622 136.987 86.0708C131.623 103.734 133.451 123.716 143.596 140.569C152.693 155.681 166.737 165.386 182.034 168.822C182.372 175.219 184.184 181.533 187.603 187.214C195.402 200.168 209.51 206.427 223.703 204.775C224.112 206.824 224.865 208.821 225.982 210.677C231.153 219.267 242.164 221.585 250.576 215.855C252.761 214.367 254.556 212.483 255.925 210.357C263.11 212.077 271.098 210.774 278.005 206.07C286.736 200.123 291.551 190.232 291.504 180.393C293.409 179.464 295.279 178.38 297.099 177.14C316.933 163.632 323.357 136.644 311.449 116.861Z" fill="#7D7C7C"/>
<path fill-rule="evenodd" clip-rule="evenodd" d="M427.612 93.0572C424.314 86.9625 419.482 82.7334 414.095 80.6242C414.115 72.9491 412.332 65.1781 408.575 58.2339C405.6 52.7364 401.71 48.3521 397.291 45.1812C410.824 32.0759 414.213 8.7608 404.553 -9.09107C396.38 -24.196 381.295 -30.8977 367.322 -27.114C354.135 -36.3076 337.158 -36.5951 323.387 -26.1611C316.146 -20.6747 310.809 -12.9953 307.6 -4.32636C300.294 -4.98973 292.753 -2.95072 286.107 2.08448C269.853 14.3999 265.113 39.9758 275.521 59.2098C277.305 62.5079 279.419 65.4053 281.779 67.8805C278.06 81.506 279.328 96.9204 286.362 109.921C296.798 129.207 316.624 137.077 334.24 130.521C334.773 135.69 336.271 140.802 338.803 145.482C347.823 162.151 366.555 167.012 380.642 156.338C381.228 155.894 381.797 155.43 382.349 154.947L386.417 156.141C386.417 156.141 407.742 160.383 410.92 139.187C414.008 138.477 417.038 137.079 419.848 134.949C431.768 125.918 435.244 107.162 427.612 93.0572Z" fill="#7D7C7C"/>
<path d="M470.183 306.882H475V344H3.05176e-05V277.288H10.5984V216.594H16.4423V213.083H34.6856V216.594H40.4666V281.802H48.1744V267.256H61.6633V277.288H74.1887V275.281H78.0426V267.256H82.86V275.281H86.714V291.834L90.568 289.827V258.227H115.619V187H146.45V279.294H156.085V289.827H164.757V275.281H195.588V265.751L203.296 256.22L211.968 265.751H217.748V308.888H221.602V247.693H246.653V281.802H261.105V284.812H268.813V306.882H282.302H288.083V320.927H299.645V277.288H320.842L323.732 206.562H330.477V202.048H346.856V206.562H354.564V308.888H366.126V265.751H370.943V262.741H390.213V265.751H394.067V315.911H398.884V284.812L409.483 275.281L421.045 284.812H425.862V327.949H435.497V306.882H451.876V299.859H470.183V306.882Z" fill="#454545"/>
<rect y="344" width="390" height="500" fill="#959391"/>
<path fill-rule="evenodd" clip-rule="evenodd" d="M64.2981 337.543C64.0861 336.639 63.2796 336 62.3509 336H35.7111C34.7528 336 33.9291 336.68 33.7474 337.621L32.2492 345.379C32.0675 346.32 31.2439 347 30.2855 347H24.4242C23.5199 347 22.7281 347.607 22.493 348.48L20.0699 357.48C19.7277 358.751 20.6851 360 22.0011 360H75.9674C77.2244 360 78.1698 358.854 77.931 357.62L76.1899 348.62C76.0079 347.679 75.1844 347 74.2263 347H68.1008C67.1721 347 66.3656 346.361 66.1536 345.457L64.2981 337.543Z" fill="#CF6767"/>
<path d="M37.8589 339.8C37.9539 339.335 38.3635 339 38.8388 339H58.9444C59.4197 339 59.8294 339.335 59.9243 339.8L61.1471 345.8C61.2734 346.42 60.7998 347 60.1672 347H37.616C36.9834 347 36.5098 346.42 36.6361 345.8L37.8589 339.8Z" fill="white"/>
<rect x="47.3916" y="338" width="2.71819" height="9.51367" fill="#CF6767"/>
<circle cx="33.8916" cy="358.5" r="5.5" fill="#707070"/>
<circle cx="64.8916" cy="358.5" r="5.5" fill="#707070"/>
<path fill-rule="evenodd" clip-rule="evenodd" d="M288.298 339.543C288.086 338.639 287.28 338 286.351 338H259.711C258.753 338 257.929 338.68 257.747 339.621L256.249 347.379C256.068 348.32 255.244 349 254.285 349H248.424C247.52 349 246.728 349.607 246.493 350.48L244.07 359.48C243.728 360.751 244.685 362 246.001 362H299.967C301.224 362 302.17 360.854 301.931 359.62L300.19 350.62C300.008 349.679 299.184 349 298.226 349H292.101C291.172 349 290.366 348.361 290.154 347.457L288.298 339.543Z" fill="#CACACA"/>
<path d="M261.859 341.8C261.954 341.335 262.363 341 262.839 341H282.944C283.42 341 283.829 341.335 283.924 341.8L285.147 347.8C285.273 348.42 284.8 349 284.167 349H261.616C260.983 349 260.51 348.42 260.636 347.8L261.859 341.8Z" fill="white"/>
<rect x="271.392" y="340" width="2.71819" height="9.51367" fill="#CACACA"/>
<circle cx="257.892" cy="360.5" r="5.5" fill="#707070"/>
<circle cx="288.892" cy="360.5" r="5.5" fill="#707070"/>
<path fill-rule="evenodd" clip-rule="evenodd" d="M366.298 339.543C366.086 338.639 365.28 338 364.351 338H337.711C336.753 338 335.929 338.68 335.747 339.621L334.249 347.379C334.068 348.32 333.244 349 332.285 349H326.424C325.52 349 324.728 349.607 324.493 350.48L322.07 359.48C321.728 360.751 322.685 362 324.001 362H377.967C379.224 362 380.17 360.854 379.931 359.62L378.19 350.62C378.008 349.679 377.184 349 376.226 349H370.101C369.172 349 368.366 348.361 368.154 347.457L366.298 339.543Z" fill="#6799CF"/>
<path d="M339.859 341.8C339.954 341.335 340.363 341 340.839 341H360.944C361.42 341 361.829 341.335 361.924 341.8L363.147 347.8C363.273 348.42 362.8 349 362.167 349H339.616C338.983 349 338.51 348.42 338.636 347.8L339.859 341.8Z" fill="white"/>
<rect x="349.392" y="340" width="2.71819" height="9.51367" fill="#6799CF"/>
<circle cx="335.892" cy="360.5" r="5.5" fill="#707070"/>
<circle cx="366.892" cy="360.5" r="5.5" fill="#707070"/>
</g>
<defs>
<clipPath id="clip0_806_5565">
<rect width="390" height="844" fill="white"/>
</clipPath>
</defs>
</svg>
