<svg width="390" height="844" viewBox="0 0 390 844" fill="none" xmlns="http://www.w3.org/2000/svg">
<g clip-path="url(#clip0_806_5772)">
<rect width="390" height="844" fill="#C8F1FF"/>
<ellipse cx="51.2217" cy="191.147" rx="45.56" ry="52.3389" transform="rotate(-179.009 51.2217 191.147)" fill="white"/>
<ellipse cx="23.0519" cy="27.2309" rx="23.0519" ry="27.2309" transform="matrix(-0.905724 -0.423867 0.337184 -0.941439 7.12939 240.91)" fill="white"/>
<ellipse cx="18.6723" cy="217.44" rx="39.6174" ry="45.5121" transform="rotate(-179.009 18.6723 217.44)" fill="white"/>
<ellipse cx="-22.3662" cy="207.626" rx="31.6939" ry="35.4995" transform="rotate(-179.009 -22.3662 207.626)" fill="white"/>
<ellipse cx="90.288" cy="200.471" rx="28.5246" ry="30.9482" transform="rotate(-179.009 90.288 200.471)" fill="white"/>
<ellipse cx="5.02624" cy="181.699" rx="28.5246" ry="30.9482" transform="rotate(-179.009 5.02624 181.699)" fill="white"/>
<ellipse cx="345.736" cy="271.319" rx="61.4234" ry="64.0634" transform="rotate(-179.72 345.736 271.319)" fill="white"/>
<ellipse cx="30.62" cy="33.6947" rx="30.62" ry="33.6947" transform="matrix(-0.924735 -0.380612 0.354157 -0.935186 333.631 262.287)" fill="white"/>
<ellipse cx="258.683" cy="286.924" rx="53.4117" ry="55.7073" transform="rotate(-179.72 258.683 286.924)" fill="white"/>
<ellipse cx="269.055" cy="218" rx="42.7294" ry="43.4517" transform="rotate(-179.72 269.055 218)" fill="white"/>
<ellipse cx="194.641" cy="305.025" rx="38.4564" ry="37.881" transform="rotate(-179.72 194.641 305.025)" fill="white"/>
<ellipse cx="407.641" cy="210.068" rx="38.4564" ry="37.881" transform="rotate(-179.72 407.641 210.068)" fill="white"/>
<ellipse cx="257.565" cy="83.1692" rx="39.6171" ry="40.724" transform="rotate(-179.72 257.565 83.1692)" fill="white"/>
<ellipse cx="19.7093" cy="21.4577" rx="19.7093" ry="21.4577" transform="matrix(-0.926639 -0.375951 0.358626 -0.933481 219.787 122.293)" fill="white"/>
<ellipse cx="229.56" cy="103.926" rx="34.4497" ry="35.4122" transform="rotate(-179.72 229.56 103.926)" fill="white"/>
<ellipse cx="193.767" cy="96.6684" rx="27.5597" ry="27.6215" transform="rotate(-179.72 193.767 96.6684)" fill="white"/>
<ellipse cx="291.637" cy="90.0637" rx="24.8038" ry="24.0803" transform="rotate(-179.72 291.637 90.0637)" fill="white"/>
<ellipse cx="217.293" cy="76.2442" rx="24.8038" ry="24.0803" transform="rotate(-179.72 217.293 76.2442)" fill="white"/>
<path d="M470.183 306.882H475V344H3.05176e-05V277.288H10.5984V216.594H16.4423V213.083H34.6856V216.594H40.4666V281.802H48.1744V267.256H61.6633V277.288H74.1887V275.281H78.0426V267.256H82.86V275.281H86.714V291.834L90.568 289.827V258.227H115.619V187H146.45V279.294H156.085V289.827H164.757V275.281H195.588V265.751L203.296 256.22L211.968 265.751H217.748V308.888H221.602V247.693H246.653V281.802H261.105V284.812H268.813V306.882H282.302H288.083V320.927H299.645V277.288H320.842L323.732 206.562H330.477V202.048H346.856V206.562H354.564V308.888H366.126V265.751H370.943V262.741H390.213V265.751H394.067V315.911H398.884V284.812L409.483 275.281L421.045 284.812H425.862V327.949H435.497V306.882H451.876V299.859H470.183V306.882Z" fill="url(#paint0_linear_806_5772)"/>
<rect y="344" width="390" height="500" fill="url(#paint1_linear_806_5772)"/>
<path d="M37.8089 359.621H25.3579C24.648 360.44 22.966 362.209 21.9175 362.734C20.6069 363.389 23.7196 364.372 24.5388 363.389C24.1565 364.044 23.6869 365.322 24.8664 365.191C26.3409 365.027 28.3068 364.208 30.2728 364.7C32.2387 365.191 36.6621 365.682 37.8089 365.191C38.4245 364.927 38.0488 364.191 37.594 363.389C40.1744 364.306 41.106 363.334 41.2493 362.734C39.9387 362.209 38.4096 360.44 37.8089 359.621Z" fill="#AFA783"/>
<path d="M37.8089 333.408H25.3579V359.621H37.8089V333.408Z" fill="#AFA783"/>
<path fill-rule="evenodd" clip-rule="evenodd" d="M54.0189 335.374L31.2314 307.851L8.79027 334.956C8.75729 334.986 8.72527 335.016 8.69423 335.047C7.58706 336.136 7.02464 337.809 8.0467 337.155C9.06877 336.502 9.57977 336.012 9.57977 336.012C9.57977 336.012 7.53577 339.867 11.6238 336.338C11.7941 337.591 12.9013 339.443 15.9673 336.829C15.8824 338.186 16.7283 340.116 20.7827 337.022C20.7957 337.023 20.8088 337.024 20.8219 337.024C20.8354 338.33 21.6663 340.17 24.9098 337.319C25.8444 338.46 28.2202 340.056 30.261 337.338C30.2715 337.338 30.282 337.338 30.2925 337.338C31.324 338.48 33.7069 340.048 35.1297 337.319C36.5776 338.571 39.6265 340.325 40.2397 337.319C41.9431 338.408 45.2475 339.933 44.8387 337.319C47.1382 338.299 51.4306 339.573 50.2042 336.829C52.4186 337.754 56.3873 338.887 54.5477 336.012C54.4148 335.804 54.2144 335.597 53.9542 335.392C53.9975 335.38 54.0189 335.374 54.0189 335.374Z" fill="#61B379"/>
<path fill-rule="evenodd" clip-rule="evenodd" d="M51.8081 331.115L30.9064 303.591L10.3226 330.696C10.2923 330.726 10.2629 330.757 10.2344 330.787C9.21889 331.876 8.70301 333.549 9.64049 332.896C10.578 332.242 11.0467 331.752 11.0467 331.752C11.0467 331.752 9.17185 335.608 12.9215 332.079C13.0778 333.331 14.0933 335.183 16.9056 332.569C16.8277 333.926 17.6036 335.857 21.3225 332.762C21.3344 332.763 21.3464 332.764 21.3585 332.765C21.3708 334.07 22.133 335.911 25.108 333.059C25.9653 334.2 28.1444 335.796 30.0164 333.078C30.026 333.078 30.0356 333.078 30.0453 333.078C30.9914 334.221 33.1771 335.789 34.4822 333.059C35.8102 334.312 38.6068 336.065 39.1693 333.059C40.7316 334.148 43.7626 335.673 43.3876 333.059C45.4968 334.039 49.434 335.314 48.3091 332.569C50.3402 333.495 53.9805 334.628 52.2931 331.752C52.1712 331.544 51.9874 331.338 51.7487 331.132C51.7884 331.121 51.8081 331.115 51.8081 331.115Z" fill="#73CB8D"/>
<path fill-rule="evenodd" clip-rule="evenodd" d="M49.6392 322.546L31.5663 292.451L13.7678 322.089C13.7418 322.122 13.7165 322.155 13.6919 322.188C12.8138 323.379 12.3678 325.209 13.1784 324.494C13.989 323.78 14.3943 323.244 14.3943 323.244C14.3943 323.244 12.7732 327.46 16.0154 323.601C16.1505 324.97 17.0286 326.995 19.4602 324.137C19.3929 325.621 20.0638 327.732 23.2795 324.348C23.2898 324.349 23.3001 324.35 23.3105 324.351C23.3211 325.778 23.9801 327.791 26.5525 324.673C27.2938 325.92 29.1781 327.666 30.7967 324.693C30.805 324.693 30.8132 324.693 30.8215 324.694C31.6395 325.943 33.5295 327.657 34.658 324.673C35.8063 326.042 38.2245 327.96 38.7108 324.673C40.0617 325.864 42.6825 327.531 42.3583 324.673C44.182 325.745 47.5863 327.138 46.6137 324.137C48.3699 325.149 51.5175 326.388 50.0585 323.244C49.9531 323.016 49.7941 322.79 49.5877 322.566C49.6221 322.553 49.6392 322.546 49.6392 322.546Z" fill="#61B379"/>
<path fill-rule="evenodd" clip-rule="evenodd" d="M49.6392 319.598L31.5663 289.502L13.7687 319.139C13.7423 319.172 13.7167 319.206 13.6919 319.239C12.8138 320.43 12.3678 322.259 13.1784 321.545C13.989 320.83 14.3943 320.294 14.3943 320.294C14.3943 320.294 12.7732 324.51 16.0154 320.652C16.1505 322.021 17.0286 324.046 19.4602 321.188C19.3929 322.672 20.0638 324.783 23.2792 321.399C23.2896 321.4 23.3 321.401 23.3105 321.402C23.3212 322.829 23.9803 324.842 26.5525 321.724C27.2938 322.971 29.178 324.717 30.7965 321.745C30.8049 321.745 30.8133 321.745 30.8217 321.745C31.6399 322.994 33.5296 324.708 34.658 321.724C35.8063 323.093 38.2245 325.011 38.7108 321.724C40.0617 322.915 42.6825 324.582 42.3583 321.724C44.182 322.795 47.5863 324.189 46.6137 321.188C48.3699 322.2 51.5175 323.439 50.0585 320.294C49.9531 320.067 49.7942 319.841 49.5879 319.617C49.6222 319.604 49.6392 319.598 49.6392 319.598Z" fill="#73CB8D"/>
<path fill-rule="evenodd" clip-rule="evenodd" d="M46.4569 310.145L31.5485 282.621L16.8674 309.725C16.8456 309.755 16.8244 309.786 16.8039 309.817C16.0795 310.906 15.7116 312.579 16.3803 311.925C17.0489 311.272 17.3832 310.782 17.3832 310.782C17.3832 310.782 16.046 314.637 18.7205 311.108C18.8319 312.361 19.5563 314.213 21.5622 311.599C21.5066 312.956 22.0601 314.886 24.7123 311.792C24.721 311.793 24.7296 311.794 24.7383 311.795C24.7472 313.1 25.2909 314.94 27.4127 312.089C28.0241 313.23 29.5783 314.826 30.9135 312.108C30.9205 312.108 30.9275 312.108 30.9344 312.108C31.6094 313.25 33.1682 314.818 34.0989 312.089C35.0462 313.341 37.0409 315.095 37.4421 312.089C38.5565 313.178 40.7183 314.703 40.4509 312.089C41.9553 313.069 44.7635 314.343 43.9612 311.599C45.4099 312.524 48.0064 313.657 46.8029 310.782C46.7159 310.574 46.5849 310.367 46.4148 310.162C46.4429 310.151 46.4569 310.145 46.4569 310.145Z" fill="#61B379"/>
<path fill-rule="evenodd" clip-rule="evenodd" d="M46.5013 307.523L31.5929 280L16.9111 307.105C16.8896 307.135 16.8686 307.165 16.8483 307.196C16.124 308.285 15.756 309.958 16.4247 309.304C17.0934 308.651 17.4277 308.161 17.4277 308.161C17.4277 308.161 16.0904 312.016 18.7649 308.487C18.8764 309.74 19.6007 311.592 21.6066 308.978C21.5511 310.335 22.1045 312.265 24.757 309.171C24.7656 309.172 24.7741 309.173 24.7827 309.173C24.7915 310.479 25.3351 312.319 27.4571 309.468C28.0686 310.609 29.6229 312.205 30.9581 309.487C30.9649 309.487 30.9718 309.487 30.9787 309.487C31.6535 310.629 33.2125 312.197 34.1434 309.468C35.0906 310.72 37.0853 312.474 37.4865 309.468C38.6009 310.557 40.7628 312.082 40.4953 309.468C41.9997 310.448 44.808 311.722 44.0056 308.978C45.4543 309.903 48.0508 311.036 46.8473 308.161C46.7603 307.953 46.6292 307.746 46.459 307.541C46.4873 307.529 46.5013 307.523 46.5013 307.523Z" fill="#73CB8D"/>
<path d="M261.34 359.621H248.889C248.179 360.44 246.497 362.209 245.449 362.734C244.138 363.389 247.251 364.372 248.07 363.389C247.688 364.044 247.218 365.322 248.398 365.191C249.872 365.027 251.838 364.208 253.804 364.7C255.77 365.191 260.193 365.682 261.34 365.191C261.956 364.927 261.58 364.191 261.125 363.389C263.706 364.306 264.637 363.334 264.781 362.734C263.47 362.209 261.941 360.44 261.34 359.621Z" fill="#AFA783"/>
<path d="M261.34 333.408H248.889V359.621H261.34V333.408Z" fill="#AFA783"/>
<path fill-rule="evenodd" clip-rule="evenodd" d="M277.55 335.374L254.763 307.851L232.322 334.956C232.289 334.986 232.257 335.016 232.225 335.047C231.118 336.136 230.556 337.809 231.578 337.155C232.6 336.502 233.111 336.012 233.111 336.012C233.111 336.012 231.067 339.867 235.155 336.338C235.325 337.591 236.433 339.443 239.499 336.829C239.414 338.186 240.26 340.116 244.314 337.022C244.327 337.023 244.34 337.024 244.353 337.024C244.367 338.33 245.198 340.17 248.441 337.319C249.376 338.46 251.751 340.056 253.792 337.338C253.803 337.338 253.813 337.338 253.824 337.338C254.855 338.48 257.238 340.048 258.661 337.319C260.109 338.571 263.158 340.325 263.771 337.319C265.474 338.408 268.779 339.933 268.37 337.319C270.669 338.299 274.962 339.573 273.735 336.829C275.95 337.754 279.919 338.887 278.079 336.012C277.946 335.804 277.746 335.597 277.485 335.392C277.529 335.38 277.55 335.374 277.55 335.374Z" fill="#61B379"/>
<path fill-rule="evenodd" clip-rule="evenodd" d="M275.339 331.115L254.438 303.591L233.854 330.696C233.824 330.726 233.794 330.757 233.766 330.787C232.75 331.876 232.234 333.549 233.172 332.896C234.109 332.242 234.578 331.752 234.578 331.752C234.578 331.752 232.703 335.608 236.453 332.079C236.609 333.331 237.625 335.183 240.437 332.569C240.359 333.926 241.135 335.857 244.854 332.762C244.866 332.763 244.878 332.764 244.89 332.765C244.902 334.07 245.664 335.911 248.639 333.059C249.497 334.2 251.676 335.796 253.548 333.078C253.557 333.078 253.567 333.078 253.577 333.078C254.523 334.221 256.708 335.789 258.013 333.059C259.341 334.312 262.138 336.065 262.701 333.059C264.263 334.148 267.294 335.673 266.919 333.059C269.028 334.039 272.965 335.314 271.84 332.569C273.871 333.495 277.512 334.628 275.824 331.752C275.702 331.544 275.519 331.338 275.28 331.132C275.32 331.121 275.339 331.115 275.339 331.115Z" fill="#73CB8D"/>
<path fill-rule="evenodd" clip-rule="evenodd" d="M273.17 322.546L255.098 292.451L237.299 322.089C237.273 322.122 237.248 322.155 237.223 322.188C236.345 323.379 235.899 325.209 236.71 324.494C237.52 323.78 237.926 323.244 237.926 323.244C237.926 323.244 236.304 327.46 239.547 323.601C239.682 324.97 240.56 326.995 242.991 324.137C242.924 325.621 243.595 327.732 246.811 324.348C246.821 324.349 246.831 324.35 246.842 324.351C246.852 325.778 247.511 327.791 250.084 324.673C250.825 325.92 252.709 327.666 254.328 324.693C254.336 324.693 254.344 324.693 254.353 324.694C255.171 325.943 257.061 327.657 258.189 324.673C259.338 326.042 261.756 327.96 262.242 324.673C263.593 325.864 266.214 327.531 265.89 324.673C267.713 325.745 271.118 327.138 270.145 324.137C271.901 325.149 275.049 326.388 273.59 323.244C273.484 323.016 273.325 322.79 273.119 322.566C273.153 322.553 273.17 322.546 273.17 322.546Z" fill="#61B379"/>
<path fill-rule="evenodd" clip-rule="evenodd" d="M273.17 319.598L255.098 289.502L237.3 319.139C237.274 319.172 237.248 319.206 237.223 319.239C236.345 320.43 235.899 322.259 236.71 321.545C237.52 320.83 237.926 320.294 237.926 320.294C237.926 320.294 236.304 324.51 239.547 320.652C239.682 322.021 240.56 324.046 242.991 321.188C242.924 322.672 243.595 324.783 246.81 321.399C246.821 321.4 246.831 321.401 246.842 321.402C246.852 322.829 247.512 324.842 250.084 321.724C250.825 322.971 252.709 324.717 254.328 321.745C254.336 321.745 254.345 321.745 254.353 321.745C255.171 322.994 257.061 324.708 258.189 321.724C259.338 323.093 261.756 325.011 262.242 321.724C263.593 322.915 266.214 324.582 265.89 321.724C267.713 322.795 271.118 324.189 270.145 321.188C271.901 322.2 275.049 323.439 273.59 320.294C273.484 320.067 273.325 319.841 273.119 319.617C273.153 319.604 273.17 319.598 273.17 319.598Z" fill="#73CB8D"/>
<path fill-rule="evenodd" clip-rule="evenodd" d="M269.988 310.145L255.08 282.621L240.399 309.725C240.377 309.755 240.356 309.786 240.335 309.817C239.611 310.906 239.243 312.579 239.912 311.925C240.58 311.272 240.914 310.782 240.914 310.782C240.914 310.782 239.577 314.637 242.252 311.108C242.363 312.361 243.088 314.213 245.093 311.599C245.038 312.956 245.591 314.886 248.244 311.792C248.252 311.793 248.261 311.794 248.27 311.795C248.278 313.1 248.822 314.94 250.944 312.089C251.555 313.23 253.11 314.826 254.445 312.108C254.452 312.108 254.459 312.108 254.466 312.108C255.141 313.25 256.699 314.818 257.63 312.089C258.577 313.341 260.572 315.095 260.973 312.089C262.088 313.178 264.25 314.703 263.982 312.089C265.487 313.069 268.295 314.343 267.492 311.599C268.941 312.524 271.538 313.657 270.334 310.782C270.247 310.574 270.116 310.367 269.946 310.162C269.974 310.151 269.988 310.145 269.988 310.145Z" fill="#61B379"/>
<path fill-rule="evenodd" clip-rule="evenodd" d="M270.033 307.523L255.124 280L240.442 307.105C240.421 307.135 240.4 307.165 240.38 307.196C239.655 308.285 239.287 309.958 239.956 309.304C240.625 308.651 240.959 308.161 240.959 308.161C240.959 308.161 239.622 312.016 242.296 308.487C242.408 309.74 243.132 311.592 245.138 308.978C245.082 310.335 245.636 312.265 248.288 309.171C248.297 309.172 248.305 309.173 248.314 309.173C248.323 310.479 248.866 312.319 250.988 309.468C251.6 310.609 253.154 312.205 254.489 309.487C254.496 309.487 254.503 309.487 254.51 309.487C255.185 310.629 256.744 312.197 257.675 309.468C258.622 310.72 260.617 312.474 261.018 309.468C262.132 310.557 264.294 312.082 264.027 309.468C265.531 310.448 268.339 311.722 267.537 308.978C268.986 309.903 271.582 311.036 270.379 308.161C270.292 307.953 270.16 307.746 269.99 307.541C270.019 307.529 270.033 307.523 270.033 307.523Z" fill="#73CB8D"/>
<path d="M112.319 359.621H99.8682C99.1583 360.44 97.4763 362.209 96.4278 362.734C95.1171 363.389 98.2299 364.372 99.049 363.389C98.6668 364.044 98.1971 365.322 99.3767 365.191C100.851 365.027 102.817 364.208 104.783 364.7C106.749 365.191 111.172 365.682 112.319 365.191C112.935 364.927 112.559 364.191 112.104 363.389C114.685 364.306 115.616 363.334 115.76 362.734C114.449 362.209 112.92 360.44 112.319 359.621Z" fill="#AFA783"/>
<path d="M112.319 333.408H99.8682V359.621H112.319V333.408Z" fill="#AFA783"/>
<path fill-rule="evenodd" clip-rule="evenodd" d="M128.529 335.374L105.742 307.851L83.3005 334.956C83.2675 334.986 83.2355 335.016 83.2045 335.047C82.0973 336.136 81.5349 337.809 82.557 337.155C83.579 336.502 84.09 336.012 84.09 336.012C84.09 336.012 82.046 339.867 86.134 336.338C86.3044 337.591 87.4115 339.443 90.4775 336.829C90.3926 338.186 91.2386 340.116 95.2929 337.022C95.306 337.023 95.3191 337.024 95.3322 337.024C95.3457 338.33 96.1766 340.17 99.42 337.319C100.355 338.46 102.73 340.056 104.771 337.338C104.782 337.338 104.792 337.338 104.803 337.338C105.834 338.48 108.217 340.048 109.64 337.319C111.088 338.571 114.137 340.325 114.75 337.319C116.453 338.408 119.758 339.933 119.349 337.319C121.648 338.299 125.941 339.573 124.714 336.829C126.929 337.754 130.898 338.887 129.058 336.012C128.925 335.804 128.725 335.597 128.464 335.392C128.508 335.38 128.529 335.374 128.529 335.374Z" fill="#61B379"/>
<path fill-rule="evenodd" clip-rule="evenodd" d="M126.318 331.115L105.417 303.591L84.8329 330.696C84.8026 330.726 84.7732 330.757 84.7447 330.787C83.7291 331.876 83.2133 333.549 84.1507 332.896C85.0882 332.242 85.5569 331.752 85.5569 331.752C85.5569 331.752 83.6821 335.608 87.4318 332.079C87.588 333.331 88.6036 335.183 91.4158 332.569C91.3379 333.926 92.1139 335.857 95.8327 332.762C95.8447 332.763 95.8567 332.764 95.8687 332.765C95.8811 334.07 96.6432 335.911 99.6182 333.059C100.476 334.2 102.655 335.796 104.527 333.078C104.536 333.078 104.546 333.078 104.556 333.078C105.502 334.221 107.687 335.789 108.992 333.059C110.32 334.312 113.117 336.065 113.68 333.059C115.242 334.148 118.273 335.673 117.898 333.059C120.007 334.039 123.944 335.314 122.819 332.569C124.85 333.495 128.491 334.628 126.803 331.752C126.681 331.544 126.498 331.338 126.259 331.132C126.299 331.121 126.318 331.115 126.318 331.115Z" fill="#73CB8D"/>
<path fill-rule="evenodd" clip-rule="evenodd" d="M124.149 322.546L106.077 292.451L88.2781 322.089C88.252 322.122 88.2267 322.155 88.2022 322.188C87.3241 323.379 86.878 325.209 87.6886 324.494C88.4992 323.78 88.9045 323.244 88.9045 323.244C88.9045 323.244 87.2834 327.46 90.5256 323.601C90.6607 324.97 91.5388 326.995 93.9705 324.137C93.9031 325.621 94.5741 327.732 97.7898 324.348C97.8001 324.349 97.8104 324.35 97.8207 324.351C97.8314 325.778 98.4903 327.791 101.063 324.673C101.804 325.92 103.688 327.666 105.307 324.693C105.315 324.693 105.323 324.693 105.332 324.694C106.15 325.943 108.04 327.657 109.168 324.673C110.317 326.042 112.735 327.96 113.221 324.673C114.572 325.864 117.193 327.531 116.869 324.673C118.692 325.745 122.097 327.138 121.124 324.137C122.88 325.149 126.028 326.388 124.569 323.244C124.463 323.016 124.304 322.79 124.098 322.566C124.132 322.553 124.149 322.546 124.149 322.546Z" fill="#61B379"/>
<path fill-rule="evenodd" clip-rule="evenodd" d="M124.149 319.598L106.077 289.502L88.2789 319.139C88.2526 319.172 88.227 319.206 88.2022 319.239C87.3241 320.43 86.878 322.259 87.6886 321.545C88.4992 320.83 88.9045 320.294 88.9045 320.294C88.9045 320.294 87.2834 324.51 90.5256 320.652C90.6607 322.021 91.5388 324.046 93.9705 321.188C93.9031 322.672 94.5741 324.783 97.7895 321.399C97.7999 321.4 97.8103 321.401 97.8207 321.402C97.8315 322.829 98.4905 324.842 101.063 321.724C101.804 322.971 103.688 324.717 105.307 321.745C105.315 321.745 105.324 321.745 105.332 321.745C106.15 322.994 108.04 324.708 109.168 321.724C110.317 323.093 112.735 325.011 113.221 321.724C114.572 322.915 117.193 324.582 116.869 321.724C118.692 322.795 122.097 324.189 121.124 321.188C122.88 322.2 126.028 323.439 124.569 320.294C124.463 320.067 124.304 319.841 124.098 319.617C124.132 319.604 124.149 319.598 124.149 319.598Z" fill="#73CB8D"/>
<path fill-rule="evenodd" clip-rule="evenodd" d="M120.967 310.145L106.059 282.621L91.3777 309.725C91.3559 309.755 91.3347 309.786 91.3141 309.817C90.5898 310.906 90.2218 312.579 90.8905 311.925C91.5592 311.272 91.8935 310.782 91.8935 310.782C91.8935 310.782 90.5562 314.637 93.2308 311.108C93.3422 312.361 94.0665 314.213 96.0724 311.599C96.0169 312.956 96.5703 314.886 99.2226 311.792C99.2312 311.793 99.2399 311.794 99.2485 311.795C99.2574 313.1 99.8011 314.94 101.923 312.089C102.534 313.23 104.089 314.826 105.424 312.108C105.431 312.108 105.438 312.108 105.445 312.108C106.12 313.25 107.678 314.818 108.609 312.089C109.556 313.341 111.551 315.095 111.952 312.089C113.067 313.178 115.229 314.703 114.961 312.089C116.466 313.069 119.274 314.343 118.471 311.599C119.92 312.524 122.517 313.657 121.313 310.782C121.226 310.574 121.095 310.367 120.925 310.162C120.953 310.151 120.967 310.145 120.967 310.145Z" fill="#61B379"/>
<path fill-rule="evenodd" clip-rule="evenodd" d="M121.012 307.523L106.103 280L91.4214 307.105C91.3998 307.135 91.3789 307.165 91.3586 307.196C90.6342 308.285 90.2663 309.958 90.9349 309.304C91.6036 308.651 91.9379 308.161 91.9379 308.161C91.9379 308.161 90.6007 312.016 93.2752 308.487C93.3866 309.74 94.111 311.592 96.1169 308.978C96.0613 310.335 96.6148 312.265 99.2673 309.171C99.2758 309.172 99.2844 309.173 99.293 309.173C99.3018 310.479 99.8454 312.319 101.967 309.468C102.579 310.609 104.133 312.205 105.468 309.487C105.475 309.487 105.482 309.487 105.489 309.487C106.164 310.629 107.723 312.197 108.654 309.468C109.601 310.72 111.596 312.474 111.997 309.468C113.111 310.557 115.273 312.082 115.006 309.468C116.51 310.448 119.318 311.722 118.516 308.978C119.965 309.903 122.561 311.036 121.358 308.161C121.271 307.953 121.139 307.746 120.969 307.541C120.998 307.529 121.012 307.523 121.012 307.523Z" fill="#73CB8D"/>
<path fill-rule="evenodd" clip-rule="evenodd" d="M426.571 335.374L403.784 307.851L381.343 334.956C381.31 334.986 381.278 335.016 381.246 335.047C380.139 336.136 379.577 337.809 380.599 337.155C381.621 336.502 382.132 336.012 382.132 336.012C382.132 336.012 380.088 339.867 384.176 336.338C384.346 337.591 385.454 339.443 388.52 336.829C388.435 338.186 389.281 340.116 393.335 337.022C393.348 337.023 393.361 337.024 393.374 337.024C393.388 338.33 394.219 340.17 397.462 337.319C398.397 338.46 400.772 340.056 402.813 337.338C402.824 337.338 402.834 337.338 402.845 337.338C403.876 338.48 406.259 340.048 407.682 337.319C409.13 338.571 412.179 340.325 412.792 337.319C414.495 338.408 417.8 339.933 417.391 337.319C419.69 338.299 423.983 339.573 422.756 336.829C424.971 337.754 428.94 338.887 427.1 336.012C426.967 335.804 426.767 335.597 426.506 335.392C426.55 335.38 426.571 335.374 426.571 335.374Z" fill="#61B379"/>
<path fill-rule="evenodd" clip-rule="evenodd" d="M424.36 331.115L403.459 303.591L382.875 330.696C382.845 330.726 382.815 330.757 382.787 330.787C381.771 331.876 381.255 333.549 382.193 332.896C383.13 332.242 383.599 331.752 383.599 331.752C383.599 331.752 381.724 335.608 385.474 332.079C385.63 333.331 386.646 335.183 389.458 332.569C389.38 333.926 390.156 335.857 393.875 332.762C393.887 332.763 393.899 332.764 393.911 332.765C393.923 334.07 394.685 335.911 397.66 333.059C398.518 334.2 400.697 335.796 402.569 333.078C402.578 333.078 402.588 333.078 402.597 333.078C403.544 334.221 405.729 335.789 407.034 333.059C408.362 334.312 411.159 336.065 411.722 333.059C413.284 334.148 416.315 335.673 415.94 333.059C418.049 334.039 421.986 335.314 420.861 332.569C422.892 333.495 426.533 334.628 424.845 331.752C424.723 331.544 424.54 331.338 424.301 331.132C424.341 331.121 424.36 331.115 424.36 331.115Z" fill="#73CB8D"/>
<path fill-rule="evenodd" clip-rule="evenodd" d="M422.191 322.546L404.119 292.451L386.32 322.089C386.294 322.122 386.269 322.155 386.244 322.188C385.366 323.379 384.92 325.209 385.731 324.494C386.541 323.78 386.947 323.244 386.947 323.244C386.947 323.244 385.325 327.46 388.568 323.601C388.703 324.97 389.581 326.995 392.012 324.137C391.945 325.621 392.616 327.732 395.832 324.348C395.842 324.349 395.852 324.35 395.863 324.351C395.873 325.778 396.532 327.791 399.105 324.673C399.846 325.92 401.73 327.666 403.349 324.693C403.357 324.693 403.365 324.693 403.374 324.694C404.192 325.943 406.082 327.657 407.21 324.673C408.359 326.042 410.777 327.96 411.263 324.673C412.614 325.864 415.235 327.531 414.911 324.673C416.734 325.745 420.139 327.138 419.166 324.137C420.922 325.149 424.07 326.388 422.611 323.244C422.505 323.016 422.346 322.79 422.14 322.566C422.174 322.553 422.191 322.546 422.191 322.546Z" fill="#61B379"/>
<path fill-rule="evenodd" clip-rule="evenodd" d="M422.191 319.598L404.119 289.502L386.321 319.139C386.295 319.172 386.269 319.206 386.244 319.239C385.366 320.43 384.92 322.259 385.731 321.545C386.541 320.83 386.947 320.294 386.947 320.294C386.947 320.294 385.325 324.51 388.568 320.652C388.703 322.021 389.581 324.046 392.012 321.188C391.945 322.672 392.616 324.783 395.831 321.399C395.842 321.4 395.852 321.401 395.863 321.402C395.873 322.829 396.533 324.842 399.105 321.724C399.846 322.971 401.73 324.717 403.349 321.745C403.357 321.745 403.366 321.745 403.374 321.745C404.192 322.994 406.082 324.708 407.21 321.724C408.359 323.093 410.777 325.011 411.263 321.724C412.614 322.915 415.235 324.582 414.911 321.724C416.734 322.795 420.139 324.189 419.166 321.188C420.922 322.2 424.07 323.439 422.611 320.294C422.505 320.067 422.346 319.841 422.14 319.617C422.174 319.604 422.191 319.598 422.191 319.598Z" fill="#73CB8D"/>
<path fill-rule="evenodd" clip-rule="evenodd" d="M419.009 310.145L404.101 282.621L389.42 309.725C389.398 309.755 389.377 309.786 389.356 309.817C388.632 310.906 388.264 312.579 388.933 311.925C389.601 311.272 389.935 310.782 389.935 310.782C389.935 310.782 388.598 314.637 391.273 311.108C391.384 312.361 392.109 314.213 394.114 311.599C394.059 312.956 394.612 314.886 397.265 311.792C397.273 311.793 397.282 311.794 397.291 311.795C397.299 313.1 397.843 314.94 399.965 312.089C400.576 313.23 402.131 314.826 403.466 312.108C403.473 312.108 403.48 312.108 403.487 312.108C404.162 313.25 405.72 314.818 406.651 312.089C407.598 313.341 409.593 315.095 409.994 312.089C411.109 313.178 413.271 314.703 413.003 312.089C414.508 313.069 417.316 314.343 416.513 311.599C417.962 312.524 420.559 313.657 419.355 310.782C419.268 310.574 419.137 310.367 418.967 310.162C418.995 310.151 419.009 310.145 419.009 310.145Z" fill="#61B379"/>
<path fill-rule="evenodd" clip-rule="evenodd" d="M419.054 307.523L404.145 280L389.463 307.105C389.442 307.135 389.421 307.165 389.401 307.196C388.676 308.285 388.308 309.958 388.977 309.304C389.646 308.651 389.98 308.161 389.98 308.161C389.98 308.161 388.643 312.016 391.317 308.487C391.429 309.74 392.153 311.592 394.159 308.978C394.103 310.335 394.657 312.265 397.309 309.171C397.318 309.172 397.326 309.173 397.335 309.173C397.344 310.479 397.887 312.319 400.009 309.468C400.621 310.609 402.175 312.205 403.51 309.487C403.517 309.487 403.524 309.487 403.531 309.487C404.206 310.629 405.765 312.197 406.696 309.468C407.643 310.72 409.638 312.474 410.039 309.468C411.153 310.557 413.315 312.082 413.048 309.468C414.552 310.448 417.36 311.722 416.558 308.978C418.007 309.903 420.603 311.036 419.4 308.161C419.313 307.953 419.181 307.746 419.011 307.541C419.04 307.529 419.054 307.523 419.054 307.523Z" fill="#73CB8D"/>
<path d="M335.85 359.621H323.399C322.69 360.44 321.008 362.209 319.959 362.734C318.648 363.389 321.761 364.372 322.58 363.389C322.198 364.044 321.728 365.322 322.908 365.191C324.382 365.027 326.348 364.208 328.314 364.7C330.28 365.191 334.704 365.682 335.85 365.191C336.466 364.927 336.09 364.191 335.635 363.389C338.216 364.306 339.148 363.334 339.291 362.734C337.98 362.209 336.451 360.44 335.85 359.621Z" fill="#AFA783"/>
<path d="M335.85 333.408H323.399V359.621H335.85V333.408Z" fill="#AFA783"/>
<path fill-rule="evenodd" clip-rule="evenodd" d="M352.06 335.374L329.273 307.851L306.832 334.956C306.799 334.986 306.767 335.016 306.736 335.047C305.629 336.136 305.066 337.809 306.088 337.155C307.11 336.502 307.621 336.012 307.621 336.012C307.621 336.012 305.577 339.867 309.665 336.338C309.836 337.591 310.943 339.443 314.009 336.829C313.924 338.186 314.77 340.116 318.824 337.022C318.837 337.023 318.85 337.024 318.863 337.024C318.877 338.33 319.708 340.17 322.951 337.319C323.886 338.46 326.262 340.056 328.303 337.338C328.313 337.338 328.323 337.338 328.334 337.338C329.366 338.48 331.748 340.048 333.171 337.319C334.619 338.571 337.668 340.325 338.281 337.319C339.985 338.408 343.289 339.933 342.88 337.319C345.18 338.299 349.472 339.573 348.246 336.829C350.46 337.754 354.429 338.887 352.589 336.012C352.456 335.804 352.256 335.597 351.996 335.392C352.039 335.38 352.06 335.374 352.06 335.374Z" fill="#61B379"/>
<path fill-rule="evenodd" clip-rule="evenodd" d="M349.85 331.115L328.948 303.591L308.364 330.696C308.334 330.726 308.304 330.757 308.276 330.787C307.26 331.876 306.745 333.549 307.682 332.896C308.619 332.242 309.088 331.752 309.088 331.752C309.088 331.752 307.213 335.608 310.963 332.079C311.119 333.331 312.135 335.183 314.947 332.569C314.869 333.926 315.645 335.857 319.364 332.762C319.376 332.763 319.388 332.764 319.4 332.765C319.412 334.07 320.174 335.911 323.149 333.059C324.007 334.2 326.186 335.796 328.058 333.078C328.067 333.078 328.077 333.078 328.087 333.078C329.033 334.221 331.219 335.789 332.524 333.059C333.852 334.312 336.648 336.065 337.211 333.059C338.773 334.148 341.804 335.673 341.429 333.059C343.538 334.039 347.476 335.314 346.351 332.569C348.382 333.495 352.022 334.628 350.335 331.752C350.213 331.544 350.029 331.338 349.79 331.132C349.83 331.121 349.85 331.115 349.85 331.115Z" fill="#73CB8D"/>
<path fill-rule="evenodd" clip-rule="evenodd" d="M347.681 322.546L329.608 292.451L311.809 322.089C311.783 322.122 311.758 322.155 311.733 322.188C310.855 323.379 310.409 325.209 311.22 324.494C312.03 323.78 312.436 323.244 312.436 323.244C312.436 323.244 310.815 327.46 314.057 323.601C314.192 324.97 315.07 326.995 317.502 324.137C317.434 325.621 318.105 327.732 321.321 324.348C321.331 324.349 321.342 324.35 321.352 324.351C321.363 325.778 322.022 327.791 324.594 324.673C325.335 325.92 327.22 327.666 328.838 324.693C328.846 324.693 328.855 324.693 328.863 324.694C329.681 325.943 331.571 327.657 332.7 324.673C333.848 326.042 336.266 327.96 336.752 324.673C338.103 325.864 340.724 327.531 340.4 324.673C342.224 325.745 345.628 327.138 344.655 324.137C346.411 325.149 349.559 326.388 348.1 323.244C347.995 323.016 347.836 322.79 347.629 322.566C347.664 322.553 347.681 322.546 347.681 322.546Z" fill="#61B379"/>
<path fill-rule="evenodd" clip-rule="evenodd" d="M347.681 319.598L329.608 289.502L311.81 319.139C311.784 319.172 311.758 319.206 311.733 319.239C310.855 320.43 310.409 322.259 311.22 321.545C312.03 320.83 312.436 320.294 312.436 320.294C312.436 320.294 310.815 324.51 314.057 320.652C314.192 322.021 315.07 324.046 317.502 321.188C317.434 322.672 318.105 324.783 321.321 321.399C321.331 321.4 321.342 321.401 321.352 321.402C321.363 322.829 322.022 324.842 324.594 321.724C325.335 322.971 327.219 324.717 328.838 321.745C328.846 321.745 328.855 321.745 328.863 321.745C329.681 322.994 331.571 324.708 332.7 321.724C333.848 323.093 336.266 325.011 336.752 321.724C338.103 322.915 340.724 324.582 340.4 321.724C342.224 322.795 345.628 324.189 344.655 321.188C346.411 322.2 349.559 323.439 348.1 320.294C347.995 320.067 347.836 319.841 347.629 319.617C347.664 319.604 347.681 319.598 347.681 319.598Z" fill="#73CB8D"/>
<path fill-rule="evenodd" clip-rule="evenodd" d="M344.498 310.145L329.59 282.621L314.909 309.725C314.887 309.755 314.866 309.786 314.845 309.817C314.121 310.906 313.753 312.579 314.422 311.925C315.09 311.272 315.425 310.782 315.425 310.782C315.425 310.782 314.087 314.637 316.762 311.108C316.873 312.361 317.598 314.213 319.604 311.599C319.548 312.956 320.102 314.886 322.754 311.792C322.762 311.793 322.771 311.794 322.78 311.795C322.789 313.1 323.332 314.94 325.454 312.089C326.066 313.23 327.62 314.826 328.955 312.108C328.962 312.108 328.969 312.108 328.976 312.108C329.651 313.25 331.21 314.818 332.14 312.089C333.088 313.341 335.082 315.095 335.484 312.089C336.598 313.178 338.76 314.703 338.492 312.089C339.997 313.069 342.805 314.343 342.003 311.599C343.451 312.524 346.048 313.657 344.844 310.782C344.757 310.574 344.626 310.367 344.456 310.162C344.484 310.151 344.498 310.145 344.498 310.145Z" fill="#61B379"/>
<path fill-rule="evenodd" clip-rule="evenodd" d="M344.543 307.523L329.634 280L314.953 307.105C314.931 307.135 314.91 307.165 314.89 307.196C314.165 308.285 313.798 309.958 314.466 309.304C315.135 308.651 315.469 308.161 315.469 308.161C315.469 308.161 314.132 312.016 316.806 308.487C316.918 309.74 317.642 311.592 319.648 308.978C319.593 310.335 320.146 312.265 322.799 309.171C322.807 309.172 322.816 309.173 322.824 309.173C322.833 310.479 323.377 312.319 325.499 309.468C326.11 310.609 327.664 312.205 329 309.487C329.006 309.487 329.013 309.487 329.02 309.487C329.695 310.629 331.254 312.197 332.185 309.468C333.132 310.72 335.127 312.474 335.528 309.468C336.642 310.557 338.804 312.082 338.537 309.468C340.041 310.448 342.849 311.722 342.047 308.978C343.496 309.903 346.092 311.036 344.889 308.161C344.802 307.953 344.671 307.746 344.5 307.541C344.529 307.529 344.543 307.523 344.543 307.523Z" fill="#73CB8D"/>
<path d="M186.83 359.621H174.379C173.669 360.44 171.987 362.209 170.939 362.734C169.628 363.389 172.741 364.372 173.56 363.389C173.178 364.044 172.708 365.322 173.887 365.191C175.362 365.027 177.328 364.208 179.294 364.7C181.26 365.191 185.683 365.682 186.83 365.191C187.445 364.927 187.07 364.191 186.615 363.389C189.195 364.306 190.127 363.334 190.27 362.734C188.96 362.209 187.431 360.44 186.83 359.621Z" fill="#AFA783"/>
<path d="M186.83 333.408H174.379V359.621H186.83V333.408Z" fill="#AFA783"/>
<path fill-rule="evenodd" clip-rule="evenodd" d="M203.04 335.374L180.252 307.851L157.811 334.956C157.778 334.986 157.746 335.016 157.715 335.047C156.608 336.136 156.046 337.809 157.068 337.155C158.09 336.502 158.601 336.012 158.601 336.012C158.601 336.012 156.557 339.867 160.645 336.338C160.815 337.591 161.922 339.443 164.988 336.829C164.903 338.186 165.749 340.116 169.804 337.022C169.817 337.023 169.83 337.024 169.843 337.024C169.856 338.33 170.687 340.17 173.931 337.319C174.865 338.46 177.241 340.056 179.282 337.338C179.292 337.338 179.303 337.338 179.313 337.338C180.345 338.48 182.728 340.048 184.151 337.319C185.599 338.571 188.648 340.325 189.261 337.319C190.964 338.408 194.269 339.933 193.86 337.319C196.159 338.299 200.452 339.573 199.225 336.829C201.44 337.754 205.408 338.887 203.569 336.012C203.436 335.804 203.235 335.597 202.975 335.392C203.018 335.38 203.04 335.374 203.04 335.374Z" fill="#61B379"/>
<path fill-rule="evenodd" clip-rule="evenodd" d="M200.829 331.115L179.927 303.591L159.344 330.696C159.313 330.726 159.284 330.757 159.255 330.787C158.24 331.876 157.724 333.549 158.661 332.896C159.599 332.242 160.068 331.752 160.068 331.752C160.068 331.752 158.193 335.608 161.943 332.079C162.099 333.331 163.114 335.183 165.927 332.569C165.849 333.926 166.625 335.857 170.343 332.762C170.355 332.763 170.367 332.764 170.379 332.765C170.392 334.07 171.154 335.911 174.129 333.059C174.986 334.2 177.165 335.796 179.037 333.078C179.047 333.078 179.057 333.078 179.066 333.078C180.012 334.221 182.198 335.789 183.503 333.059C184.831 334.312 187.628 336.065 188.19 333.059C189.753 334.148 192.784 335.673 192.409 333.059C194.518 334.039 198.455 335.314 197.33 332.569C199.361 333.495 203.001 334.628 201.314 331.752C201.192 331.544 201.008 331.338 200.77 331.132C200.809 331.121 200.829 331.115 200.829 331.115Z" fill="#73CB8D"/>
<path fill-rule="evenodd" clip-rule="evenodd" d="M198.66 322.546L180.587 292.451L162.789 322.089C162.763 322.122 162.737 322.155 162.713 322.188C161.835 323.379 161.389 325.209 162.199 324.494C163.01 323.78 163.415 323.244 163.415 323.244C163.415 323.244 161.794 327.46 165.036 323.601C165.171 324.97 166.05 326.995 168.481 324.137C168.414 325.621 169.085 327.732 172.301 324.348C172.311 324.349 172.321 324.35 172.331 324.351C172.342 325.778 173.001 327.791 175.574 324.673C176.315 325.92 178.199 327.666 179.818 324.693C179.826 324.693 179.834 324.693 179.842 324.694C180.661 325.943 182.551 327.657 183.679 324.673C184.827 326.042 187.245 327.96 187.732 324.673C189.083 325.864 191.703 327.531 191.379 324.673C193.203 325.745 196.607 327.138 195.635 324.137C197.391 325.149 200.538 326.388 199.079 323.244C198.974 323.016 198.815 322.79 198.609 322.566C198.643 322.553 198.66 322.546 198.66 322.546Z" fill="#61B379"/>
<path fill-rule="evenodd" clip-rule="evenodd" d="M198.66 319.598L180.587 289.502L162.79 319.139C162.763 319.172 162.738 319.206 162.713 319.239C161.835 320.43 161.389 322.259 162.199 321.545C163.01 320.83 163.415 320.294 163.415 320.294C163.415 320.294 161.794 324.51 165.036 320.652C165.171 322.021 166.05 324.046 168.481 321.188C168.414 322.672 169.085 324.783 172.3 321.399C172.311 321.4 172.321 321.401 172.331 321.402C172.342 322.829 173.001 324.842 175.574 321.724C176.315 322.971 178.199 324.717 179.818 321.745C179.826 321.745 179.834 321.745 179.843 321.745C180.661 322.994 182.551 324.708 183.679 321.724C184.827 323.093 187.245 325.011 187.732 321.724C189.083 322.915 191.703 324.582 191.379 321.724C193.203 322.795 196.607 324.189 195.635 321.188C197.391 322.2 200.538 323.439 199.079 320.294C198.974 320.067 198.815 319.841 198.609 319.617C198.643 319.604 198.66 319.598 198.66 319.598Z" fill="#73CB8D"/>
<path fill-rule="evenodd" clip-rule="evenodd" d="M195.478 310.145L180.569 282.621L165.888 309.725C165.867 309.755 165.845 309.786 165.825 309.817C165.101 310.906 164.733 312.579 165.401 311.925C166.07 311.272 166.404 310.782 166.404 310.782C166.404 310.782 165.067 314.637 167.741 311.108C167.853 312.361 168.577 314.213 170.583 311.599C170.528 312.956 171.081 314.886 173.733 311.792C173.742 311.793 173.751 311.794 173.759 311.795C173.768 313.1 174.312 314.94 176.434 312.089C177.045 313.23 178.599 314.826 179.934 312.108C179.941 312.108 179.948 312.108 179.955 312.108C180.63 313.25 182.189 314.818 183.12 312.089C184.067 313.341 186.062 315.095 186.463 312.089C187.577 313.178 189.739 314.703 189.472 312.089C190.976 313.069 193.785 314.343 192.982 311.599C194.431 312.524 197.027 313.657 195.824 310.782C195.737 310.574 195.606 310.367 195.436 310.162C195.464 310.151 195.478 310.145 195.478 310.145Z" fill="#61B379"/>
<path fill-rule="evenodd" clip-rule="evenodd" d="M195.522 307.523L180.614 280L165.932 307.105C165.911 307.135 165.89 307.165 165.869 307.196C165.145 308.285 164.777 309.958 165.446 309.304C166.114 308.651 166.449 308.161 166.449 308.161C166.449 308.161 165.111 312.016 167.786 308.487C167.897 309.74 168.622 311.592 170.628 308.978C170.572 310.335 171.126 312.265 173.778 309.171C173.787 309.172 173.795 309.173 173.804 309.173C173.813 310.479 174.356 312.319 176.478 309.468C177.09 310.609 178.644 312.205 179.979 309.487C179.986 309.487 179.993 309.487 180 309.487C180.675 310.629 182.234 312.197 183.164 309.468C184.112 310.72 186.106 312.474 186.508 309.468C187.622 310.557 189.784 312.082 189.516 309.468C191.021 310.448 193.829 311.722 193.027 308.978C194.475 309.903 197.072 311.036 195.868 308.161C195.781 307.953 195.65 307.746 195.48 307.541C195.508 307.529 195.522 307.523 195.522 307.523Z" fill="#73CB8D"/>
<path d="M122.932 762.204C123.597 760.944 123.936 759.54 123.918 758.117C123.901 756.693 123.527 755.297 122.832 754.055C121.338 750.769 119.591 747.604 117.608 744.587C114.578 740.095 111.236 735.878 107.994 731.461C103.874 725.846 101.136 719.342 100.001 712.476C98.7189 704.895 100.443 697.114 104.809 690.78C109.175 684.445 115.84 680.054 123.393 678.536C133.369 676.521 142.097 679.083 149.043 686.299C152.305 689.62 155.073 693.391 157.26 697.497C160.851 704.426 163.706 711.742 166.898 718.883C168.233 721.844 168.931 725.203 172.547 727.704C173.083 724.88 173.607 722.491 173.969 720.077C174.941 713.683 175.402 707.163 176.874 700.893C181.637 680.576 193.558 666.281 213.895 660.235C228.945 655.756 243.235 657.834 255.692 668.06C266.016 676.558 269.408 689.111 264.221 701.428C262.239 706 259.67 710.295 256.577 714.205C248.31 724.942 237.873 733.352 226.651 740.817C222.511 743.567 218.583 746.64 214.693 749.713C212.456 751.521 210.736 753.885 209.705 756.568C212.116 756.17 214.501 755.634 216.85 754.963C222.669 752.889 228.451 750.708 234.195 748.419C244.307 744.413 254.52 740.792 265.368 739.436C275.431 738.192 284.596 740.195 292.389 746.976C299.247 752.935 301.728 761.992 298.773 769.88C296.858 774.695 293.231 778.637 288.586 780.953C282.311 784.271 275.56 786.604 268.573 787.87C255.654 790.47 242.537 791.154 229.407 791.466C223.521 791.602 217.623 791.565 211.75 791.752C209.485 791.779 207.234 792.106 205.054 792.722C201.55 793.804 200.765 796.815 203.446 799.279C205.371 800.951 207.574 802.278 209.955 803.198C213.583 804.666 217.436 805.499 221.09 806.93C226.891 809.051 232.565 811.502 238.085 814.27C248.746 819.993 256.353 828.453 259.395 840.472C262.525 852.813 257.575 864.757 246.44 870.928C236.464 876.477 225.84 877.335 214.905 874.175C201.6 870.331 190.715 862.742 181.724 852.378C177.772 847.825 174.243 842.91 170.153 838.481C166.063 834.052 161.686 829.934 157.197 825.94C155.415 824.551 153.402 823.486 151.25 822.793C149.641 822.125 147.882 821.9 146.156 822.141C144.43 822.381 142.8 823.079 141.436 824.161C135.471 828.549 130.279 833.897 126.074 839.987C121.619 846.431 117.088 852.826 112.483 859.171C109.892 862.905 106.441 865.964 102.42 868.091C94.1904 872.234 86.846 868.514 85.2375 859.445C84.5232 855.863 85.0278 852.145 86.6714 848.882C89.1653 844.067 91.8461 839.377 94.7016 834.774C97.0708 830.942 99.9013 827.396 102.32 823.576C103.033 822.294 103.407 820.851 103.405 819.384C103.447 816.737 102.937 814.11 101.906 811.67C100.876 809.231 99.348 807.032 97.4199 805.213C92.2327 799.951 86.8335 794.899 81.6713 789.624C77.8206 785.817 74.1785 781.805 70.7607 777.606C67.5368 773.544 65.8543 768.477 66.0099 763.299C66.2842 751.629 76.4217 743.243 87.8186 745.806C91.7224 746.898 95.4691 748.487 98.9661 750.534C104.44 753.408 109.652 756.754 115.176 759.616C117.687 760.687 120.281 761.552 122.932 762.204Z" fill="#9BD1AB"/>
<path d="M18.8344 783.085C16.8138 780.472 11.7742 775.032 7.78058 774.176C2.78854 773.107 -17.8928 761.704 -20.3888 756.003C-22.4094 752.202 -24.6677 743.245 -17.5362 737.829C-14.5647 733.79 -4.84215 728.136 10.2766 737.829C10.3955 736.403 10.0627 733.125 7.78058 731.414C4.92798 729.276 -2.56007 723.575 -5.05609 723.218C-7.55211 722.862 -34.6517 710.39 -36.078 701.125C-38.2175 696.492 -40.7135 685.944 -33.582 680.813C-30.1351 676.537 -19.2477 670.764 -3.27322 681.882C1.36224 685.208 10.9897 692.786 12.416 696.492C13.3669 696.73 14.9834 696.35 13.8423 692.929C12.416 688.653 -2.91665 670.479 -7.55211 667.628C-12.1876 664.777 -37.5043 648.029 -39.2872 640.545C-41.0701 637.101 -43.78 628.786 -40.3569 623.084C-36.078 615.957 -29.6597 610.612 -21.8151 611.325C-15.0402 611.325 0.149883 613.534 6.71085 622.372C6.8297 621.896 6.78216 619.877 5.64112 615.601C4.21482 610.256 0.649086 578.184 17.4081 572.839C24.3018 569.394 40.6567 566.282 50.926 581.391C54.9672 587.331 62.5504 601.775 60.5535 612.037C60.4347 612.275 60.5535 612.679 61.9798 612.394C63.7627 612.037 78.0257 609.899 84.444 617.026C86.7023 618.689 91.3615 623.441 91.9321 629.142C92.6452 636.269 87.6532 644.465 81.2348 649.454C74.8165 654.443 63.4061 662.283 61.9798 663.708C60.5535 665.133 43.0814 679.031 39.1591 687.227C37.8517 689.246 35.3794 693.927 35.9499 696.492C37.1385 695.542 39.8009 693.285 40.942 691.86C42.3683 690.078 55.9181 676.537 65.9021 675.824C70.2999 674.992 79.9512 674.826 83.3743 680.813C85.9892 683.664 90.4344 691.004 87.2966 697.561C86.108 701.006 81.3775 709.178 71.9639 714.31C66.8345 717.106 66.0599 717.631 67.0326 717.222C68.7306 716.408 70.3005 715.653 71.6073 715.022C69.8764 715.887 67.845 716.88 67.0326 717.222C59.7734 720.701 50.1737 725.251 48.7866 725.713C46.6471 726.426 40.5854 732.127 39.1591 737.829C41.8928 736.285 47.6456 733.196 48.7866 733.196C50.2129 733.196 64.4759 730.345 67.3284 737.829C70.5376 742.343 75.0304 752.795 67.3284 758.497C64.2381 761.467 55.7041 768.332 46.2906 772.038C42.9625 773.345 35.9499 776.386 34.5236 778.096C32.7408 780.234 33.0973 780.947 31.3145 782.016C29.5316 783.085 23.8264 785.223 18.8344 783.085Z" fill="#61B379"/>
<path d="M341.834 783.085C339.814 780.472 334.774 775.032 330.781 774.176C325.789 773.107 305.107 761.704 302.611 756.003C300.591 752.202 298.332 743.245 305.464 737.829C308.435 733.79 318.158 728.136 333.277 737.829C333.395 736.403 333.063 733.125 330.781 731.414C327.928 729.276 320.44 723.575 317.944 723.218C315.448 722.862 288.348 710.39 286.922 701.125C284.783 696.492 282.286 685.944 289.418 680.813C292.865 676.537 303.752 670.764 319.727 681.882C324.362 685.208 333.99 692.786 335.416 696.492C336.367 696.73 337.983 696.35 336.842 692.929C335.416 688.653 320.083 670.479 315.448 667.628C310.812 664.777 285.496 648.029 283.713 640.545C281.93 637.101 279.22 628.786 282.643 623.084C286.922 615.957 293.34 610.612 301.185 611.325C307.96 611.325 323.15 613.534 329.711 622.372C329.83 621.896 329.782 619.877 328.641 615.601C327.215 610.256 323.649 578.184 340.408 572.839C347.302 569.394 363.657 566.282 373.926 581.391C377.967 587.331 385.55 601.775 383.554 612.037C383.435 612.275 383.554 612.679 384.98 612.394C386.763 612.037 401.026 609.899 407.444 617.026C409.702 618.689 414.362 623.441 414.932 629.142C415.645 636.269 410.653 644.465 404.235 649.454C397.817 654.443 386.406 662.283 384.98 663.708C383.554 665.133 366.081 679.031 362.159 687.227C360.852 689.246 358.379 693.927 358.95 696.492C360.139 695.542 362.801 693.285 363.942 691.86C365.368 690.078 378.918 676.537 388.902 675.824C393.3 674.992 402.951 674.826 406.374 680.813C408.989 683.664 413.434 691.004 410.297 697.561C409.108 701.006 404.377 709.178 394.964 714.31C389.835 717.106 389.06 717.631 390.033 717.222C391.731 716.408 393.301 715.653 394.607 715.022C392.876 715.887 390.845 716.88 390.033 717.222C382.773 720.701 373.174 725.251 371.787 725.713C369.647 726.426 363.585 732.127 362.159 737.829C364.893 736.285 370.646 733.196 371.787 733.196C373.213 733.196 387.476 730.345 390.328 737.829C393.538 742.343 398.03 752.795 390.328 758.497C387.238 761.467 378.704 768.332 369.291 772.038C365.963 773.345 358.95 776.386 357.524 778.096C355.741 780.234 356.097 780.947 354.314 782.016C352.532 783.085 346.826 785.223 341.834 783.085Z" fill="#9BD1AB"/>
<path fill-rule="evenodd" clip-rule="evenodd" d="M397.989 649.218C401.72 652.353 402.158 652.978 403.901 657.663C404.793 660.06 406.425 663.743 407.527 665.846C410.083 670.723 411.148 675.344 410.793 680.017C410.506 683.804 410.189 685.01 409.561 684.708C409.359 684.61 407.509 682.394 405.451 679.782C400.135 673.036 396.46 670.404 388.845 667.889C385.348 666.734 381.989 666.724 381.44 667.866C380.932 668.921 382.444 670.413 387.409 673.755C395.403 679.137 396.756 680.143 399.096 682.442C402.274 685.565 406.71 691.275 407.756 693.591C409.107 696.579 408.881 698.251 406.24 704.806C404.217 709.826 403.527 712.24 402.917 716.425C402.847 716.905 402.594 717.127 402.287 716.98C401.466 716.585 394.08 705.468 389.685 698.011C385.388 690.722 382.932 687.462 378.646 683.359C375.104 679.967 374.324 679.609 373.631 681.049C372.965 682.433 373.39 686.425 374.395 688.235C375.617 690.434 377.974 693.33 382.467 698.152C390.735 707.024 394.841 713.259 396.866 720.017C397.973 723.711 397.877 724.647 396.083 727.637C394.648 730.03 387.864 737.339 386.628 737.824C385.641 738.211 385.645 738.218 382.385 730.322C375.162 712.825 366.502 700.072 362.397 700.885C358.549 701.647 366.804 713.645 367.425 714.601C373.419 723.825 377.729 731.919 380.104 738.41C381.966 743.499 380.74 745.675 373.687 749.796C371.354 751.159 368.15 753.221 366.567 754.377C364.985 755.534 363.49 756.384 363.245 756.267C363.001 756.149 362.699 754.681 362.575 753.004C361.818 742.808 360.368 736.232 355.963 723.026C352.778 713.477 350.565 710.035 347.815 710.357C346.322 710.532 346.996 713.788 350.55 723.572C354.838 735.374 356.517 741.303 357.429 747.862C358.227 753.607 358.084 756.106 356.876 757.493C355.447 759.132 347.222 762.789 343.507 763.436C339.326 764.164 334.888 764.142 334.178 763.388C333.723 762.905 333.986 762.244 336.302 758.04C339.358 752.497 340.05 750.072 340.493 743.357C341.127 733.743 339.146 720.003 337.157 720.215C336.315 720.305 334.839 723.997 334.353 727.233C332.887 736.978 333.347 746.383 330.93 756.158C330.207 759.074 328.097 761.947 325.276 762.929C319.842 764.819 313.586 763.886 308.371 761.956C302.643 759.836 301.432 759.613 300.133 760.436C299.64 760.748 299.111 760.943 298.957 760.869C298.803 760.795 298.5 759.446 298.283 757.871C298.048 756.159 297.181 753.66 296.127 751.652C294.007 747.615 294.077 746.494 296.704 742.514C300.252 737.136 304.194 733.424 309.637 730.337C313.476 728.159 314.777 727.154 315.38 725.901C316.42 723.74 313.886 723.332 309.346 724.928C306.073 726.078 299.546 731.069 296.741 734.567C292.977 739.257 292.578 739.67 292.046 739.414C291.387 739.097 290.223 735.241 290.11 733C290.045 731.709 290.456 730.443 291.95 727.337C293.784 723.523 294.01 723.231 296.769 721.079C299.972 718.582 305.814 716.014 312.983 713.951C324.909 710.52 329.959 708.181 330.139 706.004C330.307 703.972 320.58 703.32 316.186 705.069C310.78 707.221 309.771 707.714 304.889 710.598C298.87 714.152 295.518 716.783 293.397 719.618C291.667 721.931 291.089 722.199 290.513 720.956C290.013 719.877 290.114 712.977 290.679 709.602C291.282 706.004 293.559 701.897 295.933 700.122C299.552 697.418 302.44 696.004 306.572 694.914C312.417 693.371 315.612 692.998 324.333 692.839C332.585 692.689 335.737 692.069 336.236 690.498C336.505 689.651 336.332 689.43 334.921 688.822C332.406 687.738 322.997 687.231 318.005 687.911C310.923 688.876 302.904 690.994 299.533 692.789C298.203 693.497 295.737 695.012 294.053 696.156C292.368 697.299 290.834 698.16 290.642 698.068C289.712 697.62 292.098 687.901 294.228 683.465C295.579 680.652 297.611 679.321 302.579 677.993C310.271 675.939 315.167 675.804 327.025 677.323C332.465 678.019 337.434 678.527 338.067 678.45C340.77 678.123 338.656 675.045 334.265 672.915C331.014 671.339 326.712 670.443 319.819 669.907C312.903 669.37 309.213 669.798 302.705 671.897C299.603 672.897 296.881 673.628 296.656 673.519C295.622 673.022 298.921 665.432 301.902 661.446C305.608 656.491 310.845 656.102 328.465 659.468C329.975 659.757 343.246 660.728 336.731 657.114C331.66 654.302 318.662 650.544 312.547 650.122C310.248 649.963 308.317 649.693 308.257 649.52C308.197 649.348 309.316 648.159 310.744 646.878C312.173 645.598 314.464 642.926 315.835 640.941C317.206 638.957 319.204 636.61 320.275 635.727C322.753 633.682 327.722 631.993 331.188 632.016C337.099 632.055 338.248 631.96 340.393 631.251C341.636 630.841 343.175 629.91 343.868 629.149C346.775 625.958 350.882 626.437 354.709 630.414C357.462 633.275 358.238 636.064 358.327 643.427C358.351 645.446 354.204 660.428 360.186 662.275C364.846 664.517 369.395 656.119 371.671 653.831C376.202 649.273 381.43 644.742 388.349 644.565C390.7 644.504 394.645 646.409 397.989 649.218ZM359.736 678.888C358.691 679.15 357.793 681.028 357.844 682.847C357.891 684.537 359.494 688.089 361.087 690.034C362.068 691.231 362.56 691.504 364.692 692.033C369.934 693.334 371.742 690.438 368.604 685.767C365.268 680.8 362.055 678.307 359.736 678.888ZM351.203 696.159C350.096 698.461 352.743 703.88 354.859 703.643C355.934 703.522 356.892 702.017 356.641 700.844C356.258 699.059 354.371 696.381 353.046 695.744C351.867 695.177 351.653 695.225 351.203 696.159Z" fill="#21825C"/>
<path d="M381.5 786C363.441 798.421 356.5 854 346.5 859C341.859 863.5 319 858.225 306.243 856.807C281 854 254.909 843.117 243.538 835.27C231.098 823.25 202.572 815.904 189.864 813.734C165.785 814.535 155.418 808.391 153.244 805.219C134.784 786.387 155.92 772.33 168.795 767.656C200.398 755.134 241.03 784.684 250.06 796.204C257.283 805.42 283.836 817.407 296.21 822.248C301.828 825.454 319.285 829.594 327.312 831.263L302.731 805.219C292.699 797.706 264.105 741.111 266.112 700.542C267.717 668.087 286.846 665.983 296.21 668.988C322.295 677.503 326.81 723.08 325.305 741.111C324.101 755.535 331.157 786.521 334.836 800.211C336.007 808.224 339.021 824.752 341.859 824.752C343.5 824.752 343 822.5 341.859 820.245C336.5 786.688 363.542 754.467 373.241 741.111C383 731 403.84 715.08 420.616 703.046C448.987 678.504 446.479 678.017 461.248 678.504C481.715 683.313 482.137 700.649 480.31 713.063C477.581 731.608 457.235 746.453 446.701 750.627C419 758.5 392.5 777 381.5 786Z" fill="#61B379"/>
<path d="M389.5 759.5C363.1 777.5 352.167 805 350 816.5C349.6 818.9 349.167 817.833 349 817C348 799.5 356.5 787.5 361.5 777.5C366.5 767.5 391.5 747.5 393.5 746.5C395.5 745.5 416.5 731 421 729.5C425.5 728 447 710.5 448 709C449 707.5 461 697 451.5 709C450.519 710.24 439.5 722 438.5 723.5C437.5 725 422.5 737 389.5 759.5Z" fill="#A5D7A2"/>
<path d="M302 723.5C301.6 720.3 299 710.333 298 707.5C294.5 748 304.5 768.5 306 775.5C307.5 782.5 316.5 803.5 325 813C333.5 822.5 332.5 820 331.5 817C330.7 814.6 328 811 325 802C316.5 790 310.06 766.124 309 759.5C307 747 302.5 727.5 302 723.5Z" fill="#A5D7A2"/>
<path d="M233.5 806C229.5 804 206.5 794.167 195 791C199.5 791 203 789 214 791C225 793 242.106 801.861 250 808C259 815 257 817 296 834.5C299.139 835.909 320 842.5 328 845C327.2 846.6 321.667 845.667 319 845C284 839.5 247.5 813 233.5 806Z" fill="#A5D7A2"/>
<path fill-rule="evenodd" clip-rule="evenodd" d="M-76.6722 778.939C-80.3817 785.176 -80.6907 786.271 -80.8441 793.715C-80.9229 797.523 -81.411 803.501 -81.9297 807C-83.131 815.112 -82.3625 822.132 -79.5714 828.529C-77.3099 833.714 -76.2737 835.255 -75.5389 834.522C-75.3018 834.286 -73.7879 830.261 -72.1747 825.579C-68.0077 813.485 -64.1307 807.982 -54.6549 800.71C-50.3037 797.371 -45.5857 795.708 -44.253 797.045C-43.0216 798.28 -44.4165 801.12 -49.759 808.255C-58.3605 819.743 -59.77 821.821 -61.9336 826.203C-64.8704 832.153 -68.3077 842.359 -68.6439 846.129C-69.0771 850.993 -67.939 853.234 -61.0108 861.155C-55.704 867.223 -53.5493 870.279 -50.6385 875.866C-50.3052 876.506 -49.8398 876.695 -49.4805 876.336C-48.5203 875.379 -43.5863 856.123 -41.0623 843.481C-38.595 831.123 -36.7402 825.334 -32.7261 817.462C-29.4075 810.955 -28.4873 810.068 -26.8063 811.754C-25.1908 813.374 -23.8304 819.195 -24.3562 822.234C-24.9953 825.926 -26.8898 831.155 -30.8431 840.138C-38.1191 856.671 -40.8351 867.453 -40.3678 877.948C-40.1126 883.687 -39.5185 884.956 -35.5298 888.281C-32.3376 890.943 -19.2125 897.893 -17.2367 897.968C-15.6596 898.028 -15.6614 898.041 -14.9501 885.339C-13.3737 857.191 -7.45034 835.009 -1.27911 834.139C4.5061 833.322 -1.21811 854.244 -1.62288 855.893C-5.52724 871.804 -7.61918 885.3 -7.77524 895.594C-7.89825 903.662 -5.10543 906.121 6.83335 908.457C10.7832 909.23 16.2993 910.558 19.0924 911.408C21.8855 912.258 24.4051 912.72 24.6909 912.435C24.9767 912.15 24.6809 909.938 24.0334 907.519C20.0972 892.808 18.911 882.85 18.6281 862.118C18.4229 847.128 19.8476 841.202 23.8721 840.306C26.0581 839.82 26.7072 844.73 26.507 860.231C26.2659 878.932 26.8133 888.093 28.748 897.764C30.4436 906.234 31.8706 909.678 34.2491 911.035C37.0627 912.64 50.4231 913.748 55.9644 912.836C62.2008 911.81 68.4316 909.601 69.0594 908.194C69.4626 907.291 68.7679 906.489 63.4494 901.715C56.4331 895.418 54.271 892.348 50.3546 883.122C44.7481 869.912 40.794 849.62 43.695 848.943C44.9234 848.656 48.8094 853.124 51.0811 857.435C57.9225 870.42 61.8877 883.872 70.0816 896.432C72.5289 900.179 76.9038 903.184 81.3536 903.181C89.9221 903.174 98.2615 898.793 104.649 893.521C111.663 887.732 113.258 886.823 115.488 887.344C116.334 887.541 117.173 887.556 117.353 887.376C117.534 887.196 117.299 885.15 116.831 882.83C116.322 880.306 116.315 876.367 116.814 873.026C117.814 866.309 117.166 864.768 111.52 860.458C103.893 854.636 96.5291 851.35 87.3598 849.678C80.8926 848.498 78.5701 847.723 77.1083 846.257C74.5864 843.728 77.9483 841.911 85.1166 841.929C90.2826 841.941 101.909 845.759 107.57 849.301C115.163 854.051 115.927 854.436 116.549 853.815C117.321 853.046 117.066 847.053 116.126 843.845C115.585 841.998 114.385 840.419 110.761 836.784C106.311 832.321 105.851 832.021 100.915 830.348C95.1861 828.408 85.7111 827.661 74.6179 828.277C56.1639 829.301 47.9159 828.489 46.5946 825.516C45.3611 822.741 58.7199 817.053 65.7575 817.357C74.415 817.731 76.0752 817.93 84.3559 819.591C94.5629 821.636 100.567 823.693 104.94 826.639C108.508 829.043 109.451 829.137 109.652 827.106C109.826 825.344 106.3 815.69 103.849 811.221C101.237 806.457 96.0212 801.798 91.8124 800.467C85.3962 798.439 80.6416 797.868 74.2959 798.361C65.3192 799.058 60.6443 800.1 48.3017 804.154C36.6245 807.99 31.887 808.665 30.4148 806.701C29.6208 805.642 29.7566 805.246 31.4419 803.699C34.4474 800.94 47.4303 795.612 54.7832 794.121C65.2155 792.004 77.5316 791.049 83.1529 791.92C85.3702 792.263 89.5806 793.184 92.5102 793.967C95.4399 794.749 98.0199 795.207 98.2439 794.983C99.3334 793.897 91.2109 781.399 86.0398 776.207C82.7605 772.913 79.2502 772.038 71.6115 772.608C59.7879 773.491 52.8361 775.704 36.9058 783.655C29.5974 787.303 22.8593 790.453 21.9311 790.656C17.9693 791.522 19.4332 786.156 24.5625 781.008C28.3616 777.196 33.9723 773.826 43.402 769.693C52.8643 765.544 58.2631 764.338 68.4442 764.097C73.2985 763.982 77.4844 763.674 77.7475 763.411C78.9568 762.206 70.5954 753.148 64.4483 749.006C56.8061 743.856 49.2513 745.877 26.1239 759.254C24.1416 760.4 5.95581 768.275 13.3447 759.997C19.0971 753.555 35.5317 741.896 43.9248 738.302C47.0802 736.951 49.6624 735.624 49.6626 735.352C49.6627 735.081 47.5053 733.958 44.8684 732.857C42.2316 731.757 37.6995 729.123 34.7983 727.005C31.8966 724.887 27.9359 722.567 25.9971 721.849C21.5096 720.19 13.6928 720.251 8.82941 721.983C0.537435 724.938 -1.12545 725.367 -4.48987 725.423C-6.43967 725.456 -9.0591 724.902 -10.407 724.172C-16.0612 721.11 -21.6014 723.798 -25.0328 731.267C-27.5012 736.641 -27.2239 740.943 -23.7368 751.341C-22.7806 754.192 -9.60149 773.227 -17.1067 778.758C-22.5613 784.197 -33.0771 774.619 -37.3995 772.516C-46.0074 768.329 -55.5815 764.522 -65.3986 767.666C-68.7337 768.734 -73.3475 773.347 -76.6722 778.939ZM-8.32703 801.9C-6.72792 801.755 -4.54404 803.956 -3.72338 806.538C-2.96163 808.938 -3.47385 814.72 -4.75995 818.237C-5.55208 820.402 -6.10985 821.027 -8.8488 822.817C-15.5823 827.217 -19.5451 824.031 -17.4235 815.923C-15.1683 807.302 -11.8718 802.22 -8.32703 801.9ZM12.1439 822.002C14.8302 824.697 13.7661 833.616 10.6741 834.319C9.10278 834.677 7.01669 833.03 6.79496 831.257C6.45749 828.559 7.79847 823.868 9.34896 822.323C10.7293 820.946 11.0536 820.909 12.1439 822.002Z" fill="#21825C"/>
</g>
<defs>
<linearGradient id="paint0_linear_806_5772" x1="237.5" y1="187" x2="237.5" y2="344" gradientUnits="userSpaceOnUse">
<stop stop-color="#9EC7ED"/>
<stop offset="1" stop-color="#9BE0F3"/>
</linearGradient>
<linearGradient id="paint1_linear_806_5772" x1="195" y1="344" x2="195" y2="844" gradientUnits="userSpaceOnUse">
<stop stop-color="#AFE9A5"/>
<stop offset="1" stop-color="#C7EAC1"/>
</linearGradient>
<clipPath id="clip0_806_5772">
<rect width="390" height="844" fill="white"/>
</clipPath>
</defs>
</svg>
