<svg width="390" height="844" viewBox="0 0 390 844" fill="none" xmlns="http://www.w3.org/2000/svg">
<g clip-path="url(#clip0_806_5624)">
<rect width="390" height="844" fill="#C5E0E9"/>
<path d="M470.183 306.882H475V344H3.05176e-05V277.288H10.5984V216.594H16.4423V213.083H34.6856V216.594H40.4666V281.802H48.1744V267.256H61.6633V277.288H74.1887V275.281H78.0426V267.256H82.86V275.281H86.714V291.834L90.568 289.827V258.227H115.619V187H146.45V279.294H156.085V289.827H164.757V275.281H195.588V265.751L203.296 256.22L211.968 265.751H217.748V308.888H221.602V247.693H246.653V281.802H261.105V284.812H268.813V306.882H282.302H288.083V320.927H299.645V277.288H320.842L323.732 206.562H330.477V202.048H346.856V206.562H354.564V308.888H366.126V265.751H370.943V262.741H390.213V265.751H394.067V315.911H398.884V284.812L409.483 275.281L421.045 284.812H425.862V327.949H435.497V306.882H451.876V299.859H470.183V306.882Z" fill="#707070"/>
<rect y="344" width="390" height="500" fill="url(#paint0_linear_806_5624)"/>
<path fill-rule="evenodd" clip-rule="evenodd" d="M44.2981 339.543C44.0861 338.639 43.2796 338 42.3509 338H15.7111C14.7528 338 13.9291 338.68 13.7474 339.621L12.2492 347.379C12.0675 348.32 11.2439 349 10.2855 349H4.42419C3.51986 349 2.72805 349.607 2.49295 350.48L0.0698773 359.48C-0.27226 360.751 0.685067 362 2.00111 362H55.9674C57.2244 362 58.1698 360.854 57.931 359.62L56.1899 350.62C56.0079 349.679 55.1844 349 54.2263 349H48.1008C47.1721 349 46.3656 348.361 46.1536 347.457L44.2981 339.543Z" fill="#D5D5D5"/>
<path d="M17.8589 341.8C17.9539 341.335 18.3635 341 18.8388 341H38.9444C39.4197 341 39.8294 341.335 39.9243 341.8L41.1471 347.8C41.2734 348.42 40.7998 349 40.1672 349H17.616C16.9834 349 16.5098 348.42 16.6361 347.8L17.8589 341.8Z" fill="white"/>
<rect x="27.3916" y="340" width="2.71819" height="9.51367" fill="#D5D5D5"/>
<circle cx="13.8916" cy="360.5" r="5.5" fill="#707070"/>
<circle cx="44.8916" cy="360.5" r="5.5" fill="#707070"/>
<path fill-rule="evenodd" clip-rule="evenodd" d="M322.298 339.543C322.086 338.639 321.28 338 320.351 338H293.711C292.753 338 291.929 338.68 291.747 339.621L290.249 347.379C290.068 348.32 289.244 349 288.285 349H282.424C281.52 349 280.728 349.607 280.493 350.48L278.07 359.48C277.728 360.751 278.685 362 280.001 362H333.967C335.224 362 336.17 360.854 335.931 359.62L334.19 350.62C334.008 349.679 333.184 349 332.226 349H326.101C325.172 349 324.366 348.361 324.154 347.457L322.298 339.543Z" fill="#6799CF"/>
<path d="M295.859 341.8C295.954 341.335 296.363 341 296.839 341H316.944C317.42 341 317.829 341.335 317.924 341.8L319.147 347.8C319.273 348.42 318.8 349 318.167 349H295.616C294.983 349 294.51 348.42 294.636 347.8L295.859 341.8Z" fill="white"/>
<rect x="305.392" y="340" width="2.71819" height="9.51367" fill="#6799CF"/>
<circle cx="291.892" cy="360.5" r="5.5" fill="#707070"/>
<circle cx="322.892" cy="360.5" r="5.5" fill="#707070"/>
<path d="M88.8089 359.621H76.3579C75.648 360.44 73.966 362.209 72.9175 362.734C71.6069 363.389 74.7196 364.372 75.5388 363.389C75.1565 364.044 74.6869 365.322 75.8664 365.191C77.3409 365.027 79.3068 364.208 81.2728 364.7C83.2387 365.191 87.6621 365.682 88.8089 365.191C89.4245 364.927 89.0488 364.191 88.594 363.389C91.1744 364.306 92.106 363.334 92.2493 362.734C90.9387 362.209 89.4096 360.44 88.8089 359.621Z" fill="#9B9785"/>
<path d="M88.8089 333.408H76.3579V359.621H88.8089V333.408Z" fill="#9B9785"/>
<path fill-rule="evenodd" clip-rule="evenodd" d="M105.019 335.374L82.2314 307.851L59.7903 334.956C59.7573 334.986 59.7253 335.016 59.6942 335.047C58.5871 336.136 58.0246 337.809 59.0467 337.155C60.0688 336.502 60.5798 336.012 60.5798 336.012C60.5798 336.012 58.5358 339.867 62.6238 336.338C62.7941 337.591 63.9013 339.443 66.9673 336.829C66.8824 338.186 67.7283 340.116 71.7827 337.022C71.7957 337.023 71.8088 337.024 71.8219 337.024C71.8354 338.33 72.6663 340.17 75.9098 337.319C76.8444 338.46 79.2202 340.056 81.261 337.338C81.2715 337.338 81.282 337.338 81.2925 337.338C82.324 338.48 84.7069 340.048 86.1297 337.319C87.5776 338.571 90.6265 340.325 91.2397 337.319C92.9431 338.408 96.2475 339.933 95.8387 337.319C98.1382 338.299 102.431 339.573 101.204 336.829C103.419 337.754 107.387 338.887 105.548 336.012C105.415 335.804 105.214 335.597 104.954 335.392C104.997 335.38 105.019 335.374 105.019 335.374Z" fill="#61B379"/>
<path fill-rule="evenodd" clip-rule="evenodd" d="M102.808 331.115L81.9064 303.591L61.3226 330.696C61.2923 330.726 61.2629 330.757 61.2344 330.787C60.2189 331.876 59.703 333.549 60.6405 332.896C61.578 332.242 62.0467 331.752 62.0467 331.752C62.0467 331.752 60.1718 335.608 63.9215 332.079C64.0778 333.331 65.0933 335.183 67.9056 332.569C67.8277 333.926 68.6036 335.857 72.3225 332.762C72.3344 332.763 72.3464 332.764 72.3585 332.765C72.3708 334.07 73.133 335.911 76.108 333.059C76.9653 334.2 79.1444 335.796 81.0164 333.078C81.026 333.078 81.0356 333.078 81.0453 333.078C81.9914 334.221 84.1771 335.789 85.4822 333.059C86.8102 334.312 89.6068 336.065 90.1693 333.059C91.7316 334.148 94.7626 335.673 94.3876 333.059C96.4968 334.039 100.434 335.314 99.3091 332.569C101.34 333.495 104.98 334.628 103.293 331.752C103.171 331.544 102.987 331.338 102.749 331.132C102.788 331.121 102.808 331.115 102.808 331.115Z" fill="#73CB8D"/>
<path fill-rule="evenodd" clip-rule="evenodd" d="M100.639 322.546L82.5663 292.451L64.7678 322.089C64.7418 322.122 64.7165 322.155 64.6919 322.188C63.8138 323.379 63.3678 325.209 64.1784 324.494C64.989 323.78 65.3943 323.244 65.3943 323.244C65.3943 323.244 63.7732 327.46 67.0154 323.601C67.1505 324.97 68.0286 326.995 70.4602 324.137C70.3929 325.621 71.0638 327.732 74.2795 324.348C74.2898 324.349 74.3001 324.35 74.3105 324.351C74.3211 325.778 74.9801 327.791 77.5525 324.673C78.2938 325.92 80.1781 327.666 81.7967 324.693C81.805 324.693 81.8132 324.693 81.8215 324.694C82.6395 325.943 84.5295 327.657 85.658 324.673C86.8063 326.042 89.2245 327.96 89.7108 324.673C91.0617 325.864 93.6825 327.531 93.3583 324.673C95.182 325.745 98.5863 327.138 97.6137 324.137C99.3699 325.149 102.517 326.388 101.059 323.244C100.953 323.016 100.794 322.79 100.588 322.566C100.622 322.553 100.639 322.546 100.639 322.546Z" fill="#61B379"/>
<path fill-rule="evenodd" clip-rule="evenodd" d="M100.639 319.598L82.5663 289.502L64.7687 319.139C64.7423 319.172 64.7167 319.206 64.6919 319.239C63.8138 320.43 63.3678 322.259 64.1784 321.545C64.989 320.83 65.3943 320.294 65.3943 320.294C65.3943 320.294 63.7732 324.51 67.0154 320.652C67.1505 322.021 68.0286 324.046 70.4602 321.188C70.3929 322.672 71.0638 324.783 74.2792 321.399C74.2896 321.4 74.3 321.401 74.3105 321.402C74.3212 322.829 74.9803 324.842 77.5525 321.724C78.2938 322.971 80.178 324.717 81.7965 321.745C81.8049 321.745 81.8133 321.745 81.8217 321.745C82.6399 322.994 84.5296 324.708 85.658 321.724C86.8063 323.093 89.2245 325.011 89.7108 321.724C91.0617 322.915 93.6825 324.582 93.3583 321.724C95.182 322.795 98.5863 324.189 97.6137 321.188C99.3699 322.2 102.517 323.439 101.059 320.294C100.953 320.067 100.794 319.841 100.588 319.617C100.622 319.604 100.639 319.598 100.639 319.598Z" fill="#73CB8D"/>
<path fill-rule="evenodd" clip-rule="evenodd" d="M97.4569 310.145L82.5485 282.621L67.8674 309.725C67.8456 309.755 67.8244 309.786 67.8039 309.817C67.0795 310.906 66.7116 312.579 67.3803 311.925C68.0489 311.272 68.3832 310.782 68.3832 310.782C68.3832 310.782 67.046 314.637 69.7205 311.108C69.8319 312.361 70.5563 314.213 72.5622 311.599C72.5066 312.956 73.0601 314.886 75.7123 311.792C75.721 311.793 75.7296 311.794 75.7383 311.795C75.7472 313.1 76.2909 314.94 78.4127 312.089C79.0241 313.23 80.5783 314.826 81.9135 312.108C81.9205 312.108 81.9275 312.108 81.9344 312.108C82.6094 313.25 84.1682 314.818 85.0989 312.089C86.0462 313.341 88.0409 315.095 88.4421 312.089C89.5565 313.178 91.7183 314.703 91.4509 312.089C92.9553 313.069 95.7635 314.343 94.9612 311.599C96.4099 312.524 99.0064 313.657 97.8029 310.782C97.7159 310.574 97.5849 310.367 97.4148 310.162C97.4429 310.151 97.4569 310.145 97.4569 310.145Z" fill="#61B379"/>
<path fill-rule="evenodd" clip-rule="evenodd" d="M97.5013 307.523L82.5929 280L67.9111 307.105C67.8896 307.135 67.8686 307.165 67.8483 307.196C67.124 308.285 66.756 309.958 67.4247 309.304C68.0934 308.651 68.4277 308.161 68.4277 308.161C68.4277 308.161 67.0904 312.016 69.7649 308.487C69.8764 309.74 70.6007 311.592 72.6066 308.978C72.5511 310.335 73.1045 312.265 75.757 309.171C75.7656 309.172 75.7741 309.173 75.7827 309.173C75.7915 310.479 76.3351 312.319 78.4571 309.468C79.0686 310.609 80.6229 312.205 81.9581 309.487C81.9649 309.487 81.9718 309.487 81.9787 309.487C82.6535 310.629 84.2125 312.197 85.1434 309.468C86.0906 310.72 88.0853 312.474 88.4865 309.468C89.6009 310.557 91.7628 312.082 91.4953 309.468C92.9997 310.448 95.808 311.722 95.0056 308.978C96.4543 309.903 99.0508 311.036 97.8473 308.161C97.7603 307.953 97.6292 307.746 97.459 307.541C97.4873 307.529 97.5013 307.523 97.5013 307.523Z" fill="#73CB8D"/>
<path d="M386.85 359.621H374.399C373.69 360.44 372.008 362.209 370.959 362.734C369.648 363.389 372.761 364.372 373.58 363.389C373.198 364.044 372.728 365.322 373.908 365.191C375.382 365.027 377.348 364.208 379.314 364.7C381.28 365.191 385.704 365.682 386.85 365.191C387.466 364.927 387.09 364.191 386.635 363.389C389.216 364.306 390.148 363.334 390.291 362.734C388.98 362.209 387.451 360.44 386.85 359.621Z" fill="#9B9785"/>
<path d="M386.85 333.408H374.399V359.621H386.85V333.408Z" fill="#9B9785"/>
<path fill-rule="evenodd" clip-rule="evenodd" d="M403.06 335.374L380.273 307.851L357.832 334.956C357.799 334.986 357.767 335.016 357.736 335.047C356.629 336.136 356.066 337.809 357.088 337.155C358.11 336.502 358.621 336.012 358.621 336.012C358.621 336.012 356.577 339.867 360.665 336.338C360.836 337.591 361.943 339.443 365.009 336.829C364.924 338.186 365.77 340.116 369.824 337.022C369.837 337.023 369.85 337.024 369.863 337.024C369.877 338.33 370.708 340.17 373.951 337.319C374.886 338.46 377.262 340.056 379.303 337.338C379.313 337.338 379.323 337.338 379.334 337.338C380.366 338.48 382.748 340.048 384.171 337.319C385.619 338.571 388.668 340.325 389.281 337.319C390.985 338.408 394.289 339.933 393.88 337.319C396.18 338.299 400.472 339.573 399.246 336.829C401.46 337.754 405.429 338.887 403.589 336.012C403.456 335.804 403.256 335.597 402.996 335.392C403.039 335.38 403.06 335.374 403.06 335.374Z" fill="#61B379"/>
<path fill-rule="evenodd" clip-rule="evenodd" d="M400.85 331.115L379.948 303.591L359.364 330.696C359.334 330.726 359.304 330.757 359.276 330.787C358.26 331.876 357.745 333.549 358.682 332.896C359.619 332.242 360.088 331.752 360.088 331.752C360.088 331.752 358.213 335.608 361.963 332.079C362.119 333.331 363.135 335.183 365.947 332.569C365.869 333.926 366.645 335.857 370.364 332.762C370.376 332.763 370.388 332.764 370.4 332.765C370.412 334.07 371.174 335.911 374.149 333.059C375.007 334.2 377.186 335.796 379.058 333.078C379.067 333.078 379.077 333.078 379.087 333.078C380.033 334.221 382.219 335.789 383.524 333.059C384.852 334.312 387.648 336.065 388.211 333.059C389.773 334.148 392.804 335.673 392.429 333.059C394.538 334.039 398.476 335.314 397.351 332.569C399.382 333.495 403.022 334.628 401.335 331.752C401.213 331.544 401.029 331.338 400.79 331.132C400.83 331.121 400.85 331.115 400.85 331.115Z" fill="#73CB8D"/>
<path fill-rule="evenodd" clip-rule="evenodd" d="M398.681 322.546L380.608 292.451L362.809 322.089C362.783 322.122 362.758 322.155 362.733 322.188C361.855 323.379 361.409 325.209 362.22 324.494C363.03 323.78 363.436 323.244 363.436 323.244C363.436 323.244 361.815 327.46 365.057 323.601C365.192 324.97 366.07 326.995 368.502 324.137C368.434 325.621 369.105 327.732 372.321 324.348C372.331 324.349 372.342 324.35 372.352 324.351C372.363 325.778 373.022 327.791 375.594 324.673C376.335 325.92 378.22 327.666 379.838 324.693C379.846 324.693 379.855 324.693 379.863 324.694C380.681 325.943 382.571 327.657 383.7 324.673C384.848 326.042 387.266 327.96 387.752 324.673C389.103 325.864 391.724 327.531 391.4 324.673C393.224 325.745 396.628 327.138 395.655 324.137C397.411 325.149 400.559 326.388 399.1 323.244C398.995 323.016 398.836 322.79 398.629 322.566C398.664 322.553 398.681 322.546 398.681 322.546Z" fill="#61B379"/>
<path fill-rule="evenodd" clip-rule="evenodd" d="M398.681 319.598L380.608 289.502L362.81 319.139C362.784 319.172 362.758 319.206 362.733 319.239C361.855 320.43 361.409 322.259 362.22 321.545C363.03 320.83 363.436 320.294 363.436 320.294C363.436 320.294 361.815 324.51 365.057 320.652C365.192 322.021 366.07 324.046 368.502 321.188C368.434 322.672 369.105 324.783 372.321 321.399C372.331 321.4 372.342 321.401 372.352 321.402C372.363 322.829 373.022 324.842 375.594 321.724C376.335 322.971 378.219 324.717 379.838 321.745C379.846 321.745 379.855 321.745 379.863 321.745C380.681 322.994 382.571 324.708 383.7 321.724C384.848 323.093 387.266 325.011 387.752 321.724C389.103 322.915 391.724 324.582 391.4 321.724C393.224 322.795 396.628 324.189 395.655 321.188C397.411 322.2 400.559 323.439 399.1 320.294C398.995 320.067 398.836 319.841 398.629 319.617C398.664 319.604 398.681 319.598 398.681 319.598Z" fill="#73CB8D"/>
<path fill-rule="evenodd" clip-rule="evenodd" d="M395.498 310.145L380.59 282.621L365.909 309.725C365.887 309.755 365.866 309.786 365.845 309.817C365.121 310.906 364.753 312.579 365.422 311.925C366.09 311.272 366.425 310.782 366.425 310.782C366.425 310.782 365.087 314.637 367.762 311.108C367.873 312.361 368.598 314.213 370.604 311.599C370.548 312.956 371.102 314.886 373.754 311.792C373.762 311.793 373.771 311.794 373.78 311.795C373.789 313.1 374.332 314.94 376.454 312.089C377.066 313.23 378.62 314.826 379.955 312.108C379.962 312.108 379.969 312.108 379.976 312.108C380.651 313.25 382.21 314.818 383.14 312.089C384.088 313.341 386.082 315.095 386.484 312.089C387.598 313.178 389.76 314.703 389.492 312.089C390.997 313.069 393.805 314.343 393.003 311.599C394.451 312.524 397.048 313.657 395.844 310.782C395.757 310.574 395.626 310.367 395.456 310.162C395.484 310.151 395.498 310.145 395.498 310.145Z" fill="#61B379"/>
<path fill-rule="evenodd" clip-rule="evenodd" d="M395.543 307.523L380.634 280L365.953 307.105C365.931 307.135 365.91 307.165 365.89 307.196C365.165 308.285 364.798 309.958 365.466 309.304C366.135 308.651 366.469 308.161 366.469 308.161C366.469 308.161 365.132 312.016 367.806 308.487C367.918 309.74 368.642 311.592 370.648 308.978C370.593 310.335 371.146 312.265 373.799 309.171C373.807 309.172 373.816 309.173 373.824 309.173C373.833 310.479 374.377 312.319 376.499 309.468C377.11 310.609 378.664 312.205 380 309.487C380.006 309.487 380.013 309.487 380.02 309.487C380.695 310.629 382.254 312.197 383.185 309.468C384.132 310.72 386.127 312.474 386.528 309.468C387.642 310.557 389.804 312.082 389.537 309.468C391.041 310.448 393.849 311.722 393.047 308.978C394.496 309.903 397.092 311.036 395.889 308.161C395.802 307.953 395.671 307.746 395.5 307.541C395.529 307.529 395.543 307.523 395.543 307.523Z" fill="#73CB8D"/>
<path d="M237.83 359.621H225.379C224.669 360.44 222.987 362.209 221.939 362.734C220.628 363.389 223.741 364.372 224.56 363.389C224.178 364.044 223.708 365.322 224.887 365.191C226.362 365.027 228.328 364.208 230.294 364.7C232.26 365.191 236.683 365.682 237.83 365.191C238.445 364.927 238.07 364.191 237.615 363.389C240.195 364.306 241.127 363.334 241.27 362.734C239.96 362.209 238.431 360.44 237.83 359.621Z" fill="#9B9785"/>
<path d="M237.83 333.408H225.379V359.621H237.83V333.408Z" fill="#9B9785"/>
<path fill-rule="evenodd" clip-rule="evenodd" d="M254.04 335.374L231.252 307.851L208.811 334.956C208.778 334.986 208.746 335.016 208.715 335.047C207.608 336.136 207.046 337.809 208.068 337.155C209.09 336.502 209.601 336.012 209.601 336.012C209.601 336.012 207.557 339.867 211.645 336.338C211.815 337.591 212.922 339.443 215.988 336.829C215.903 338.186 216.749 340.116 220.804 337.022C220.817 337.023 220.83 337.024 220.843 337.024C220.856 338.33 221.687 340.17 224.931 337.319C225.865 338.46 228.241 340.056 230.282 337.338C230.292 337.338 230.303 337.338 230.313 337.338C231.345 338.48 233.728 340.048 235.151 337.319C236.599 338.571 239.648 340.325 240.261 337.319C241.964 338.408 245.269 339.933 244.86 337.319C247.159 338.299 251.452 339.573 250.225 336.829C252.44 337.754 256.408 338.887 254.569 336.012C254.436 335.804 254.235 335.597 253.975 335.392C254.018 335.38 254.04 335.374 254.04 335.374Z" fill="#61B379"/>
<path fill-rule="evenodd" clip-rule="evenodd" d="M251.829 331.115L230.927 303.591L210.344 330.696C210.313 330.726 210.284 330.757 210.255 330.787C209.24 331.876 208.724 333.549 209.661 332.896C210.599 332.242 211.068 331.752 211.068 331.752C211.068 331.752 209.193 335.608 212.943 332.079C213.099 333.331 214.114 335.183 216.927 332.569C216.849 333.926 217.625 335.857 221.343 332.762C221.355 332.763 221.367 332.764 221.379 332.765C221.392 334.07 222.154 335.911 225.129 333.059C225.986 334.2 228.165 335.796 230.037 333.078C230.047 333.078 230.057 333.078 230.066 333.078C231.012 334.221 233.198 335.789 234.503 333.059C235.831 334.312 238.628 336.065 239.19 333.059C240.753 334.148 243.784 335.673 243.409 333.059C245.518 334.039 249.455 335.314 248.33 332.569C250.361 333.495 254.001 334.628 252.314 331.752C252.192 331.544 252.008 331.338 251.77 331.132C251.809 331.121 251.829 331.115 251.829 331.115Z" fill="#73CB8D"/>
<path fill-rule="evenodd" clip-rule="evenodd" d="M249.66 322.546L231.587 292.451L213.789 322.089C213.763 322.122 213.737 322.155 213.713 322.188C212.835 323.379 212.389 325.209 213.199 324.494C214.01 323.78 214.415 323.244 214.415 323.244C214.415 323.244 212.794 327.46 216.036 323.601C216.171 324.97 217.05 326.995 219.481 324.137C219.414 325.621 220.085 327.732 223.301 324.348C223.311 324.349 223.321 324.35 223.331 324.351C223.342 325.778 224.001 327.791 226.574 324.673C227.315 325.92 229.199 327.666 230.818 324.693C230.826 324.693 230.834 324.693 230.842 324.694C231.661 325.943 233.551 327.657 234.679 324.673C235.827 326.042 238.245 327.96 238.732 324.673C240.083 325.864 242.703 327.531 242.379 324.673C244.203 325.745 247.607 327.138 246.635 324.137C248.391 325.149 251.538 326.388 250.079 323.244C249.974 323.016 249.815 322.79 249.609 322.566C249.643 322.553 249.66 322.546 249.66 322.546Z" fill="#61B379"/>
<path fill-rule="evenodd" clip-rule="evenodd" d="M249.66 319.598L231.587 289.502L213.79 319.139C213.763 319.172 213.738 319.206 213.713 319.239C212.835 320.43 212.389 322.259 213.199 321.545C214.01 320.83 214.415 320.294 214.415 320.294C214.415 320.294 212.794 324.51 216.036 320.652C216.171 322.021 217.05 324.046 219.481 321.188C219.414 322.672 220.085 324.783 223.3 321.399C223.311 321.4 223.321 321.401 223.331 321.402C223.342 322.829 224.001 324.842 226.574 321.724C227.315 322.971 229.199 324.717 230.818 321.745C230.826 321.745 230.834 321.745 230.843 321.745C231.661 322.994 233.551 324.708 234.679 321.724C235.827 323.093 238.245 325.011 238.732 321.724C240.083 322.915 242.703 324.582 242.379 321.724C244.203 322.795 247.607 324.189 246.635 321.188C248.391 322.2 251.538 323.439 250.079 320.294C249.974 320.067 249.815 319.841 249.609 319.617C249.643 319.604 249.66 319.598 249.66 319.598Z" fill="#73CB8D"/>
<path fill-rule="evenodd" clip-rule="evenodd" d="M246.478 310.145L231.569 282.621L216.888 309.725C216.867 309.755 216.845 309.786 216.825 309.817C216.101 310.906 215.733 312.579 216.401 311.925C217.07 311.272 217.404 310.782 217.404 310.782C217.404 310.782 216.067 314.637 218.741 311.108C218.853 312.361 219.577 314.213 221.583 311.599C221.528 312.956 222.081 314.886 224.733 311.792C224.742 311.793 224.751 311.794 224.759 311.795C224.768 313.1 225.312 314.94 227.434 312.089C228.045 313.23 229.599 314.826 230.934 312.108C230.941 312.108 230.948 312.108 230.955 312.108C231.63 313.25 233.189 314.818 234.12 312.089C235.067 313.341 237.062 315.095 237.463 312.089C238.577 313.178 240.739 314.703 240.472 312.089C241.976 313.069 244.785 314.343 243.982 311.599C245.431 312.524 248.027 313.657 246.824 310.782C246.737 310.574 246.606 310.367 246.436 310.162C246.464 310.151 246.478 310.145 246.478 310.145Z" fill="#61B379"/>
<path fill-rule="evenodd" clip-rule="evenodd" d="M246.522 307.523L231.614 280L216.932 307.105C216.911 307.135 216.89 307.165 216.869 307.196C216.145 308.285 215.777 309.958 216.446 309.304C217.114 308.651 217.449 308.161 217.449 308.161C217.449 308.161 216.111 312.016 218.786 308.487C218.897 309.74 219.622 311.592 221.628 308.978C221.572 310.335 222.126 312.265 224.778 309.171C224.787 309.172 224.795 309.173 224.804 309.173C224.813 310.479 225.356 312.319 227.478 309.468C228.09 310.609 229.644 312.205 230.979 309.487C230.986 309.487 230.993 309.487 231 309.487C231.675 310.629 233.234 312.197 234.164 309.468C235.112 310.72 237.106 312.474 237.508 309.468C238.622 310.557 240.784 312.082 240.516 309.468C242.021 310.448 244.829 311.722 244.027 308.978C245.475 309.903 248.072 311.036 246.868 308.161C246.781 307.953 246.65 307.746 246.48 307.541C246.508 307.529 246.522 307.523 246.522 307.523Z" fill="#73CB8D"/>
<path fill-rule="evenodd" clip-rule="evenodd" d="M101.723 186.564C100.41 184.138 98.4874 182.455 96.3438 181.616C96.3519 178.561 95.6423 175.469 94.1469 172.705C92.9631 170.518 91.415 168.773 89.6564 167.511C95.0421 162.295 96.3907 153.017 92.5465 145.913C89.2938 139.902 83.2907 137.235 77.7301 138.74C72.4823 135.082 65.7261 134.967 60.2457 139.12C57.364 141.303 55.2402 144.359 53.9629 147.809C51.0557 147.545 48.0545 148.356 45.4098 150.36C38.9411 155.261 37.0549 165.439 41.1968 173.094C41.907 174.406 42.7483 175.559 43.6875 176.544C42.2072 181.967 42.7118 188.101 45.5113 193.275C49.6644 200.95 57.5541 204.082 64.5649 201.473C64.7769 203.53 65.3729 205.564 66.3805 207.426C69.9701 214.06 77.4247 215.995 83.0308 211.747C83.2641 211.57 83.4905 211.386 83.71 211.193L85.3292 211.669C85.3292 211.669 93.8154 213.356 95.0802 204.921C96.3093 204.639 97.5148 204.082 98.6333 203.235C103.377 199.641 104.76 192.177 101.723 186.564Z" fill="#7D7C7C" fill-opacity="0.5"/>
<path fill-rule="evenodd" clip-rule="evenodd" d="M303.723 198.564C302.41 196.138 300.487 194.455 298.344 193.616C298.352 190.561 297.642 187.469 296.147 184.705C294.963 182.518 293.415 180.773 291.656 179.511C297.042 174.295 298.391 165.017 294.547 157.913C291.294 151.902 285.291 149.235 279.73 150.74C274.482 147.082 267.726 146.967 262.246 151.12C259.364 153.303 257.24 156.359 255.963 159.809C253.056 159.545 250.054 160.356 247.41 162.36C240.941 167.261 239.055 177.439 243.197 185.094C243.907 186.406 244.748 187.559 245.688 188.544C244.207 193.967 244.712 200.101 247.511 205.275C251.664 212.95 259.554 216.082 266.565 213.473C266.777 215.53 267.373 217.564 268.38 219.426C271.97 226.06 279.425 227.995 285.031 223.747C285.264 223.57 285.491 223.386 285.71 223.193L287.329 223.669C287.329 223.669 295.815 225.356 297.08 216.921C298.309 216.639 299.515 216.082 300.633 215.235C305.377 211.641 306.76 204.177 303.723 198.564Z" fill="#7D7C7C" fill-opacity="0.5"/>
<path fill-rule="evenodd" clip-rule="evenodd" d="M381.696 147.308C379.819 143.839 377.069 141.432 374.004 140.232C374.015 135.864 373.001 131.442 370.862 127.49C369.169 124.361 366.955 121.866 364.441 120.062C372.142 112.603 374.071 99.3349 368.574 89.1754C363.922 80.5792 355.337 76.7653 347.386 78.9187C339.881 73.6868 330.219 73.5232 322.382 79.4611C318.261 82.5834 315.224 86.9537 313.398 91.8872C309.24 91.5097 304.948 92.6701 301.166 95.5356C291.916 102.544 289.219 117.099 295.142 128.045C296.157 129.922 297.36 131.571 298.703 132.98C296.587 140.734 297.308 149.506 301.312 156.905C307.251 167.88 318.533 172.359 328.559 168.628C328.862 171.57 329.714 174.479 331.155 177.142C336.288 186.628 346.949 189.395 354.966 183.321C355.299 183.068 355.623 182.804 355.937 182.529L358.252 183.209C358.252 183.209 370.388 185.622 372.197 173.56C373.954 173.156 375.678 172.36 377.278 171.148C384.062 166.009 386.04 155.335 381.696 147.308Z" fill="#7D7C7C" fill-opacity="0.5"/>
</g>
<defs>
<linearGradient id="paint0_linear_806_5624" x1="195" y1="344" x2="195" y2="844" gradientUnits="userSpaceOnUse">
<stop stop-color="#A6D9A5"/>
<stop offset="1" stop-color="#ABB7A4"/>
</linearGradient>
<clipPath id="clip0_806_5624">
<rect width="390" height="844" fill="white"/>
</clipPath>
</defs>
</svg>
