<svg width="390" height="844" viewBox="0 0 390 844" fill="none" xmlns="http://www.w3.org/2000/svg">
<g clip-path="url(#clip0_806_5018)">
<rect width="390" height="844" fill="#EACB78"/>
<rect y="514" width="390" height="330" fill="#874F34"/>
<g filter="url(#filter0_d_806_5018)">
<path d="M-11 512H300L302.5 617.5H-113L-11 512Z" fill="#CAA467"/>
</g>
<g filter="url(#filter1_f_806_5018)">
<path d="M0 426H262V508L266 514L262 554H0V426Z" fill="black" fill-opacity="0.25"/>
</g>
<rect x="329.5" y="373.5" width="24" height="39" fill="#F4E1AD" stroke="#CFAD53"/>
<path d="M342 385C348.683 391.362 368.439 404.868 394 408" stroke="#544738" stroke-width="5"/>
<circle cx="341.5" cy="384.5" r="6.5" fill="#544738"/>
<circle cx="341.5" cy="401.5" r="6.5" fill="#544738"/>
<path d="M340 404C327.667 420 293.7 452.6 256.5 455" stroke="#544738" stroke-width="5"/>
<rect x="-25" y="98" width="428" height="246" fill="url(#paint0_linear_806_5018)"/>
<g filter="url(#filter2_d_806_5018)">
<ellipse cx="368" rx="83" ry="45" fill="white"/>
</g>
<path fill-rule="evenodd" clip-rule="evenodd" d="M314.963 655H407V682.761H314.963V655ZM-49 668.881H51L43.0367 696.642H98L93.2385 724.403H1.20184V696.642H-49V668.881ZM52.5 782.239H-44.8165V810H47.2202L52.5 782.239ZM372.477 737.127H250V764.888H376.55L372.477 737.127Z" fill="#8C573D"/>
<g filter="url(#filter3_f_806_5018)">
<ellipse cx="49.5" cy="408" rx="14.5" ry="2" fill="black" fill-opacity="0.5"/>
</g>
<path d="M3.95538 306.882H0V344H390V277.288H381.298V216.594H376.5V213.083H361.521V216.594H356.775V281.802H350.446V267.256H339.371V277.288H329.087V275.281H325.923V267.256H321.968V275.281H318.803V291.834L315.639 289.827V258.227H295.071V187H269.757V279.294H261.846V289.827H254.726V275.281H229.412V265.751L223.083 256.22L215.963 265.751H211.217V308.888H208.053V247.693H187.485V281.802H175.619V284.812H169.29V306.882H158.215H153.469V320.927H143.976V277.288H126.572L124.199 206.562H118.661V202.048H105.213V206.562H98.8844V308.888H89.3915V265.751H85.4361V262.741H69.6146V265.751H66.4503V315.911H62.4949V284.812L53.7931 275.281L44.3002 284.812H40.3448V327.949H32.4341V306.882H18.9858V299.859H3.95538V306.882Z" fill="#1C2031"/>
<path d="M152.5 521L164 519V534H147L152.5 521Z" fill="#5B2518"/>
<rect x="155" y="439" width="86" height="95" fill="#78301A"/>
<rect x="-49" y="439" width="86" height="95" fill="#78301A"/>
<path d="M40 462.557L61 435V506.443L40 534V462.557Z" fill="#5B3729"/>
<rect x="-7" y="432" width="245" height="34" fill="#78301A"/>
<path d="M39.5001 534.485L60.7783 506.79L64.5002 506.754L64.5002 516L44.958 544L44.958 534.758L39.5001 534.485Z" fill="#5B2518"/>
<path d="M253 534L259.535 512L263 512L263 518.5L259.535 545L259.117 534L253 534Z" fill="#622715"/>
<path d="M-7 534H45V544H-7V534Z" fill="#5B2518"/>
<path d="M147 534H259.5V545H147V534Z" fill="#5B2518"/>
<path d="M256 423.5L260 419V514L256 534V423.5Z" fill="#5B3729"/>
<path fill-rule="evenodd" clip-rule="evenodd" d="M151 430H158V459H234V432H241V459V466V493V500V527V534H234H158H155H151V466H40V527V534H33H-46V527H33V500H-49V493H33V466H-4V459H33V430H40V459H151V430ZM158 493V466H234V493H158ZM158 527V500H234V527H158Z" fill="url(#paint1_angular_806_5018)"/>
<g filter="url(#filter4_d_806_5018)">
<path d="M-19 401L266 400V407.5L265 432H-19L-19 401Z" fill="#542115"/>
</g>
<path d="M-12 400H265.658L264 426H-12V400Z" fill="#944731"/>
<g filter="url(#filter5_d_806_5018)">
<rect x="238" y="432" width="18" height="102" fill="#78301A"/>
</g>
<g filter="url(#filter6_d_806_5018)">
<rect x="81" y="444" width="24" height="5" fill="#542115"/>
</g>
<g filter="url(#filter7_d_806_5018)">
<rect x="183" y="444" width="24" height="5" fill="#542115"/>
</g>
<g filter="url(#filter8_d_806_5018)">
<rect x="183" y="479" width="24" height="5" fill="#542115"/>
</g>
<g filter="url(#filter9_d_806_5018)">
<rect x="183" y="511" width="24" height="5" fill="#542115"/>
</g>
<g filter="url(#filter10_d_806_5018)">
<rect x="-12" y="444" width="24" height="5" fill="#542115"/>
</g>
<g filter="url(#filter11_d_806_5018)">
<rect x="-12" y="478" width="24" height="5" fill="#542115"/>
</g>
<g filter="url(#filter12_d_806_5018)">
<rect x="-12" y="511" width="24" height="5" fill="#542115"/>
</g>
<rect x="48.3335" y="340.635" width="4.66667" height="46.556" fill="#3A3A3A"/>
<ellipse cx="50.6665" cy="343.456" rx="5" ry="4.23237" fill="#7F7F7F"/>
<path d="M-1.66667 323H100.333L103 332.876H-7L-1.66667 323Z" fill="#D9D9D9"/>
<path d="M0.333333 342.046L-7 332.875H103L101.667 342.046H0.333333Z" fill="#7F7F7F"/>
<g filter="url(#filter13_d_806_5018)">
<path d="M3 332.875H97C97 335.603 94.7893 337.813 92.0622 337.813H7.93776C5.21071 337.813 3 335.603 3 332.875Z" fill="white"/>
</g>
<path d="M55 387H45.6667C45.6667 394.054 41 407.809 41 407.809H59.3333C59.3333 407.809 55.5556 393.936 55 387Z" fill="#3A3A3A"/>
</g>
<defs>
<filter id="filter0_d_806_5018" x="-113" y="512" width="419.5" height="111.5" filterUnits="userSpaceOnUse" color-interpolation-filters="sRGB">
<feFlood flood-opacity="0" result="BackgroundImageFix"/>
<feColorMatrix in="SourceAlpha" type="matrix" values="0 0 0 0 0 0 0 0 0 0 0 0 0 0 0 0 0 0 127 0" result="hardAlpha"/>
<feOffset dx="2" dy="4"/>
<feGaussianBlur stdDeviation="1"/>
<feComposite in2="hardAlpha" operator="out"/>
<feColorMatrix type="matrix" values="0 0 0 0 0 0 0 0 0 0 0 0 0 0 0 0 0 0 0.25 0"/>
<feBlend mode="normal" in2="BackgroundImageFix" result="effect1_dropShadow_806_5018"/>
<feBlend mode="normal" in="SourceGraphic" in2="effect1_dropShadow_806_5018" result="shape"/>
</filter>
<filter id="filter1_f_806_5018" x="-10" y="416" width="286" height="148" filterUnits="userSpaceOnUse" color-interpolation-filters="sRGB">
<feFlood flood-opacity="0" result="BackgroundImageFix"/>
<feBlend mode="normal" in="SourceGraphic" in2="BackgroundImageFix" result="shape"/>
<feGaussianBlur stdDeviation="5" result="effect1_foregroundBlur_806_5018"/>
</filter>
<filter id="filter2_d_806_5018" x="237" y="-86" width="262" height="186" filterUnits="userSpaceOnUse" color-interpolation-filters="sRGB">
<feFlood flood-opacity="0" result="BackgroundImageFix"/>
<feColorMatrix in="SourceAlpha" type="matrix" values="0 0 0 0 0 0 0 0 0 0 0 0 0 0 0 0 0 0 127 0" result="hardAlpha"/>
<feOffset dy="7"/>
<feGaussianBlur stdDeviation="24"/>
<feComposite in2="hardAlpha" operator="out"/>
<feColorMatrix type="matrix" values="0 0 0 0 1 0 0 0 0 1 0 0 0 0 1 0 0 0 0.5 0"/>
<feBlend mode="normal" in2="BackgroundImageFix" result="effect1_dropShadow_806_5018"/>
<feBlend mode="normal" in="SourceGraphic" in2="effect1_dropShadow_806_5018" result="shape"/>
</filter>
<filter id="filter3_f_806_5018" x="25" y="396" width="49" height="24" filterUnits="userSpaceOnUse" color-interpolation-filters="sRGB">
<feFlood flood-opacity="0" result="BackgroundImageFix"/>
<feBlend mode="normal" in="SourceGraphic" in2="BackgroundImageFix" result="shape"/>
<feGaussianBlur stdDeviation="5" result="effect1_foregroundBlur_806_5018"/>
</filter>
<filter id="filter4_d_806_5018" x="-22" y="399" width="291" height="38" filterUnits="userSpaceOnUse" color-interpolation-filters="sRGB">
<feFlood flood-opacity="0" result="BackgroundImageFix"/>
<feColorMatrix in="SourceAlpha" type="matrix" values="0 0 0 0 0 0 0 0 0 0 0 0 0 0 0 0 0 0 127 0" result="hardAlpha"/>
<feOffset dy="2"/>
<feGaussianBlur stdDeviation="1.5"/>
<feComposite in2="hardAlpha" operator="out"/>
<feColorMatrix type="matrix" values="0 0 0 0 0.166113 0 0 0 0 0.144492 0 0 0 0 0.144492 0 0 0 0.25 0"/>
<feBlend mode="normal" in2="BackgroundImageFix" result="effect1_dropShadow_806_5018"/>
<feBlend mode="normal" in="SourceGraphic" in2="effect1_dropShadow_806_5018" result="shape"/>
</filter>
<filter id="filter5_d_806_5018" x="226" y="422" width="38" height="122" filterUnits="userSpaceOnUse" color-interpolation-filters="sRGB">
<feFlood flood-opacity="0" result="BackgroundImageFix"/>
<feColorMatrix in="SourceAlpha" type="matrix" values="0 0 0 0 0 0 0 0 0 0 0 0 0 0 0 0 0 0 127 0" result="hardAlpha"/>
<feOffset dx="-2"/>
<feGaussianBlur stdDeviation="5"/>
<feComposite in2="hardAlpha" operator="out"/>
<feColorMatrix type="matrix" values="0 0 0 0 0 0 0 0 0 0 0 0 0 0 0 0 0 0 0.25 0"/>
<feBlend mode="normal" in2="BackgroundImageFix" result="effect1_dropShadow_806_5018"/>
<feBlend mode="normal" in="SourceGraphic" in2="effect1_dropShadow_806_5018" result="shape"/>
</filter>
<filter id="filter6_d_806_5018" x="81" y="443" width="25" height="6" filterUnits="userSpaceOnUse" color-interpolation-filters="sRGB">
<feFlood flood-opacity="0" result="BackgroundImageFix"/>
<feColorMatrix in="SourceAlpha" type="matrix" values="0 0 0 0 0 0 0 0 0 0 0 0 0 0 0 0 0 0 127 0" result="hardAlpha"/>
<feOffset dx="1" dy="-1"/>
<feComposite in2="hardAlpha" operator="out"/>
<feColorMatrix type="matrix" values="0 0 0 0 0.580392 0 0 0 0 0.278431 0 0 0 0 0.192157 0 0 0 1 0"/>
<feBlend mode="normal" in2="BackgroundImageFix" result="effect1_dropShadow_806_5018"/>
<feBlend mode="normal" in="SourceGraphic" in2="effect1_dropShadow_806_5018" result="shape"/>
</filter>
<filter id="filter7_d_806_5018" x="183" y="443" width="25" height="6" filterUnits="userSpaceOnUse" color-interpolation-filters="sRGB">
<feFlood flood-opacity="0" result="BackgroundImageFix"/>
<feColorMatrix in="SourceAlpha" type="matrix" values="0 0 0 0 0 0 0 0 0 0 0 0 0 0 0 0 0 0 127 0" result="hardAlpha"/>
<feOffset dx="1" dy="-1"/>
<feComposite in2="hardAlpha" operator="out"/>
<feColorMatrix type="matrix" values="0 0 0 0 0.580392 0 0 0 0 0.278431 0 0 0 0 0.192157 0 0 0 1 0"/>
<feBlend mode="normal" in2="BackgroundImageFix" result="effect1_dropShadow_806_5018"/>
<feBlend mode="normal" in="SourceGraphic" in2="effect1_dropShadow_806_5018" result="shape"/>
</filter>
<filter id="filter8_d_806_5018" x="183" y="478" width="25" height="6" filterUnits="userSpaceOnUse" color-interpolation-filters="sRGB">
<feFlood flood-opacity="0" result="BackgroundImageFix"/>
<feColorMatrix in="SourceAlpha" type="matrix" values="0 0 0 0 0 0 0 0 0 0 0 0 0 0 0 0 0 0 127 0" result="hardAlpha"/>
<feOffset dx="1" dy="-1"/>
<feComposite in2="hardAlpha" operator="out"/>
<feColorMatrix type="matrix" values="0 0 0 0 0.580392 0 0 0 0 0.278431 0 0 0 0 0.192157 0 0 0 1 0"/>
<feBlend mode="normal" in2="BackgroundImageFix" result="effect1_dropShadow_806_5018"/>
<feBlend mode="normal" in="SourceGraphic" in2="effect1_dropShadow_806_5018" result="shape"/>
</filter>
<filter id="filter9_d_806_5018" x="183" y="510" width="25" height="6" filterUnits="userSpaceOnUse" color-interpolation-filters="sRGB">
<feFlood flood-opacity="0" result="BackgroundImageFix"/>
<feColorMatrix in="SourceAlpha" type="matrix" values="0 0 0 0 0 0 0 0 0 0 0 0 0 0 0 0 0 0 127 0" result="hardAlpha"/>
<feOffset dx="1" dy="-1"/>
<feComposite in2="hardAlpha" operator="out"/>
<feColorMatrix type="matrix" values="0 0 0 0 0.580392 0 0 0 0 0.278431 0 0 0 0 0.192157 0 0 0 1 0"/>
<feBlend mode="normal" in2="BackgroundImageFix" result="effect1_dropShadow_806_5018"/>
<feBlend mode="normal" in="SourceGraphic" in2="effect1_dropShadow_806_5018" result="shape"/>
</filter>
<filter id="filter10_d_806_5018" x="-12" y="443" width="25" height="6" filterUnits="userSpaceOnUse" color-interpolation-filters="sRGB">
<feFlood flood-opacity="0" result="BackgroundImageFix"/>
<feColorMatrix in="SourceAlpha" type="matrix" values="0 0 0 0 0 0 0 0 0 0 0 0 0 0 0 0 0 0 127 0" result="hardAlpha"/>
<feOffset dx="1" dy="-1"/>
<feComposite in2="hardAlpha" operator="out"/>
<feColorMatrix type="matrix" values="0 0 0 0 0.580392 0 0 0 0 0.278431 0 0 0 0 0.192157 0 0 0 1 0"/>
<feBlend mode="normal" in2="BackgroundImageFix" result="effect1_dropShadow_806_5018"/>
<feBlend mode="normal" in="SourceGraphic" in2="effect1_dropShadow_806_5018" result="shape"/>
</filter>
<filter id="filter11_d_806_5018" x="-12" y="477" width="25" height="6" filterUnits="userSpaceOnUse" color-interpolation-filters="sRGB">
<feFlood flood-opacity="0" result="BackgroundImageFix"/>
<feColorMatrix in="SourceAlpha" type="matrix" values="0 0 0 0 0 0 0 0 0 0 0 0 0 0 0 0 0 0 127 0" result="hardAlpha"/>
<feOffset dx="1" dy="-1"/>
<feComposite in2="hardAlpha" operator="out"/>
<feColorMatrix type="matrix" values="0 0 0 0 0.580392 0 0 0 0 0.278431 0 0 0 0 0.192157 0 0 0 1 0"/>
<feBlend mode="normal" in2="BackgroundImageFix" result="effect1_dropShadow_806_5018"/>
<feBlend mode="normal" in="SourceGraphic" in2="effect1_dropShadow_806_5018" result="shape"/>
</filter>
<filter id="filter12_d_806_5018" x="-12" y="510" width="25" height="6" filterUnits="userSpaceOnUse" color-interpolation-filters="sRGB">
<feFlood flood-opacity="0" result="BackgroundImageFix"/>
<feColorMatrix in="SourceAlpha" type="matrix" values="0 0 0 0 0 0 0 0 0 0 0 0 0 0 0 0 0 0 127 0" result="hardAlpha"/>
<feOffset dx="1" dy="-1"/>
<feComposite in2="hardAlpha" operator="out"/>
<feColorMatrix type="matrix" values="0 0 0 0 0.580392 0 0 0 0 0.278431 0 0 0 0 0.192157 0 0 0 1 0"/>
<feBlend mode="normal" in2="BackgroundImageFix" result="effect1_dropShadow_806_5018"/>
<feBlend mode="normal" in="SourceGraphic" in2="effect1_dropShadow_806_5018" result="shape"/>
</filter>
<filter id="filter13_d_806_5018" x="-1" y="332.875" width="102" height="12.9377" filterUnits="userSpaceOnUse" color-interpolation-filters="sRGB">
<feFlood flood-opacity="0" result="BackgroundImageFix"/>
<feColorMatrix in="SourceAlpha" type="matrix" values="0 0 0 0 0 0 0 0 0 0 0 0 0 0 0 0 0 0 127 0" result="hardAlpha"/>
<feOffset dy="4"/>
<feGaussianBlur stdDeviation="2"/>
<feComposite in2="hardAlpha" operator="out"/>
<feColorMatrix type="matrix" values="0 0 0 0 1 0 0 0 0 1 0 0 0 0 1 0 0 0 0.5 0"/>
<feBlend mode="normal" in2="BackgroundImageFix" result="effect1_dropShadow_806_5018"/>
<feBlend mode="normal" in="SourceGraphic" in2="effect1_dropShadow_806_5018" result="shape"/>
</filter>
<linearGradient id="paint0_linear_806_5018" x1="189" y1="98" x2="189" y2="344" gradientUnits="userSpaceOnUse">
<stop stop-color="#192035"/>
<stop offset="0.185" stop-color="#283455"/>
<stop offset="0.575" stop-color="#4A5E9B"/>
</linearGradient>
<radialGradient id="paint1_angular_806_5018" cx="0" cy="0" r="1" gradientUnits="userSpaceOnUse" gradientTransform="translate(40.7619 440.478) rotate(89.2357) scale(67.8493 67.0149)">
<stop stop-color="#441910"/>
<stop offset="1" stop-color="#572316"/>
</radialGradient>
<clipPath id="clip0_806_5018">
<rect width="390" height="844" fill="white"/>
</clipPath>
</defs>
</svg>
