<svg width="390" height="844" viewBox="0 0 390 844" fill="none" xmlns="http://www.w3.org/2000/svg">
<g clip-path="url(#clip0_806_5987)">
<rect width="390" height="844" fill="#C7EBF7"/>
<rect y="520" width="390" height="330" fill="#B3CDA3"/>
<path d="M0 6.10493e-05L73 0V617.389L0 725V6.10493e-05Z" fill="#D4CCBD"/>
<path d="M390 6.10493e-05L317 0V617.389L390 725V6.10493e-05Z" fill="#D4CCBD"/>
<g filter="url(#filter0_d_806_5987)">
<path d="M95 598.5C95 598.615 94.9972 598.729 94.9917 598.843C94.7314 604.227 88.3506 609.13 78 612.858C65.8255 617.242 48.159 620 28.5 620C-8.22694 620 -38 610.374 -38 598.5C-38 586.626 -8.22694 577 28.5 577C65.2269 577 95 586.626 95 598.5Z" fill="#596C76"/>
<path d="M94.9917 598.843C94.7314 604.227 88.3506 609.13 78 612.858C65.8255 617.242 48.159 620 28.5 620C-8.22694 620 -38 610.374 -38 598.5V770.5C-38 770.5 -22.2986 795 28.5 795C79.2986 795 95 770.5 95 770.5L94.9917 598.843Z" fill="#B2C8DD"/>
<path fill-rule="evenodd" clip-rule="evenodd" d="M88.209 603.277C88.7745 602.827 89.1884 602.286 89.4245 601.658C90.9101 597.7 84.7869 591.742 75.7479 588.348C66.7089 584.955 58.1771 585.412 56.6915 589.369C56.5198 589.826 56.4497 590.31 56.4741 590.814L56.2525 590.727L50.9121 626.332C53.4061 629.429 60.5092 634.945 68.9695 632.243L88.4188 603.36L88.209 603.277Z" fill="white" fill-opacity="0.5"/>
<ellipse cx="73.0579" cy="595.513" rx="17.4818" ry="7.65334" transform="rotate(20.5772 73.0579 595.513)" fill="white" fill-opacity="0.5"/>
<path d="M10.0354 593.05C9.24359 590.406 7.36318 584.043 7.36318 584.043C10.3485 581.381 6.50197 582.081 4.24695 582.803C1.99192 583.525 -1.89497 584.931 2.17845 585.988C2.17845 585.988 4.65068 593.522 4.97258 594.885C5.76058 598.222 6.92306 603.318 6.64344 605.516C6.36382 607.713 3.26788 611.144 3.8475 613.977L11.526 641.297C11.526 641.297 15.1868 645.401 20.5823 643.939C25.9779 642.477 28.7111 638.03 28.7111 638.03L20.4829 608.52C19.1053 605.719 16.1162 604.375 14.5905 602.91C13.0648 601.445 10.8271 595.693 10.0354 593.05Z" fill="#88BF7E"/>
<path d="M47.8193 604.693C51.5368 602.785 63.5646 623.614 59.9728 626.712C56.3809 629.811 50.4922 632.223 44.0737 636.093C37.6551 639.963 36.3303 638.667 34.4011 640.502C33.1678 641.676 30.5491 642.97 29.3281 643.628C27.4627 644.634 24.5951 642.039 23.2451 641.284C19.319 639.089 15.453 633.329 15.1661 628.823C15.0146 626.444 14.8929 623.89 16.4859 622.034C19.6467 621.937 22.3751 618.057 25.4875 616.38C28.5999 614.702 32.9975 614.756 34.873 612.928C37.1553 610.704 44.1017 606.6 47.8193 604.693Z" fill="#6E74A0"/>
<ellipse cx="53.2658" cy="616.637" rx="2.56542" ry="10.4497" transform="rotate(-27.5942 53.2658 616.637)" fill="#BABABA"/>
<path d="M94.9917 598.843C94.7314 604.227 88.3506 609.13 78 612.858C65.8255 617.242 48.159 620 28.5 620C-8.22694 620 -38 610.374 -38 598.5V770.5C-38 770.5 -22.2986 795 28.5 795C79.2986 795 95 770.5 95 770.5L94.9917 598.843Z" fill="#B2C8DD"/>
<path fill-rule="evenodd" clip-rule="evenodd" d="M95 598.5C95 598.615 94.9972 598.729 94.9917 598.843L95 598.5Z" fill="#596C76"/>
<path d="M17 637V783" stroke="#C4D5E4" stroke-width="5" stroke-linecap="round"/>
<path d="M47 634V780" stroke="#C4D5E4" stroke-width="5" stroke-linecap="round"/>
<path d="M78 624V770" stroke="#C4D5E4" stroke-width="5" stroke-linecap="round"/>
</g>
<g filter="url(#filter1_d_806_5987)">
<path d="M295 598.5C295 598.615 295.003 598.729 295.008 598.843C295.269 604.227 301.649 609.13 312 612.858C324.174 617.242 341.841 620 361.5 620C398.227 620 428 610.374 428 598.5C428 586.626 398.227 577 361.5 577C324.773 577 295 586.626 295 598.5Z" fill="#596C76"/>
<path d="M295.008 598.843C295.269 604.227 301.649 609.13 312 612.858C324.174 617.242 341.841 620 361.5 620C398.227 620 428 610.374 428 598.5V770.5C428 770.5 412.299 795 361.5 795C310.701 795 295 770.5 295 770.5L295.008 598.843Z" fill="#B2C8DD"/>
<path d="M344.027 597.645C343.286 594.987 341.483 588.602 341.483 588.602C337.537 587.943 341.164 586.483 343.456 585.891C345.749 585.298 349.787 584.414 346.905 587.481C346.905 587.481 348.833 595.172 349.288 596.497C350.402 599.74 352.137 604.671 353.546 606.38C354.955 608.089 359.404 609.34 360.425 612.045L368.504 639.249C368.504 639.249 367.598 644.674 362.254 646.315C356.91 647.957 352.226 645.653 352.226 645.653L343.443 616.304C343.114 613.2 344.925 610.469 345.434 608.416C345.943 606.362 344.767 600.304 344.027 597.645Z" fill="#5D415F"/>
<path fill-rule="evenodd" clip-rule="evenodd" d="M387.497 589C387.412 588.651 387.147 588.375 386.802 588.275L383.517 587.328C382.986 587.175 382.68 586.62 382.833 586.09L383.11 585.129C383.263 584.598 382.957 584.044 382.426 583.891L378.311 582.704C377.781 582.551 377.227 582.857 377.073 583.388L376.796 584.349C376.643 584.879 376.089 585.185 375.558 585.032L372.544 584.163C372.199 584.064 371.828 584.157 371.57 584.407L366.203 589.62L389.264 596.27L387.497 589ZM363.017 600.669L363.846 604.081C363.923 604.398 363.84 604.732 363.625 604.977L361.016 607.948C360.919 608.058 360.848 608.189 360.807 608.33L359.428 613.113L350.408 644.387C350.255 644.918 350.561 645.472 351.092 645.625L372.23 651.722C372.761 651.875 373.315 651.569 373.468 651.038L381.781 622.213L383.867 614.981C383.908 614.84 383.917 614.691 383.894 614.546L383.267 610.642C383.216 610.32 383.324 609.993 383.558 609.766L386.077 607.32L363.017 600.669Z" fill="#C5C5C5" fill-opacity="0.8"/>
<path d="M389.264 596.27L366.203 589.62L363.017 600.669L386.077 607.32L389.264 596.27Z" fill="#6E8AC2"/>
<path d="M295.008 598.843C295.269 604.227 301.649 609.13 312 612.858C324.174 617.242 341.841 620 361.5 620C398.227 620 428 610.374 428 598.5V770.5C428 770.5 412.299 795 361.5 795C310.701 795 295 770.5 295 770.5L295.008 598.843Z" fill="#B2C8DD"/>
<path fill-rule="evenodd" clip-rule="evenodd" d="M295 598.5C295 598.615 295.003 598.729 295.008 598.843L295 598.5Z" fill="#596C76"/>
<path d="M373 637V783" stroke="#C4D5E4" stroke-width="5" stroke-linecap="round"/>
<path d="M343 634V780" stroke="#C4D5E4" stroke-width="5" stroke-linecap="round"/>
<path d="M312 624V770" stroke="#C4D5E4" stroke-width="5" stroke-linecap="round"/>
</g>
<path d="M294.036 603.4C309.372 589.981 319.196 604.583 322.627 614.624C322.843 615.258 322.361 615.899 321.692 615.859C318.92 615.693 316.497 615.048 314.922 614.479C314.25 614.236 313.479 614.679 313.406 615.39C312.745 621.837 310.009 638.611 303.036 665.4C295.436 694.6 287.869 675.233 285.036 661.9C281.369 648.233 278.036 617.4 294.036 603.4Z" fill="#E1B0B0"/>
<path d="M10.7565 149.82C13.0705 144.075 19.3104 140.658 22.1412 139.667C23.0674 136.197 24.232 129.963 21.4802 132.798C18.7283 135.633 9.27069 140.037 4.88586 141.884C-10.3204 146.716 -10.7752 133.792 -5.71439 128.644C-1.66572 124.525 13.9797 123.565 21.2963 123.599L17.2964 105.266C18.443 104.085 19.7165 102.537 15.6376 105.793C10.5389 109.864 -10.0075 121.839 -14.3737 110.974C-17.8666 102.282 -11.8229 96.9706 -7.39925 95.5647C2.6504 92.3709 9.95869 92.7134 13.7597 94.1375C12.6495 88.4093 10.1679 77.4718 9.12266 79.5465C7.81606 82.14 0.109797 87.5842 -11.2258 91.1867C-20.2943 94.0686 -28.2376 91.296 -27.9198 87.5068C-21.8121 68.4121 1.75319 70.7251 4.24149 69.9343C6.23214 69.3017 -0.255639 58.6571 -3.74836 53.4138C-4.23723 54.7491 -7.28534 58.5676 -15.5668 63.1599C-25.9186 68.9003 -34.8326 65.5107 -35.375 56.3855C-35.7953 49.316 -19.2368 44.2683 -9.93059 42.5814L-33.5647 6.52742L-23.5764 6.34819L-3.29511 40.4726C4.49819 29.5552 14.6058 28.7935 16.6197 28.4257C18.6337 28.058 29.1343 28.5328 25.1303 39.8797C21.1263 51.2265 -2.56108 51.4028 0.398783 52.0959C2.76668 52.6503 7.81789 62.989 10.0475 68.0891C30.8732 54.1191 41.3247 61.1443 45.0705 64.3103C48.8163 67.4764 40.9093 75.1626 34.1166 76.7768C28.6825 78.0681 17.9545 78.2827 13.2698 78.2286L17.9069 92.8195C19.9353 91.5395 26.6458 88.5174 37.2603 86.6689C47.8749 84.8203 50.9421 89.4909 51.1489 92.0572C51.7631 94.9478 50.4957 101.304 40.5122 103.606C30.5286 105.907 23.1684 103.309 20.7362 101.722L25.5978 124.683C41.1805 116.245 47.7774 120.72 49.128 124.012C50.5464 125.921 52.0154 130.99 46.5443 135.996C41.0731 141.002 31.0535 137.38 26.7276 134.943L25.8112 140.679C29.4559 140.973 37.153 143.61 38.7833 151.805C40.8211 162.048 31.7296 169.839 22.8444 171.573C15.7362 172.961 11.7567 167.654 10.6555 164.828C7.66106 160.77 9.47514 153.132 10.7565 149.82Z" fill="#41945A"/>
<path d="M55.6807 23.6842C52.6816 23.6858 50.2424 25.8168 49.3976 26.882C47.6493 26.6764 44.5769 26.0888 46.2738 25.3829C47.9706 24.677 51.3048 21.3106 52.7597 19.7157C57.0694 13.9074 51.0853 11.4322 47.9953 12.742C45.5234 13.7898 42.9657 20.4722 41.9958 23.6825L33.9599 18.7025C33.2529 18.9966 32.3571 19.2817 34.4301 18.0689C37.0213 16.5528 45.3914 9.66372 40.8979 5.83839C37.3031 2.77811 34.0041 4.48946 32.7504 6.17915C29.9022 10.0178 29.0775 13.2786 29.2313 15.194C26.7017 13.6991 21.9203 10.6863 23.0316 10.5939C24.4207 10.4784 28.0057 8.06226 31.2183 3.73243C33.7884 0.268563 33.562 -3.6983 31.7469 -4.22637C21.9925 -4.91407 19.8986 5.81317 19.1934 6.76362C18.6293 7.52398 14.5247 2.80834 12.543 0.355472C13.2334 0.376509 15.4303 -0.285924 18.6943 -3.10394C22.7743 -6.62647 22.3902 -11.1271 18.1951 -12.9715C14.9451 -14.4004 10.3526 -8.03788 8.30947 -4.25945L-5.36908 -20.9584L-6.79898 -16.6158L6.4289 -1.72491C0.27221 -0.234476 -1.44621 4.05782 -1.88963 4.87503C-2.33305 5.69224 -3.52606 10.3744 2.32083 10.619C8.16772 10.8637 11.4424 0.521291 11.3677 1.93954C11.3079 3.07415 15.4629 7.10682 17.5479 8.98133C8.20714 15.6415 10.0845 21.4556 11.0606 23.6535C12.0367 25.8514 16.6973 23.7422 18.3678 21.0518C19.7041 18.8994 21.2502 14.2391 21.8562 12.178L28.056 16.778C27.1839 17.441 24.8661 19.8475 22.571 24.1704C20.2759 28.4933 22.0471 30.659 23.2196 31.2015C24.4888 31.9795 27.6328 32.5438 30.0548 28.577C32.4767 24.6102 32.2533 20.9294 31.8388 19.5849L41.9229 25.7571C35.8765 31.0954 37.0803 34.7723 38.4381 35.9435C39.1398 36.9008 41.313 38.4369 44.3919 36.9224C47.4707 35.408 47.1265 30.3821 46.5695 28.0585L49.3764 28.6674C49.0226 30.3153 49.2185 34.1503 52.8318 36.3074C57.3484 39.0036 62.2174 36.394 64.2262 32.8084C65.8332 29.9398 63.8875 27.2627 62.7138 26.2827C61.2192 24.2567 57.4023 23.7062 55.6807 23.6842Z" fill="#61B379"/>
<path d="M367.902 161.862C367.231 157.923 363.766 154.914 362.117 153.902C362.009 151.587 362.129 147.498 363.475 149.662C364.821 151.826 370.18 155.898 372.69 157.664C381.614 162.794 383.672 154.709 381.187 150.77C379.2 147.619 369.469 144.869 364.852 143.888L369.886 132.88C369.325 131.978 368.735 130.827 370.86 133.439C373.516 136.704 384.826 147.07 389.068 140.819C392.461 135.818 389.379 131.642 386.784 130.149C380.886 126.758 376.232 125.972 373.641 126.349C375.126 122.89 378.19 116.336 378.564 117.787C379.032 119.601 383.144 124.089 389.796 127.914C395.117 130.974 400.505 130.314 400.824 127.882C399.591 115.008 384.419 113.236 382.959 112.397C381.79 111.725 387.339 105.904 390.26 103.078C390.385 103.986 391.783 106.811 396.374 110.841C402.113 115.879 408.196 114.964 409.789 109.286C411.023 104.887 401.277 99.4355 395.642 97.0965L415.482 77.6084L409.21 76.1263L391.748 94.8577C388.331 86.9074 382.064 85.0418 380.845 84.534C379.626 84.0261 372.941 82.8861 373.91 90.5878C374.879 98.2894 389.787 101.647 387.826 101.678C386.257 101.703 381.656 107.528 379.552 110.438C368.338 98.7768 360.787 101.773 357.992 103.255C355.197 104.738 359.127 110.667 363.188 112.615C366.437 114.174 373.17 115.78 376.13 116.388L371.207 124.95C370.104 123.865 366.288 121.04 359.85 118.42C353.413 115.8 350.839 118.324 350.357 119.913C349.573 121.651 349.501 125.832 355.479 128.651C361.457 131.47 366.453 130.841 368.204 130.174L361.992 143.982C353.325 136.527 348.554 138.443 347.251 140.333C346.095 141.342 344.474 144.337 347.237 148.242C350 152.148 356.812 151.238 359.873 150.294L359.665 154.036C357.327 153.722 352.113 154.329 349.963 159.271C347.274 165.449 351.937 171.606 357.3 173.918C361.591 175.767 364.827 172.967 365.909 171.336C368.352 169.188 368.256 164.125 367.902 161.862Z" fill="#41945A"/>
<path d="M346.006 75.7194C348.088 72.8938 351.995 71.9009 353.689 71.7577C354.688 69.984 356.208 66.7281 354.297 67.8947C352.386 69.0613 346.574 70.1405 343.906 70.5342C334.879 71.0361 336.456 63.8791 339.962 61.7697C342.766 60.0822 351.487 61.7672 355.497 62.8207L355.894 52.1948C356.69 51.7087 357.608 51.0391 354.909 52.2496C351.536 53.7626 338.568 57.429 337.708 50.8494C337.02 45.5857 341.088 43.5253 343.714 43.3794C349.68 43.0477 353.642 44.2689 355.527 45.5878C355.728 42.2875 355.912 35.9346 355.045 36.9254C353.962 38.1638 348.963 40.0617 342.233 40.4358C336.849 40.7351 332.882 38.0905 333.593 36.0561C339.644 26.4414 352.249 31.0426 353.726 30.9605C354.908 30.8948 352.853 24.1362 351.677 20.7651C351.22 21.4287 349.008 23.0932 343.814 24.4423C337.322 26.1286 332.909 23.0083 333.902 17.9241C334.671 13.9852 344.471 13.5565 349.816 13.9466L341.945 -9.17981L347.451 -7.86588L353.756 13.7276C359.576 8.83856 365.23 9.8497 366.387 9.93265C367.545 10.0156 373.24 11.7609 369.438 17.4214C365.637 23.0819 352.613 19.8294 354.139 20.6282C355.36 21.2673 356.67 27.6549 357.173 30.7688C370.576 26.0473 375.318 31.3802 376.926 33.6472C378.534 35.9142 373.108 39.0141 369.153 38.9394C365.988 38.8797 360.071 37.4806 357.507 36.7885L357.989 45.451C359.283 45.0354 363.393 44.3258 369.479 44.8123C375.565 45.2987 376.588 48.2953 376.338 49.7328C376.267 51.4059 374.673 54.715 368.869 54.5663C363.065 54.4177 359.393 51.9512 358.283 50.7365L357.704 64.0235C367.448 61.5967 370.436 64.9848 370.711 66.9823C371.22 68.2304 371.309 71.22 367.599 73.1936C363.889 75.1671 358.903 71.7624 356.874 69.8134L355.56 72.8319C357.518 73.5085 361.369 76.0436 361.105 80.771C360.775 86.6804 354.684 89.6699 349.563 89.3655C345.467 89.122 344.033 85.6474 343.828 83.9406C342.759 81.2902 344.834 77.3555 346.006 75.7194Z" fill="#61B379"/>
</g>
<defs>
<filter id="filter0_d_806_5987" x="-38" y="576" width="133" height="227" filterUnits="userSpaceOnUse" color-interpolation-filters="sRGB">
<feFlood flood-opacity="0" result="BackgroundImageFix"/>
<feColorMatrix in="SourceAlpha" type="matrix" values="0 0 0 0 0 0 0 0 0 0 0 0 0 0 0 0 0 0 127 0" result="hardAlpha"/>
<feOffset dy="8"/>
<feComposite in2="hardAlpha" operator="out"/>
<feColorMatrix type="matrix" values="0 0 0 0 0.576874 0 0 0 0 0.656805 0 0 0 0 0.728743 0 0 0 1 0"/>
<feBlend mode="normal" in2="BackgroundImageFix" result="effect1_dropShadow_806_5987"/>
<feBlend mode="normal" in="SourceGraphic" in2="effect1_dropShadow_806_5987" result="shape"/>
</filter>
<filter id="filter1_d_806_5987" x="295" y="577" width="133" height="226" filterUnits="userSpaceOnUse" color-interpolation-filters="sRGB">
<feFlood flood-opacity="0" result="BackgroundImageFix"/>
<feColorMatrix in="SourceAlpha" type="matrix" values="0 0 0 0 0 0 0 0 0 0 0 0 0 0 0 0 0 0 127 0" result="hardAlpha"/>
<feOffset dy="8"/>
<feComposite in2="hardAlpha" operator="out"/>
<feColorMatrix type="matrix" values="0 0 0 0 0.576874 0 0 0 0 0.656805 0 0 0 0 0.728743 0 0 0 1 0"/>
<feBlend mode="normal" in2="BackgroundImageFix" result="effect1_dropShadow_806_5987"/>
<feBlend mode="normal" in="SourceGraphic" in2="effect1_dropShadow_806_5987" result="shape"/>
</filter>
<clipPath id="clip0_806_5987">
<rect width="390" height="844" fill="white"/>
</clipPath>
</defs>
</svg>
