<svg width="390" height="844" viewBox="0 0 390 844" fill="none" xmlns="http://www.w3.org/2000/svg">
<g clip-path="url(#clip0_806_5972)">
<rect width="390" height="844" fill="#C4E2EC"/>
<rect y="520" width="390" height="330" fill="#AEAE9D"/>
<path d="M156 547C156 595.601 116.907 611.5 73 611.5C29.0934 611.5 -3 595.601 -3 547C-3 498.399 42.5934 463 86.5 463C130.407 463 156 498.399 156 547Z" fill="url(#paint0_linear_806_5972)"/>
<path fill-rule="evenodd" clip-rule="evenodd" d="M65.8509 452.224C65.8509 452.224 85.0001 483.322 90.0838 484.397C95.1675 485.473 121.628 464.194 121.628 464.194C116.111 466.79 114.571 467.235 112.382 466.9C111.9 466.827 111.159 466.514 110.166 466.094C106.65 464.609 99.9777 461.79 90.4915 463.552C80.7597 465.36 84.8469 451.339 65.8509 452.224Z" fill="#596C76"/>
<path d="M81.2685 447.652C71.7374 446.574 65.8509 452.224 65.8509 452.224C84.8469 451.339 80.7597 465.36 90.4915 463.552C99.9777 461.79 106.65 464.609 110.166 466.094C111.159 466.514 111.9 466.827 112.382 466.9C114.571 467.235 116.111 466.79 121.628 464.194C121.628 464.194 126.605 459.915 118.224 455.483C109.842 451.051 107.696 454.558 100.711 452.805C93.7255 451.051 90.7996 448.729 81.2685 447.652Z" fill="#465A61"/>
<path d="M381 526C381 574.601 341.907 590.5 298 590.5C254.093 590.5 222 574.601 222 526C222 477.399 267.593 442 311.5 442C355.407 442 381 477.399 381 526Z" fill="url(#paint1_linear_806_5972)"/>
<path fill-rule="evenodd" clip-rule="evenodd" d="M290.851 431.224C290.851 431.224 310 462.322 315.084 463.397C320.168 464.473 346.628 443.194 346.628 443.194C341.111 445.79 339.571 446.235 337.382 445.9C336.9 445.827 336.159 445.514 335.166 445.094C331.65 443.609 324.978 440.79 315.492 442.552C305.76 444.36 309.847 430.339 290.851 431.224Z" fill="#596C76"/>
<path d="M306.269 426.652C296.737 425.574 290.851 431.224 290.851 431.224C309.847 430.339 305.76 444.36 315.492 442.552C324.978 440.79 331.65 443.609 335.166 445.094C336.159 445.514 336.9 445.827 337.382 445.9C339.571 446.235 341.111 445.79 346.628 443.194C346.628 443.194 351.605 438.915 343.224 434.483C334.842 430.051 332.696 433.558 325.711 431.805C318.726 430.051 315.8 427.729 306.269 426.652Z" fill="#465A61"/>
<path d="M0 6.10493e-05L73 0V617.389L0 725V6.10493e-05Z" fill="#C4C4C4"/>
<path d="M390 6.10493e-05L317 0V617.389L390 725V6.10493e-05Z" fill="#C4C4C4"/>
<path d="M-77.396 802.7C-77.396 863.311 -30.4348 883.139 22.3084 883.139C75.0516 883.139 113.604 863.311 113.604 802.7C113.604 742.089 58.8346 697.942 6.09143 697.942C-46.6518 697.942 -77.396 742.089 -77.396 802.7Z" fill="url(#paint2_linear_806_5972)"/>
<path fill-rule="evenodd" clip-rule="evenodd" d="M30.8964 684.503C30.8964 684.503 7.8932 723.286 1.78638 724.627C-4.32044 725.968 -36.1067 699.432 -36.1067 699.432C-29.4795 702.669 -27.6295 703.224 -24.9999 702.807C-24.4208 702.715 -23.5303 702.324 -22.3375 701.801C-18.1135 699.949 -10.0988 696.434 1.29659 698.631C12.9871 700.886 8.07732 683.4 30.8964 684.503Z" fill="#596C76"/>
<path d="M12.3758 678.801C23.8251 677.457 30.8964 684.503 30.8964 684.503C8.07732 683.4 12.9871 700.886 1.29659 698.631C-10.0988 696.434 -18.1135 699.949 -22.3375 701.801C-23.5303 702.324 -24.4208 702.715 -24.9999 702.807C-27.6295 703.224 -29.4795 702.669 -36.1067 699.432C-36.1067 699.432 -42.0855 694.095 -32.0168 688.568C-21.9481 683.04 -19.3708 687.414 -10.9795 685.227C-2.58824 683.041 0.926486 680.145 12.3758 678.801Z" fill="#465A61"/>
<path d="M468.472 795.553C468.472 853.292 422.494 872.18 370.855 872.18C319.217 872.18 281.472 853.292 281.472 795.553C281.472 737.814 335.094 695.76 386.733 695.76C438.371 695.76 468.472 737.814 468.472 795.553Z" fill="url(#paint3_linear_806_5972)"/>
<path fill-rule="evenodd" clip-rule="evenodd" d="M362.447 682.958C362.447 682.958 384.969 719.903 390.948 721.181C396.927 722.458 428.047 697.179 428.047 697.179C421.559 700.263 419.748 700.792 417.173 700.394C416.606 700.306 415.734 699.934 414.566 699.436C410.431 697.671 402.584 694.323 391.427 696.417C379.982 698.564 384.789 681.907 362.447 682.958Z" fill="#596C76"/>
<path d="M380.58 677.526C369.371 676.246 362.447 682.958 362.447 682.958C384.789 681.907 379.982 698.564 391.427 696.417C402.584 694.323 410.431 697.671 414.566 699.436C415.734 699.934 416.606 700.306 417.173 700.394C419.748 700.792 421.559 700.263 428.047 697.179C428.047 697.179 433.901 692.095 424.043 686.83C414.185 681.564 411.662 685.731 403.446 683.648C395.231 681.565 391.79 678.807 380.58 677.526Z" fill="#465A61"/>
<path d="M123.339 662.591C121.763 663.425 123.361 666.869 124.339 667.48C127.684 667.48 131.75 667.463 134.839 666.091C136.872 665.187 141.697 659.633 143.727 664.202C144.404 665.724 143.635 667.77 143.311 669.23C142.618 672.348 139.982 672.448 137.339 673.091C136.216 673.364 130.721 673.017 130.366 674.257C130.097 675.201 132.229 677.334 132.839 677.98C134.732 679.985 140.839 682.346 140.839 685.48C140.839 687.173 140.489 688.106 138.561 687.23C135.351 685.771 132.076 686.153 129.227 683.369C127.891 682.063 126.318 680.65 125.116 679.23C124.417 678.403 123.757 676.767 122.589 676.507C120.423 676.026 120.182 679.028 118.727 679.98C114.814 682.538 107.126 679.187 102.616 680.007C100.504 680.391 94.6681 684.754 92.6163 682.702C90.6498 680.735 93.8677 676.245 95.5885 675.48C99.2926 673.833 102.515 673.98 106.589 673.98C109.463 673.98 116.636 673.116 117.5 669.23C117.81 667.834 118.085 665.869 118 664.428C117.907 662.849 114.357 666.928 113.5 663.928C112.45 660.251 116.558 659.276 119.144 658.48C121.341 657.804 127.882 654.907 126.811 659.73C126.389 661.627 124.723 661.858 123.339 662.591Z" fill="#F8E490"/>
<path fill-rule="evenodd" clip-rule="evenodd" d="M57.1134 637.293C56.561 636.826 55.9502 636.526 55.2875 636.417C51.1163 635.733 46.4687 642.902 44.9066 652.43C43.3446 661.958 45.4597 670.236 49.6308 670.92C50.1129 670.999 50.6014 670.973 51.0908 670.851L51.0488 671.085L87.0112 669.366C89.5603 666.315 93.5827 658.271 89.2795 650.502L57.1533 637.071L57.1134 637.293Z" fill="white" fill-opacity="0.5"/>
<ellipse cx="52.459" cy="653.668" rx="17.4818" ry="7.65334" transform="rotate(-80.6894 52.459 653.668)" fill="white" fill-opacity="0.5"/>
<path d="M316.425 598.958C319.178 595.815 338.037 610.742 335.841 614.946C333.644 619.15 329.06 623.564 324.52 629.527C319.98 635.491 318.271 634.775 317.154 637.192C316.44 638.738 314.483 640.907 313.591 641.968C312.228 643.591 308.605 642.235 307.072 642.032C302.613 641.439 296.896 637.51 294.968 633.427C293.95 631.271 292.896 628.942 293.692 626.629C296.595 625.374 297.7 620.761 299.975 618.055C302.25 615.348 306.358 613.777 307.427 611.386C308.729 608.477 313.673 602.102 316.425 598.958Z" fill="#A06E6E"/>
<ellipse cx="325.891" cy="608.054" rx="2.56542" ry="10.4497" transform="rotate(-49.2278 325.891 608.054)" fill="#BABABA"/>
<path fill-rule="evenodd" clip-rule="evenodd" d="M346 483C340.5 483 340.5 486 341 487.562C342.971 489.631 349.832 489.306 350.961 487.562C351 486 351.5 483 346 483Z" fill="#4A2921"/>
<path d="M346 498.5C349.314 498.5 350 497.366 350 493.5C350 492.04 353.5 488.5 350.961 487.562C349.832 489.306 342.971 489.631 341 487.562C338.5 488.5 342 491.54 342 493C342 496.866 342.686 498.5 346 498.5Z" fill="#8C7B73"/>
<path d="M343.753 496.285C342.739 498.251 340.369 499.047 338.459 498.062C336.549 497.077 335.822 494.684 336.836 492.718C337.85 490.751 341.843 488.695 343.753 489.68C345.664 490.665 344.767 494.319 343.753 496.285Z" fill="#D9D9D9"/>
<path d="M348.691 496.285C349.705 498.251 352.075 499.047 353.986 498.062C355.896 497.077 356.622 494.684 355.608 492.718C354.594 490.751 350.601 488.695 348.691 489.68C346.781 490.665 347.677 494.319 348.691 496.285Z" fill="#D9D9D9"/>
<path fill-rule="evenodd" clip-rule="evenodd" d="M50.1009 378.554C45.7024 375.251 43.9013 377.651 43.3631 379.2C43.6973 382.038 49.38 385.897 51.3294 385.181C52.2983 383.955 54.4993 381.856 50.1009 378.554Z" fill="#4A2921"/>
<path d="M40.795 390.949C43.4451 392.939 44.6747 392.444 46.9958 389.352C47.8723 388.184 52.7967 387.455 51.3294 385.181C49.38 385.897 43.6973 382.038 43.3631 379.2C40.8009 378.449 41.7749 382.982 40.8983 384.149C38.5772 387.241 38.145 388.96 40.795 390.949Z" fill="#8C7B73"/>
<path d="M40.3285 387.829C38.337 388.793 35.9637 388.006 35.0275 386.071C34.0914 384.136 34.9468 381.787 36.9382 380.823C38.9296 379.86 43.358 380.612 44.2941 382.547C45.2303 384.481 42.3199 386.865 40.3285 387.829Z" fill="#D9D9D9"/>
<path d="M44.2772 390.793C43.9076 392.975 45.3259 395.034 47.4449 395.393C49.5639 395.752 51.5813 394.275 51.9509 392.094C52.3205 389.912 50.3619 385.87 48.2429 385.511C46.1239 385.152 44.6468 388.612 44.2772 390.793Z" fill="#D9D9D9"/>
<path fill-rule="evenodd" clip-rule="evenodd" d="M129.71 646.916C131.152 652.224 134.047 651.437 135.424 650.545C136.903 648.101 134.79 641.564 132.812 640.932C131.294 641.304 128.268 641.609 129.71 646.916Z" fill="#4A2921"/>
<path d="M144.668 642.852C143.799 639.654 142.525 639.289 138.794 640.303C137.385 640.686 133.051 638.236 132.812 640.932C134.79 641.564 136.903 648.101 135.424 650.545C136.984 652.712 139 648.537 140.409 648.154C144.14 647.14 145.537 646.05 144.668 642.852Z" fill="#8C7B73"/>
<path d="M143.12 645.601C145.283 646.064 146.672 648.143 146.223 650.244C145.773 652.346 143.655 653.674 141.491 653.211C139.328 652.748 136.296 649.434 136.746 647.333C137.195 645.231 140.956 645.138 143.12 645.601Z" fill="#D9D9D9"/>
<path d="M141.825 640.836C143.457 639.342 143.603 636.846 142.151 635.261C140.7 633.676 138.2 633.602 136.569 635.096C134.937 636.59 133.999 640.983 135.451 642.568C136.902 644.153 140.194 642.33 141.825 640.836Z" fill="#D9D9D9"/>
</g>
<defs>
<linearGradient id="paint0_linear_806_5972" x1="83.9545" y1="463" x2="68.9232" y2="611.5" gradientUnits="userSpaceOnUse">
<stop stop-color="#697F8A"/>
<stop offset="1" stop-color="#465A61"/>
</linearGradient>
<linearGradient id="paint1_linear_806_5972" x1="308.954" y1="442" x2="293.923" y2="590.5" gradientUnits="userSpaceOnUse">
<stop stop-color="#697F8A"/>
<stop offset="1" stop-color="#465A61"/>
</linearGradient>
<linearGradient id="paint2_linear_806_5972" x1="9.14924" y1="697.942" x2="28.5953" y2="882.993" gradientUnits="userSpaceOnUse">
<stop stop-color="#697F8A"/>
<stop offset="1" stop-color="#465A61"/>
</linearGradient>
<linearGradient id="paint3_linear_806_5972" x1="383.739" y1="695.76" x2="365.704" y2="872.143" gradientUnits="userSpaceOnUse">
<stop stop-color="#697F8A"/>
<stop offset="1" stop-color="#465A61"/>
</linearGradient>
<clipPath id="clip0_806_5972">
<rect width="390" height="844" fill="white"/>
</clipPath>
</defs>
</svg>
