<svg width="390" height="844" viewBox="0 0 390 844" fill="none" xmlns="http://www.w3.org/2000/svg">
<g clip-path="url(#clip0_826_4075)">
<rect width="390" height="844" fill="#94A4BB"/>
<rect y="476" width="390" height="368" fill="url(#paint0_linear_826_4075)"/>
<path d="M-1 473H149C171 474.667 209.8 485.7 189 516.5C163 555 265.8 551.5 282.3 571C297.619 589.105 264.5 593 189 615C113.5 637 -25 658 37 689.5C86.6 714.7 29.8333 746.167 -1 759.5V473Z" fill="white"/>
<path d="M403.958 660H253.958C231.958 661.667 193.158 672.7 213.958 703.5C239.958 742 137.158 738.5 120.658 758C105.339 776.105 138.458 780 213.958 802C289.458 824 427.958 845 365.958 876.5C316.358 901.7 373.125 933.167 403.958 946.5V660Z" fill="white"/>
<path d="M58.4703 505H20.4703C18.3036 507.5 13.1703 512.9 9.97027 514.5C5.97027 516.5 15.4703 519.5 17.9703 516.5C16.8036 518.5 15.3702 522.4 18.9702 522C23.4702 521.5 29.4702 519 35.4702 520.5C41.4702 522 54.9703 523.5 58.4703 522C60.3489 521.195 59.2024 518.949 57.8143 516.5C65.6895 519.3 68.5329 516.333 68.9702 514.5C64.9702 512.9 60.3036 507.5 58.4703 505Z" fill="#7D7862"/>
<path d="M58.4703 425H20.4703V505H58.4703V425Z" fill="#7D7862"/>
<path fill-rule="evenodd" clip-rule="evenodd" d="M107.943 431L38.3959 347L-30.0928 429.722C-30.1937 429.814 -30.2916 429.907 -30.3865 430C-33.7656 433.324 -35.4821 438.43 -32.3628 436.436C-29.2435 434.441 -27.6839 432.945 -27.6839 432.945C-27.6839 432.945 -33.9221 444.713 -21.4457 433.942C-20.9258 437.765 -17.5468 443.416 -8.1895 435.438C-8.44859 439.58 -5.86679 445.473 6.50668 436.028C6.54667 436.031 6.5867 436.034 6.62675 436.036C6.66802 440.021 9.20405 445.637 19.1026 436.934C21.9552 440.416 29.2058 445.288 35.4343 436.992C35.4665 436.993 35.4986 436.993 35.5308 436.993C38.6791 440.479 45.9514 445.264 50.2937 436.934C54.7124 440.757 64.0177 446.109 65.8892 436.934C71.0877 440.258 81.1728 444.912 79.9252 436.934C86.9432 439.926 100.043 443.815 96.3005 435.438C103.059 438.264 115.171 441.721 109.557 432.945C109.151 432.311 108.539 431.68 107.745 431.054C107.877 431.019 107.943 431 107.943 431Z" fill="#47787E"/>
<path fill-rule="evenodd" clip-rule="evenodd" d="M101.196 418L37.4046 334L-25.4161 416.722C-25.5086 416.814 -25.5985 416.907 -25.6856 417C-28.785 420.324 -30.3594 425.43 -27.4983 423.436C-24.6371 421.441 -23.2066 419.945 -23.2066 419.945C-23.2066 419.945 -28.9286 431.713 -17.4847 420.942C-17.0078 424.765 -13.9085 430.416 -5.32554 422.438C-5.56319 426.58 -3.19506 432.473 8.15441 423.028C8.19109 423.031 8.2278 423.034 8.26454 423.036C8.30239 427.021 10.6285 432.637 19.7079 423.934C22.3244 427.416 28.975 432.288 34.688 423.992C34.7175 423.993 34.747 423.993 34.7765 423.993C37.6643 427.479 44.3347 432.264 48.3177 423.934C52.3707 427.757 60.9059 433.109 62.6225 423.934C67.3908 427.258 76.6413 431.912 75.4969 423.934C81.9341 426.926 93.9501 430.815 90.517 422.438C96.7158 425.264 107.826 428.721 102.676 419.945C102.304 419.311 101.743 418.68 101.015 418.054C101.136 418.019 101.196 418 101.196 418Z" fill="#5E9097"/>
<path d="M29.2613 332.449C33.2144 327.182 41.0669 327.083 45.1058 332.284C60.6332 352.28 93.7401 395.121 98.3916 402.85C104.5 413 91.5 413 75.4495 411C59.3989 409 42.5 413 37.1041 413C31.7081 413 -3.06292 409.196 -15.681 413C-25.6583 416.008 -24.7976 407.913 -24.0004 404.393C-23.7658 403.357 -23.2579 402.417 -22.6203 401.568L29.2613 332.449Z" fill="white"/>
<path fill-rule="evenodd" clip-rule="evenodd" d="M94.5753 384.972L39.4175 293.122L-14.9011 383.574C-14.9811 383.675 -15.0588 383.777 -15.1342 383.879C-17.8141 387.513 -19.1754 393.096 -16.7015 390.916C-14.2276 388.735 -12.9907 387.099 -12.9907 387.099C-12.9907 387.099 -17.9382 399.966 -8.04314 388.189C-7.63084 392.369 -4.95092 398.549 2.4704 389.825C2.26491 394.354 4.31254 400.797 14.126 390.47C14.1577 390.473 14.1894 390.476 14.2212 390.479C14.254 394.836 16.2653 400.977 24.1159 391.461C26.3782 395.268 32.1288 400.596 37.0686 391.525C37.0941 391.525 37.1196 391.525 37.1451 391.525C39.6421 395.337 45.4098 400.569 48.8536 391.461C52.3581 395.641 59.7382 401.493 61.2225 391.461C65.3454 395.096 73.344 400.184 72.3544 391.461C77.9204 394.732 88.3103 398.985 85.3418 389.825C90.7016 392.915 100.308 396.695 95.8553 387.099C95.5336 386.406 95.0485 385.716 94.4188 385.031C94.5235 384.993 94.5753 384.972 94.5753 384.972Z" fill="#5E9097"/>
<path d="M30.6008 294.417C34.4656 287.905 43.8842 287.885 47.7772 294.379L91.8612 367.923C92.0541 368.245 92.2271 368.569 92.359 368.921C93.4275 371.766 97.3219 385.164 72.3136 377.318C52.9114 371.231 44.4569 374.674 41.1089 377.332C39.6037 378.527 38.3132 380.121 36.4864 380.717C24.8479 384.518 3.59581 375.662 -6.4834 379.505C-15.3758 382.895 -14.3116 373.386 -13.6137 369.753C-13.4408 368.853 -13.0786 368.006 -12.6108 367.218L30.6008 294.417Z" fill="white"/>
<path fill-rule="evenodd" clip-rule="evenodd" d="M85.9997 345L40.4997 261L-4.30803 343.722C-4.37402 343.814 -4.43809 343.907 -4.50021 344C-6.71089 347.324 -7.83389 352.43 -5.79313 350.436C-3.75237 348.441 -2.73204 346.945 -2.73204 346.945C-2.73204 346.945 -6.8133 358.713 1.34921 347.942C1.68932 351.765 3.9 357.416 10.0219 349.438C9.85238 353.58 11.5415 359.473 19.6366 350.028C19.6628 350.031 19.689 350.034 19.7152 350.036C19.7422 354.021 21.4014 359.637 27.8774 350.934C29.7436 354.416 34.4872 359.288 38.5621 350.992C38.5832 350.993 38.6042 350.993 38.6252 350.993C40.685 354.479 45.4428 359.264 48.2836 350.934C51.1745 354.757 57.2624 360.109 58.4868 350.934C61.8878 354.258 68.4859 358.912 67.6696 350.934C72.261 353.926 80.8317 357.815 78.3829 349.438C82.8043 352.264 90.7287 355.721 87.0556 346.945C86.7902 346.311 86.3901 345.68 85.8706 345.054C85.9569 345.019 85.9997 345 85.9997 345Z" fill="#5E9097"/>
<path d="M31.4309 266.272C35.1397 259.038 45.4721 259.017 49.2098 266.236L77.5187 320.911C80.6861 327.029 76.8167 334.435 70.289 336.636C66.163 338.028 62.3649 339.888 61 342.248C57.5 348.299 45.5715 348.206 40.2858 344.029C37.7587 342.032 27 333.473 18 337.445C13.8272 339.287 9.00942 338.558 5.04182 337.246C0.214773 335.649 -1.24825 330.013 1.07128 325.488L31.4309 266.272Z" fill="white"/>
<path d="M305.47 482H267.47C265.304 484.5 260.17 489.9 256.97 491.5C252.97 493.5 262.47 496.5 264.97 493.5C263.804 495.5 262.37 499.4 265.97 499C270.47 498.5 276.47 496 282.47 497.5C288.47 499 301.97 500.5 305.47 499C307.349 498.195 306.202 495.949 304.814 493.5C312.69 496.3 315.533 493.333 315.97 491.5C311.97 489.9 307.304 484.5 305.47 482Z" fill="#7D7862"/>
<path d="M305.47 402H267.47V482H305.47V402Z" fill="#7D7862"/>
<path fill-rule="evenodd" clip-rule="evenodd" d="M354.943 408L285.396 324L216.907 406.722C216.806 406.814 216.708 406.907 216.613 407C213.234 410.324 211.518 415.43 214.637 413.436C217.757 411.441 219.316 409.945 219.316 409.945C219.316 409.945 213.078 421.713 225.554 410.942C226.074 414.765 229.453 420.416 238.811 412.438C238.551 416.58 241.133 422.473 253.507 413.028C253.547 413.031 253.587 413.034 253.627 413.036C253.668 417.021 256.204 422.637 266.103 413.934C268.955 417.416 276.206 422.288 282.434 413.992C282.466 413.993 282.499 413.993 282.531 413.993C285.679 417.479 292.951 422.264 297.294 413.934C301.712 417.757 311.018 423.109 312.889 413.934C318.088 417.258 328.173 421.912 326.925 413.934C333.943 416.926 347.043 420.815 343.3 412.438C350.059 415.264 362.171 418.721 356.557 409.945C356.151 409.311 355.539 408.68 354.745 408.054C354.877 408.019 354.943 408 354.943 408Z" fill="#47787E"/>
<path fill-rule="evenodd" clip-rule="evenodd" d="M348.196 395L284.405 311L221.584 393.722C221.491 393.814 221.402 393.907 221.314 394C218.215 397.324 216.641 402.43 219.502 400.436C222.363 398.441 223.793 396.945 223.793 396.945C223.793 396.945 218.071 408.713 229.515 397.942C229.992 401.765 233.092 407.416 241.674 399.438C241.437 403.58 243.805 409.473 255.154 400.028C255.191 400.031 255.228 400.034 255.265 400.036C255.302 404.021 257.629 409.637 266.708 400.934C269.324 404.416 275.975 409.288 281.688 400.992C281.718 400.993 281.747 400.993 281.777 400.993C284.664 404.479 291.335 409.264 295.318 400.934C299.371 404.757 307.906 410.109 309.623 400.934C314.391 404.258 323.641 408.912 322.497 400.934C328.934 403.926 340.95 407.815 337.517 399.438C343.716 402.264 354.826 405.721 349.676 396.945C349.304 396.311 348.743 395.68 348.015 395.054C348.136 395.019 348.196 395 348.196 395Z" fill="#5E9097"/>
<path d="M276.261 309.449C280.214 304.182 288.067 304.083 292.106 309.284C307.633 329.28 340.74 372.121 345.392 379.85C351.5 390 338.5 390 322.449 388C306.399 386 289.5 390 284.104 390C278.708 390 243.937 386.196 231.319 390C221.342 393.008 222.202 384.913 223 381.393C223.234 380.357 223.742 379.417 224.38 378.568L276.261 309.449Z" fill="white"/>
<path fill-rule="evenodd" clip-rule="evenodd" d="M341.575 361.972L286.417 270.122L232.099 360.574C232.019 360.675 231.941 360.777 231.866 360.879C229.186 364.513 227.825 370.096 230.298 367.916C232.772 365.735 234.009 364.099 234.009 364.099C234.009 364.099 229.062 376.966 238.957 365.189C239.369 369.369 242.049 375.549 249.47 366.825C249.265 371.354 251.313 377.797 261.126 367.47C261.158 367.473 261.189 367.476 261.221 367.479C261.254 371.836 263.265 377.977 271.116 368.461C273.378 372.268 279.129 377.596 284.069 368.525C284.094 368.525 284.12 368.525 284.145 368.525C286.642 372.337 292.41 377.569 295.854 368.461C299.358 372.641 306.738 378.493 308.222 368.461C312.345 372.096 320.344 377.184 319.354 368.461C324.92 371.732 335.31 375.985 332.342 366.825C337.702 369.915 347.308 373.695 342.855 364.099C342.534 363.406 342.049 362.716 341.419 362.031C341.523 361.993 341.575 361.972 341.575 361.972Z" fill="#5E9097"/>
<path d="M277.601 271.417C281.466 264.905 290.884 264.885 294.777 271.379L338.861 344.923C339.054 345.245 339.227 345.569 339.359 345.921C340.427 348.766 344.322 362.164 319.314 354.318C299.911 348.231 291.457 351.674 288.109 354.332C286.604 355.527 285.313 357.121 283.486 357.717C271.848 361.518 250.596 352.662 240.517 356.505C231.624 359.895 232.688 350.386 233.386 346.753C233.559 345.853 233.921 345.006 234.389 344.218L277.601 271.417Z" fill="white"/>
<path fill-rule="evenodd" clip-rule="evenodd" d="M333 322L287.5 238L242.692 320.722C242.626 320.814 242.562 320.907 242.5 321C240.289 324.324 239.166 329.43 241.207 327.436C243.248 325.441 244.268 323.945 244.268 323.945C244.268 323.945 240.187 335.713 248.349 324.942C248.689 328.765 250.9 334.416 257.022 326.438C256.852 330.58 258.541 336.473 266.637 327.028C266.663 327.031 266.689 327.034 266.715 327.036C266.742 331.021 268.401 336.637 274.877 327.934C276.744 331.416 281.487 336.288 285.562 327.992C285.583 327.993 285.604 327.993 285.625 327.993C287.685 331.479 292.443 336.264 295.284 327.934C298.175 331.757 304.262 337.109 305.487 327.934C308.888 331.258 315.486 335.912 314.67 327.934C319.261 330.926 327.832 334.815 325.383 326.438C329.804 329.264 337.729 332.721 334.056 323.945C333.79 323.311 333.39 322.68 332.871 322.054C332.957 322.019 333 322 333 322Z" fill="#5E9097"/>
<path d="M278.431 243.272C282.14 236.038 292.472 236.017 296.21 243.236L324.519 297.911C327.686 304.029 323.817 311.435 317.289 313.636C313.163 315.028 309.365 316.888 308 319.248C304.5 325.299 292.572 325.206 287.286 321.029C284.759 319.032 274 310.473 265 314.445C260.827 316.287 256.009 315.558 252.042 314.246C247.215 312.649 245.752 307.013 248.071 302.488L278.431 243.272Z" fill="white"/>
<path d="M378.47 523H340.47C338.304 525.5 333.17 530.9 329.97 532.5C325.97 534.5 335.47 537.5 337.97 534.5C336.804 536.5 335.37 540.4 338.97 540C343.47 539.5 349.47 537 355.47 538.5C361.47 540 374.97 541.5 378.47 540C380.349 539.195 379.202 536.949 377.814 534.5C385.69 537.3 388.533 534.333 388.97 532.5C384.97 530.9 380.304 525.5 378.47 523Z" fill="#7D7862"/>
<path d="M378.47 443H340.47V523H378.47V443Z" fill="#7D7862"/>
<path fill-rule="evenodd" clip-rule="evenodd" d="M427.943 449L358.396 365L289.907 447.722C289.806 447.814 289.708 447.907 289.613 448C286.234 451.324 284.518 456.43 287.637 454.436C290.757 452.441 292.316 450.945 292.316 450.945C292.316 450.945 286.078 462.713 298.554 451.942C299.074 455.765 302.453 461.416 311.811 453.438C311.551 457.58 314.133 463.473 326.507 454.028C326.547 454.031 326.587 454.034 326.627 454.036C326.668 458.021 329.204 463.637 339.103 454.934C341.955 458.416 349.206 463.288 355.434 454.992C355.466 454.993 355.499 454.993 355.531 454.993C358.679 458.479 365.951 463.264 370.294 454.934C374.712 458.757 384.018 464.109 385.889 454.934C391.088 458.258 401.173 462.912 399.925 454.934C406.943 457.926 420.043 461.815 416.3 453.438C423.059 456.264 435.171 459.721 429.557 450.945C429.151 450.311 428.539 449.68 427.745 449.054C427.877 449.019 427.943 449 427.943 449Z" fill="#47787E"/>
<path fill-rule="evenodd" clip-rule="evenodd" d="M421.196 436L357.405 352L294.584 434.722C294.491 434.814 294.402 434.907 294.314 435C291.215 438.324 289.641 443.43 292.502 441.436C295.363 439.441 296.793 437.945 296.793 437.945C296.793 437.945 291.071 449.713 302.515 438.942C302.992 442.765 306.092 448.416 314.674 440.438C314.437 444.58 316.805 450.473 328.154 441.028C328.191 441.031 328.228 441.034 328.265 441.036C328.302 445.021 330.629 450.637 339.708 441.934C342.324 445.416 348.975 450.288 354.688 441.992C354.718 441.993 354.747 441.993 354.777 441.993C357.664 445.479 364.335 450.264 368.318 441.934C372.371 445.757 380.906 451.109 382.623 441.934C387.391 445.258 396.641 449.912 395.497 441.934C401.934 444.926 413.95 448.815 410.517 440.438C416.716 443.264 427.826 446.721 422.676 437.945C422.304 437.311 421.743 436.68 421.015 436.054C421.136 436.019 421.196 436 421.196 436Z" fill="#5E9097"/>
<path d="M349.261 350.449C353.214 345.182 361.067 345.083 365.106 350.284C380.633 370.28 413.74 413.121 418.392 420.85C424.5 431 411.5 431 395.449 429C379.399 427 362.5 431 357.104 431C351.708 431 316.937 427.196 304.319 431C294.342 434.008 295.202 425.913 296 422.393C296.234 421.357 296.742 420.417 297.38 419.568L349.261 350.449Z" fill="white"/>
<path fill-rule="evenodd" clip-rule="evenodd" d="M414.575 402.972L359.417 311.122L305.099 401.574C305.019 401.675 304.941 401.777 304.866 401.879C302.186 405.513 300.825 411.096 303.298 408.916C305.772 406.735 307.009 405.099 307.009 405.099C307.009 405.099 302.062 417.966 311.957 406.189C312.369 410.369 315.049 416.549 322.47 407.825C322.265 412.354 324.313 418.797 334.126 408.47C334.158 408.473 334.189 408.476 334.221 408.479C334.254 412.836 336.265 418.977 344.116 409.461C346.378 413.268 352.129 418.596 357.069 409.525C357.094 409.525 357.12 409.525 357.145 409.525C359.642 413.337 365.41 418.569 368.854 409.461C372.358 413.641 379.738 419.493 381.222 409.461C385.345 413.096 393.344 418.184 392.354 409.461C397.92 412.732 408.31 416.985 405.342 407.825C410.702 410.915 420.308 414.695 415.855 405.099C415.534 404.406 415.049 403.716 414.419 403.031C414.523 402.993 414.575 402.972 414.575 402.972Z" fill="#5E9097"/>
<path d="M350.601 312.417C354.466 305.905 363.884 305.885 367.777 312.379L411.861 385.923C412.054 386.245 412.227 386.569 412.359 386.921C413.427 389.766 417.322 403.164 392.314 395.318C372.911 389.231 364.457 392.674 361.109 395.332C359.604 396.527 358.313 398.121 356.486 398.717C344.848 402.518 323.596 393.662 313.517 397.505C304.624 400.895 305.688 391.386 306.386 387.753C306.559 386.853 306.921 386.006 307.389 385.218L350.601 312.417Z" fill="white"/>
<path fill-rule="evenodd" clip-rule="evenodd" d="M406 363L360.5 279L315.692 361.722C315.626 361.814 315.562 361.907 315.5 362C313.289 365.324 312.166 370.43 314.207 368.436C316.248 366.441 317.268 364.945 317.268 364.945C317.268 364.945 313.187 376.713 321.349 365.942C321.689 369.765 323.9 375.416 330.022 367.438C329.852 371.58 331.541 377.473 339.637 368.028C339.663 368.031 339.689 368.034 339.715 368.036C339.742 372.021 341.401 377.637 347.877 368.934C349.744 372.416 354.487 377.288 358.562 368.992C358.583 368.993 358.604 368.993 358.625 368.993C360.685 372.479 365.443 377.264 368.284 368.934C371.175 372.757 377.262 378.109 378.487 368.934C381.888 372.258 388.486 376.912 387.67 368.934C392.261 371.926 400.832 375.815 398.383 367.438C402.804 370.264 410.729 373.721 407.056 364.945C406.79 364.311 406.39 363.68 405.871 363.054C405.957 363.019 406 363 406 363Z" fill="#5E9097"/>
<path d="M351.431 284.272C355.14 277.038 365.472 277.017 369.21 284.236L397.519 338.911C400.686 345.029 396.817 352.435 390.289 354.636C386.163 356.028 382.365 357.888 381 360.248C377.5 366.299 365.572 366.206 360.286 362.029C357.759 360.032 347 351.473 338 355.445C333.827 357.287 329.009 356.558 325.042 355.246C320.215 353.649 318.752 348.013 321.071 343.488L351.431 284.272Z" fill="white"/>
</g>
<defs>
<linearGradient id="paint0_linear_826_4075" x1="195" y1="476" x2="195" y2="844" gradientUnits="userSpaceOnUse">
<stop stop-color="#BCCEDA"/>
<stop offset="0.535" stop-color="#D8E6F0"/>
</linearGradient>
<clipPath id="clip0_826_4075">
<rect width="390" height="844" fill="white"/>
</clipPath>
</defs>
</svg>
