<svg width="390" height="844" viewBox="0 0 390 844" fill="none" xmlns="http://www.w3.org/2000/svg">
<g clip-path="url(#clip0_826_3979)">
<rect width="390" height="844" fill="url(#paint0_linear_826_3979)"/>
<rect y="476" width="390" height="368" fill="#7A7663"/>
<path d="M-14 473H118.772C138.245 474.85 172.589 487.096 154.178 521.283C131.164 564.016 222.157 560.131 236.762 581.775C250.322 601.871 221.007 606.194 154.178 630.613C87.3494 655.031 -35.2435 678.34 19.6356 713.304C63.5389 741.274 13.2921 776.201 -14 791V473Z" fill="#BCCEDA"/>
<path d="M428 474H184C205.868 500 200.5 529.5 279.023 555.534C350.2 579.132 218.806 621.136 205.868 657.686C193.856 691.621 219.825 698.921 279.023 740.157C338.222 781.393 446.818 820.754 398.205 879.796C359.314 927.029 403.824 986.009 428 1011V474Z" fill="#BCCEDA"/>
<path d="M-24 896.37L211.868 909.814C191.613 893.097 197.805 875.794 122.784 855.936C54.7819 837.936 183.225 820.116 196.974 799.023C209.74 779.439 184.885 773.653 129.062 745.791C73.2382 717.928 -30.4004 688.463 18.6005 655.917C57.8012 629.881 16.78 592.242 -5.74053 576L-24 896.37Z" fill="#D0E0EC"/>
<path d="M58.4703 505H20.4703C18.3036 507.5 13.1703 512.9 9.97027 514.5C5.97027 516.5 15.4703 519.5 17.9703 516.5C16.8036 518.5 15.3702 522.4 18.9702 522C23.4702 521.5 29.4702 519 35.4702 520.5C41.4702 522 54.9703 523.5 58.4703 522C60.3489 521.195 59.2024 518.949 57.8143 516.5C65.6895 519.3 68.5329 516.333 68.9702 514.5C64.9702 512.9 60.3036 507.5 58.4703 505Z" fill="#7D7862"/>
<path d="M58.4703 425H20.4703V505H58.4703V425Z" fill="#7D7862"/>
<path fill-rule="evenodd" clip-rule="evenodd" d="M107.943 431L38.3959 347L-30.0928 429.722C-30.1937 429.814 -30.2916 429.907 -30.3865 430C-33.7656 433.324 -35.4821 438.43 -32.3628 436.436C-29.2435 434.441 -27.6839 432.945 -27.6839 432.945C-27.6839 432.945 -33.9221 444.713 -21.4457 433.942C-20.9258 437.765 -17.5468 443.416 -8.1895 435.438C-8.44859 439.58 -5.86679 445.473 6.50668 436.028C6.54667 436.031 6.5867 436.034 6.62675 436.036C6.66802 440.021 9.20405 445.637 19.1026 436.934C21.9552 440.416 29.2058 445.288 35.4343 436.992C35.4665 436.993 35.4986 436.993 35.5308 436.993C38.6791 440.479 45.9514 445.264 50.2937 436.934C54.7124 440.757 64.0177 446.109 65.8892 436.934C71.0877 440.258 81.1728 444.912 79.9252 436.934C86.9432 439.926 100.043 443.815 96.3005 435.438C103.059 438.264 115.171 441.721 109.557 432.945C109.151 432.311 108.539 431.68 107.745 431.054C107.877 431.019 107.943 431 107.943 431Z" fill="#47787E"/>
<path fill-rule="evenodd" clip-rule="evenodd" d="M101.196 418L37.4046 334L-25.4161 416.722C-25.5086 416.814 -25.5985 416.907 -25.6856 417C-28.785 420.324 -30.3594 425.43 -27.4983 423.436C-24.6371 421.441 -23.2066 419.945 -23.2066 419.945C-23.2066 419.945 -28.9286 431.713 -17.4847 420.942C-17.0078 424.765 -13.9085 430.416 -5.32554 422.438C-5.56319 426.58 -3.19506 432.473 8.15441 423.028C8.19109 423.031 8.2278 423.034 8.26454 423.036C8.30239 427.021 10.6285 432.637 19.7079 423.934C22.3244 427.416 28.975 432.288 34.688 423.992C34.7175 423.993 34.747 423.993 34.7765 423.993C37.6643 427.479 44.3347 432.264 48.3177 423.934C52.3707 427.757 60.9059 433.109 62.6225 423.934C67.3908 427.258 76.6413 431.912 75.4969 423.934C81.9341 426.926 93.9501 430.815 90.517 422.438C96.7158 425.264 107.826 428.721 102.676 419.945C102.304 419.311 101.743 418.68 101.015 418.054C101.136 418.019 101.196 418 101.196 418Z" fill="#5E9097"/>
<path d="M26.132 332.082C30.0873 326.949 37.7931 326.864 41.832 331.933C56.6011 350.465 87.2178 389.077 91.5535 396.096C97.2996 405.398 85.0705 405.398 69.9717 403.565C54.8729 401.732 38.9761 405.398 33.9001 405.398C28.8241 405.398 -3.88508 401.911 -15.7549 405.398C-24.9946 408.112 -24.3537 400.964 -23.616 397.663C-23.381 396.612 -22.8529 395.66 -22.1953 394.807L26.132 332.082Z" fill="white"/>
<path fill-rule="evenodd" clip-rule="evenodd" d="M94.5753 384.972L39.4175 293.122L-14.9011 383.574C-14.9811 383.675 -15.0588 383.777 -15.1342 383.879C-17.8141 387.513 -19.1754 393.096 -16.7015 390.916C-14.2276 388.735 -12.9907 387.099 -12.9907 387.099C-12.9907 387.099 -17.9382 399.966 -8.04314 388.189C-7.63084 392.369 -4.95092 398.549 2.4704 389.825C2.26491 394.354 4.31254 400.797 14.126 390.47C14.1577 390.473 14.1894 390.476 14.2212 390.479C14.254 394.836 16.2653 400.977 24.1159 391.461C26.3782 395.268 32.1288 400.596 37.0686 391.525C37.0941 391.525 37.1196 391.525 37.1451 391.525C39.6421 395.337 45.4098 400.569 48.8536 391.461C52.3581 395.641 59.7382 401.493 61.2225 391.461C65.3454 395.096 73.344 400.184 72.3544 391.461C77.9204 394.732 88.3103 398.985 85.3418 389.825C90.7016 392.915 100.308 396.695 95.8553 387.099C95.5336 386.406 95.0485 385.716 94.4188 385.031C94.5235 384.993 94.5753 384.972 94.5753 384.972Z" fill="#5E9097"/>
<path d="M28.1024 293.914C31.9908 287.544 41.2339 287.523 45.1502 293.876L86.6757 361.235C86.8757 361.56 87.0553 361.887 87.1912 362.243C88.2301 364.965 91.7597 377.173 68.1169 369.96C49.9685 364.424 41.8953 367.416 38.6083 369.854C37.0611 371.001 35.7405 372.59 33.8981 373.152C22.8001 376.539 2.74176 368.446 -6.79505 371.982C-15.146 375.078 -14.2605 366.538 -13.5982 363.092C-13.4218 362.175 -13.0436 361.318 -12.5568 360.52L28.1024 293.914Z" fill="white"/>
<path fill-rule="evenodd" clip-rule="evenodd" d="M85.9997 345L40.4997 261L-4.30803 343.722C-4.37402 343.814 -4.43809 343.907 -4.50021 344C-6.71089 347.324 -7.83389 352.43 -5.79313 350.436C-3.75237 348.441 -2.73204 346.945 -2.73204 346.945C-2.73204 346.945 -6.8133 358.713 1.34921 347.942C1.68932 351.765 3.9 357.416 10.0219 349.438C9.85238 353.58 11.5415 359.473 19.6366 350.028C19.6628 350.031 19.689 350.034 19.7152 350.036C19.7422 354.021 21.4014 359.637 27.8774 350.934C29.7436 354.416 34.4872 359.288 38.5621 350.992C38.5832 350.993 38.6042 350.993 38.6252 350.993C40.685 354.479 45.4428 359.264 48.2836 350.934C51.1745 354.757 57.2624 360.109 58.4868 350.934C61.8878 354.258 68.4859 358.912 67.6696 350.934C72.261 353.926 80.8317 357.815 78.3829 349.438C82.8043 352.264 90.7287 355.721 87.0556 346.945C86.7902 346.311 86.3901 345.68 85.8706 345.054C85.9569 345.019 85.9997 345 85.9997 345Z" fill="#5E9097"/>
<path d="M31.4194 265.633C35.02 258.092 45.7344 258.032 49.4192 265.533L66.3061 299.909C69.1891 305.778 65.2986 312.346 60.1217 316.34C59.3254 316.955 58.6509 317.629 58.1724 318.363C55.1552 322.994 44.872 322.923 40.3153 319.726C38.1368 318.198 28.8621 311.648 21.1034 314.688C19.679 315.246 18.3359 315.599 17.0923 315.804C11.9173 316.656 9.75017 311.022 12.0097 306.289L31.4194 265.633Z" fill="white"/>
<path d="M305.47 482H267.47C265.304 484.5 260.17 489.9 256.97 491.5C252.97 493.5 262.47 496.5 264.97 493.5C263.804 495.5 262.37 499.4 265.97 499C270.47 498.5 276.47 496 282.47 497.5C288.47 499 301.97 500.5 305.47 499C307.349 498.195 306.202 495.949 304.814 493.5C312.69 496.3 315.533 493.333 315.97 491.5C311.97 489.9 307.304 484.5 305.47 482Z" fill="#7D7862"/>
<path d="M305.47 402H267.47V482H305.47V402Z" fill="#7D7862"/>
<path fill-rule="evenodd" clip-rule="evenodd" d="M354.943 408L285.396 324L216.907 406.722C216.806 406.814 216.708 406.907 216.613 407C213.234 410.324 211.518 415.43 214.637 413.436C217.757 411.441 219.316 409.945 219.316 409.945C219.316 409.945 213.078 421.713 225.554 410.942C226.074 414.765 229.453 420.416 238.811 412.438C238.551 416.58 241.133 422.473 253.507 413.028C253.547 413.031 253.587 413.034 253.627 413.036C253.668 417.021 256.204 422.637 266.103 413.934C268.955 417.416 276.206 422.288 282.434 413.992C282.466 413.993 282.499 413.993 282.531 413.993C285.679 417.479 292.951 422.264 297.294 413.934C301.712 417.757 311.018 423.109 312.889 413.934C318.088 417.258 328.173 421.912 326.925 413.934C333.943 416.926 347.043 420.815 343.3 412.438C350.059 415.264 362.171 418.721 356.557 409.945C356.151 409.311 355.539 408.68 354.745 408.054C354.877 408.019 354.943 408 354.943 408Z" fill="#47787E"/>
<path fill-rule="evenodd" clip-rule="evenodd" d="M348.196 395L284.405 311L221.584 393.722C221.491 393.814 221.402 393.907 221.314 394C218.215 397.324 216.641 402.43 219.502 400.436C222.363 398.441 223.793 396.945 223.793 396.945C223.793 396.945 218.071 408.713 229.515 397.942C229.992 401.765 233.092 407.416 241.674 399.438C241.437 403.58 243.805 409.473 255.154 400.028C255.191 400.031 255.228 400.034 255.265 400.036C255.302 404.021 257.629 409.637 266.708 400.934C269.324 404.416 275.975 409.288 281.688 400.992C281.718 400.993 281.747 400.993 281.777 400.993C284.664 404.479 291.335 409.264 295.318 400.934C299.371 404.757 307.906 410.109 309.623 400.934C314.391 404.258 323.641 408.912 322.497 400.934C328.934 403.926 340.95 407.815 337.517 399.438C343.716 402.264 354.826 405.721 349.676 396.945C349.304 396.311 348.743 395.68 348.015 395.054C348.136 395.019 348.196 395 348.196 395Z" fill="#5E9097"/>
<path d="M278.656 308.897C282.611 303.832 290.229 303.74 294.268 308.739C309.317 327.367 341.045 366.836 345.516 373.978C351.41 383.391 338.867 383.391 323.381 381.536C307.895 379.681 291.591 383.391 286.385 383.391C281.179 383.391 247.631 379.863 235.457 383.391C225.972 386.139 226.638 378.892 227.396 375.555C227.636 374.497 228.173 373.542 228.841 372.686L278.656 308.897Z" fill="white"/>
<path fill-rule="evenodd" clip-rule="evenodd" d="M341.575 361.972L286.417 270.122L232.099 360.574C232.019 360.675 231.941 360.777 231.866 360.879C229.186 364.513 227.825 370.096 230.298 367.916C232.772 365.735 234.009 364.099 234.009 364.099C234.009 364.099 229.062 376.966 238.957 365.189C239.369 369.369 242.049 375.549 249.47 366.825C249.265 371.354 251.313 377.797 261.126 367.47C261.158 367.473 261.189 367.476 261.221 367.479C261.254 371.836 263.265 377.977 271.116 368.461C273.378 372.268 279.129 377.596 284.069 368.525C284.094 368.525 284.12 368.525 284.145 368.525C286.642 372.337 292.41 377.569 295.854 368.461C299.358 372.641 306.738 378.493 308.222 368.461C312.345 372.096 320.344 377.184 319.354 368.461C324.92 371.732 335.31 375.985 332.342 366.825C337.702 369.915 347.308 373.695 342.855 364.099C342.534 363.406 342.049 362.716 341.419 362.031C341.523 361.993 341.575 361.972 341.575 361.972Z" fill="#5E9097"/>
<path d="M279.597 270.928C283.484 264.554 292.733 264.534 296.648 270.891L338.666 339.105C338.866 339.429 339.045 339.756 339.181 340.112C340.227 342.852 343.813 355.212 319.922 347.917C301.552 342.309 293.405 345.36 290.101 347.827C288.557 348.98 287.237 350.568 285.396 351.134C274.195 354.58 253.914 346.384 244.276 349.96C235.831 353.094 236.74 344.434 237.409 340.961C237.585 340.044 237.963 339.187 238.449 338.39L279.597 270.928Z" fill="white"/>
<path fill-rule="evenodd" clip-rule="evenodd" d="M333 322L287.5 238L242.692 320.722C242.626 320.814 242.562 320.907 242.5 321C240.289 324.324 239.166 329.43 241.207 327.436C243.248 325.441 244.268 323.945 244.268 323.945C244.268 323.945 240.187 335.713 248.349 324.942C248.689 328.765 250.9 334.416 257.022 326.438C256.852 330.58 258.541 336.473 266.637 327.028C266.663 327.031 266.689 327.034 266.715 327.036C266.742 331.021 268.401 336.637 274.877 327.934C276.744 331.416 281.487 336.288 285.562 327.992C285.583 327.993 285.604 327.993 285.625 327.993C287.685 331.479 292.443 336.264 295.284 327.934C298.175 331.757 304.262 337.109 305.487 327.934C308.888 331.258 315.486 335.912 314.67 327.934C319.261 330.926 327.832 334.815 325.383 326.438C329.804 329.264 337.729 332.721 334.056 323.945C333.79 323.311 333.39 322.68 332.871 322.054C332.957 322.019 333 322 333 322Z" fill="#5E9097"/>
<path d="M278.05 244.014C281.83 236.642 292.422 236.8 295.98 244.282L317.746 290.055C320.102 295.009 318.055 301.354 315.115 305.986C314.909 306.31 314.704 306.648 314.5 307C311 313.051 301.572 314.934 293.786 308.781C286 302.628 276 301.027 267 305C265.47 305.676 263.794 306.278 262.068 306.814C254.485 309.165 248.795 301.076 252.417 294.011L278.05 244.014Z" fill="white"/>
<path d="M378.47 523H340.47C338.304 525.5 333.17 530.9 329.97 532.5C325.97 534.5 335.47 537.5 337.97 534.5C336.804 536.5 335.37 540.4 338.97 540C343.47 539.5 349.47 537 355.47 538.5C361.47 540 374.97 541.5 378.47 540C380.349 539.195 379.202 536.949 377.814 534.5C385.69 537.3 388.533 534.333 388.97 532.5C384.97 530.9 380.304 525.5 378.47 523Z" fill="#7D7862"/>
<path d="M378.47 443H340.47V523H378.47V443Z" fill="#7D7862"/>
<path fill-rule="evenodd" clip-rule="evenodd" d="M427.943 449L358.396 365L289.907 447.722C289.806 447.814 289.708 447.907 289.613 448C286.234 451.324 284.518 456.43 287.637 454.436C290.757 452.441 292.316 450.945 292.316 450.945C292.316 450.945 286.078 462.713 298.554 451.942C299.074 455.765 302.453 461.416 311.811 453.438C311.551 457.58 314.133 463.473 326.507 454.028C326.547 454.031 326.587 454.034 326.627 454.036C326.668 458.021 329.204 463.637 339.103 454.934C341.955 458.416 349.206 463.288 355.434 454.992C355.466 454.993 355.499 454.993 355.531 454.993C358.679 458.479 365.951 463.264 370.294 454.934C374.712 458.757 384.018 464.109 385.889 454.934C391.088 458.258 401.173 462.912 399.925 454.934C406.943 457.926 420.043 461.815 416.3 453.438C423.059 456.264 435.171 459.721 429.557 450.945C429.151 450.311 428.539 449.68 427.745 449.054C427.877 449.019 427.943 449 427.943 449Z" fill="#47787E"/>
<path fill-rule="evenodd" clip-rule="evenodd" d="M421.196 436L357.405 352L294.584 434.722C294.491 434.814 294.402 434.907 294.314 435C291.215 438.324 289.641 443.43 292.502 441.436C295.363 439.441 296.793 437.945 296.793 437.945C296.793 437.945 291.071 449.713 302.515 438.942C302.992 442.765 306.092 448.416 314.674 440.438C314.437 444.58 316.805 450.473 328.154 441.028C328.191 441.031 328.228 441.034 328.265 441.036C328.302 445.021 330.629 450.637 339.708 441.934C342.324 445.416 348.975 450.288 354.688 441.992C354.718 441.993 354.747 441.993 354.777 441.993C357.664 445.479 364.335 450.264 368.318 441.934C372.371 445.757 380.906 451.109 382.623 441.934C387.391 445.258 396.641 449.912 395.497 441.934C401.934 444.926 413.95 448.815 410.517 440.438C416.716 443.264 427.826 446.721 422.676 437.945C422.304 437.311 421.743 436.68 421.015 436.054C421.136 436.019 421.196 436 421.196 436Z" fill="#5E9097"/>
<path d="M350.954 350.878C354.902 345.46 362.942 345.368 366.977 350.722C382.21 370.935 414.01 413.341 418.504 421.035C424.447 431.208 411.799 431.208 396.184 429.204C380.569 427.199 390.397 425.696 358.88 431.208C327.363 436.721 319.803 427.395 307.527 431.208C297.795 434.231 298.662 426.067 299.439 422.554C299.665 421.534 300.153 420.605 300.768 419.761L350.954 350.878Z" fill="white"/>
<path fill-rule="evenodd" clip-rule="evenodd" d="M414.575 402.972L359.417 311.122L305.099 401.574C305.019 401.675 304.941 401.777 304.866 401.879C302.186 405.513 300.825 411.096 303.298 408.916C305.772 406.735 307.009 405.099 307.009 405.099C307.009 405.099 302.062 417.966 311.957 406.189C312.369 410.369 315.049 416.549 322.47 407.825C322.265 412.354 324.313 418.797 334.126 408.47C334.158 408.473 334.189 408.476 334.221 408.479C334.254 412.836 336.265 418.977 344.116 409.461C346.378 413.268 352.129 418.596 357.069 409.525C357.094 409.525 357.12 409.525 357.145 409.525C359.642 413.337 365.41 418.569 368.854 409.461C372.358 413.641 379.738 419.493 381.222 409.461C385.345 413.096 393.344 418.184 392.354 409.461C397.92 412.732 408.31 416.985 405.342 407.825C410.702 410.915 420.308 414.695 415.855 405.099C415.534 404.406 415.049 403.716 414.419 403.031C414.523 402.993 414.575 402.972 414.575 402.972Z" fill="#5E9097"/>
<path d="M351.956 313.048C355.789 306.366 365.422 306.345 369.284 313.012L411.679 386.2C411.864 386.518 412.029 386.839 412.154 387.184C413.185 390.019 416.994 403.495 392.727 395.616C373.956 389.522 365.756 392.951 362.498 395.615C361.016 396.827 359.756 398.441 357.94 399.046C346.646 402.809 326.1 393.962 316.346 397.81C307.698 401.222 308.765 391.609 309.441 387.992C309.606 387.112 309.949 386.284 310.394 385.508L351.956 313.048Z" fill="white"/>
<path fill-rule="evenodd" clip-rule="evenodd" d="M406 363L360.5 279L315.692 361.722C315.626 361.814 315.562 361.907 315.5 362C313.289 365.324 312.166 370.43 314.207 368.436C316.248 366.441 317.268 364.945 317.268 364.945C317.268 364.945 313.187 376.713 321.349 365.942C321.689 369.765 323.9 375.416 330.022 367.438C329.852 371.58 331.541 377.473 339.637 368.028C339.663 368.031 339.689 368.034 339.715 368.036C339.742 372.021 341.401 377.637 347.877 368.934C349.744 372.416 354.487 377.288 358.562 368.992C358.583 368.993 358.604 368.993 358.625 368.993C360.685 372.479 365.443 377.264 368.284 368.934C371.175 372.757 377.262 378.109 378.487 368.934C381.888 372.258 388.486 376.912 387.67 368.934C392.261 371.926 400.832 375.815 398.383 367.438C402.804 370.264 410.729 373.721 407.056 364.945C406.79 364.311 406.39 363.68 405.871 363.054C405.957 363.019 406 363 406 363Z" fill="#5E9097"/>
<path d="M353.951 284.188C357.664 276.974 367.972 276.953 371.715 284.153L397.483 333.724C400.665 339.844 396.775 347.232 390.277 349.547C386.705 350.82 383.52 352.476 382.322 354.539C379.023 360.219 367.78 360.132 362.798 356.211C360.416 354.336 350.276 346.301 341.793 350.03C338.042 351.68 333.738 351.133 330.104 350.01C325.234 348.506 323.765 342.83 326.098 338.298L353.951 284.188Z" fill="white"/>
</g>
<defs>
<linearGradient id="paint0_linear_826_3979" x1="195" y1="0" x2="195" y2="844" gradientUnits="userSpaceOnUse">
<stop stop-color="#94A4BB"/>
<stop offset="0.94" stop-color="#DEBD6E"/>
</linearGradient>
<clipPath id="clip0_826_3979">
<rect width="390" height="844" fill="white"/>
</clipPath>
</defs>
</svg>
