<svg width="390" height="844" viewBox="0 0 390 844" fill="none" xmlns="http://www.w3.org/2000/svg">
<g clip-path="url(#clip0_806_4983)">
<rect width="390" height="844" fill="#C8F1FF"/>
<path fill-rule="evenodd" clip-rule="evenodd" d="M348.048 134C326.024 147.602 291.494 151.289 258.099 141.513C251.076 139.457 244.503 136.922 238.448 134C216.424 147.602 181.894 151.289 148.499 141.513C141.476 139.457 134.903 136.922 128.848 134C106.824 147.602 72.2941 151.289 38.8987 141.513C31.8764 139.457 25.3031 136.922 19.2482 134C11.2602 138.933 1.62722 142.562 -9 144.718V844.017H402V146.966C390.802 146.645 379.183 144.875 367.699 141.513C360.676 139.457 354.103 136.922 348.048 134Z" fill="#93E1EB"/>
<path fill-rule="evenodd" clip-rule="evenodd" d="M387.04 170C365.016 183.602 330.486 187.289 297.091 177.513C290.069 175.457 283.495 172.922 277.44 170C255.416 183.602 220.886 187.289 187.491 177.513C180.469 175.457 173.895 172.922 167.84 170C145.816 183.602 111.286 187.289 77.8909 177.513C70.8687 175.457 64.2954 172.922 58.2405 170C41.2047 180.521 16.6873 185.11 -9 182.125V844H402V176.047C396.724 174.292 391.727 172.262 387.04 170Z" fill="url(#paint0_linear_806_4983)"/>
<g filter="url(#filter0_d_806_4983)">
<path d="M-10 620C1.89203 620.892 13.6129 622.138 24.9256 623.484C33.0425 624.449 40.647 625.742 48.3739 627.055L49.3214 627.216C57.3427 628.579 65.5146 629.949 74.372 630.932C91.5473 632.839 109.211 632.796 126.854 632.691C150.934 632.548 174.778 631.544 198.031 629.49C203.387 629.017 208.734 628.522 214.08 628.027L214.082 628.027C240.565 625.573 267.031 623.121 294.51 623.404C316.234 623.627 338.847 624.299 359.184 626.649C371.926 628.122 384.442 629.896 396.945 631.668L396.946 631.669C398.298 631.86 399.649 632.052 401 632.243V857H-10V620Z" fill="#FAD199"/>
<path d="M401 640.103C389.108 640.919 377.387 642.06 366.074 643.291C357.957 644.175 350.353 645.358 342.626 646.56L341.679 646.707C333.657 647.954 325.485 649.208 316.628 650.108C299.453 651.853 281.789 651.813 264.146 651.717C240.066 651.587 216.222 650.667 192.969 648.788C187.613 648.355 182.266 647.902 176.92 647.449L176.918 647.448C150.435 645.203 123.969 642.959 96.4896 643.218C74.7656 643.423 52.1526 644.037 31.8159 646.188C19.0743 647.536 6.55777 649.16 -5.9449 650.781L-5.94647 650.782C-7.29772 650.957 -8.64881 651.132 -10 651.307V857H401V640.103Z" fill="#EFBF82"/>
<path d="M-10 697.237C1.89203 697.838 13.6129 698.678 24.9256 699.585C33.0425 700.236 40.647 701.107 48.3739 701.993L49.3214 702.101C57.3427 703.02 65.5146 703.943 74.372 704.606C91.5473 705.891 109.211 705.862 126.854 705.792C150.934 705.695 174.778 705.018 198.031 703.634C203.387 703.315 208.734 702.981 214.08 702.647L214.082 702.647C240.565 700.993 267.031 699.34 294.51 699.531C316.234 699.682 338.847 700.134 359.184 701.719C371.926 702.712 384.442 703.908 396.945 705.102L396.946 705.102C398.298 705.232 399.649 705.361 401 705.489V857H-10V697.237Z" fill="#DBA261"/>
</g>
<path d="M175 316.03C194.465 301.404 216.155 313.78 218.936 316.03L227 311.53V324.5L218.936 320.531C196.912 328.181 181 324.5 175 316.03Z" fill="#F9FAE2"/>
<path d="M219 348.03C238.465 333.404 260.155 345.78 262.936 348.03L271 343.53V356.5L262.936 352.531C240.912 360.181 225 356.5 219 348.03Z" fill="#F9FAE2" fill-opacity="0.7"/>
<path d="M61 522.03C80.4652 507.404 102.155 519.78 104.936 522.03L113 517.53V530.5L104.936 526.531C82.9123 534.181 67 530.5 61 522.03Z" fill="#F9FAE2" fill-opacity="0.7"/>
<path d="M316 324.03C335.465 309.404 357.155 321.78 359.936 324.03L368 319.53V332.5L359.936 328.531C337.912 336.181 322 332.5 316 324.03Z" fill="#F9FAE2"/>
<path d="M328 386.03C347.465 371.404 369.155 383.78 371.936 386.03L380 381.53V394.5L371.936 390.531C349.912 398.181 334 394.5 328 386.03Z" fill="#F9FAE2"/>
<path d="M271 450.03C290.465 435.404 312.155 447.78 314.936 450.03L323 445.53V458.5L314.936 454.531C292.912 462.181 277 458.5 271 450.03Z" fill="#F9FAE2" fill-opacity="0.7"/>
<path d="M14 340.03C33.4652 325.404 55.1551 337.78 57.9358 340.03L66 335.53V348.5L57.9358 344.531C35.9123 352.181 20 348.5 14 340.03Z" fill="#F9FAE2"/>
<path d="M52.6926 622.985C52.4729 625.438 49.3107 628.494 51.4859 630.225C52.7432 630.854 54.6273 631.326 56.0687 631.687C56.9055 631.896 57.8361 631.999 58.2151 631.014C58.4546 630.391 60.6616 626.903 61.3012 627.139C63.5357 627.962 65.657 629.637 68.1 629.192C69.338 628.967 71.0493 627.764 71.8358 626.768C72.5885 625.814 74.8107 623.494 71.7894 622.289C70.2488 621.919 68.7789 621.533 67.2182 621.245C66.6851 621.147 64.7325 620.963 64.6426 620.154C64.5257 619.102 64.9107 618.003 65.1531 616.999C65.3588 616.146 65.2934 615.163 65.5823 614.353C65.7952 613.757 65.5562 613.376 66.116 612.984C67.1253 612.278 68.5211 612.176 69.6082 611.592C72.5633 610.007 77.089 608.451 79.0986 605.559C80.6666 603.303 81.4132 600.28 82.1384 597.67C82.6764 595.733 83.3107 593.994 81.5583 591.962C75.8107 585.994 74.834 594.708 74.5623 595.976C74.0225 598.495 73.1576 600.978 71.2441 602.821C69.1561 604.832 66.2563 602.987 64.515 601.464C62.3552 599.574 63.1204 596.672 63.1807 594.166C63.229 592.163 63.6524 589.744 64.4337 587.878C65.2453 585.939 66.1044 584.573 66.1044 582.402C66.1044 579.474 62.3048 579.989 60.2686 580.116C54.9033 580.451 54.1424 586.402 55.9179 590.5C56.9685 592.924 58.1687 594.582 58.1687 597.345C58.1687 599.215 57.9214 600.996 57.635 602.844C57.2599 605.265 57.0081 607.724 56.0919 610.014C55.6132 611.211 50.8529 610.703 49.7457 610.27C48.7912 609.896 47.3056 609.162 46.7291 608.297C46.3238 607.689 46.1497 606.731 45.8474 606.046C45.2628 604.723 43.2566 605.562 42.5176 606.209C40.8424 607.675 40 610.045 40 612.219C40 614.69 40.6309 617.398 42.4132 619.18C43.717 620.484 46.1855 620.572 47.8893 620.247C49.3181 619.975 52.8574 621.144 52.6926 622.985Z" fill="#FFC4C4"/>
<path d="M280.014 619.985C280.234 622.438 283.396 625.494 281.221 627.225C279.964 627.854 278.08 628.326 276.638 628.687C275.802 628.896 274.871 628.999 274.492 628.014C274.252 627.391 272.045 623.903 271.406 624.139C269.171 624.962 267.05 626.637 264.607 626.192C263.369 625.967 261.658 624.764 260.871 623.768C260.119 622.814 257.896 620.494 260.918 619.289C262.458 618.919 263.928 618.533 265.489 618.245C266.022 618.147 267.975 617.963 268.064 617.154C268.181 616.102 267.796 615.003 267.554 613.999C267.348 613.146 267.414 612.163 267.125 611.353C266.912 610.757 267.151 610.376 266.591 609.984C265.582 609.278 264.186 609.176 263.099 608.592C260.144 607.007 255.618 605.451 253.608 602.559C252.04 600.303 251.294 597.28 250.569 594.67C250.031 592.733 249.396 590.994 251.149 588.962C256.896 582.994 257.873 591.708 258.145 592.976C258.684 595.495 259.549 597.978 261.463 599.821C263.551 601.832 266.451 599.987 268.192 598.464C270.352 596.574 269.587 593.672 269.526 591.166C269.478 589.163 269.055 586.744 268.273 584.878C267.462 582.939 266.603 581.573 266.603 579.402C266.603 576.474 270.402 576.989 272.438 577.116C277.804 577.451 278.565 583.402 276.789 587.5C275.739 589.924 274.538 591.582 274.538 594.345C274.538 596.215 274.786 597.996 275.072 599.844C275.447 602.265 275.699 604.724 276.615 607.014C277.094 608.211 281.854 607.703 282.961 607.27C283.916 606.896 285.401 606.162 285.978 605.297C286.383 604.689 286.557 603.731 286.86 603.046C287.444 601.723 289.45 602.562 290.189 603.209C291.865 604.675 292.707 607.045 292.707 609.219C292.707 611.69 292.076 614.398 290.294 616.18C288.99 617.484 286.522 617.572 284.818 617.247C283.389 616.975 279.85 618.144 280.014 619.985Z" fill="#DEC6CB"/>
<path d="M352.048 635.397C353.199 637.574 352.21 641.859 354.977 642.127C356.374 641.97 358.212 641.341 359.617 640.858C360.433 640.578 361.27 640.158 361.051 639.125C360.913 638.472 360.866 634.345 361.53 634.195C363.853 633.669 366.544 633.919 368.351 632.216C369.267 631.353 370.048 629.412 370.165 628.148C370.277 626.939 370.878 623.782 367.688 624.417C366.194 624.945 364.751 625.422 363.285 626.03C362.784 626.237 361.047 627.147 360.531 626.517C359.86 625.698 359.585 624.566 359.241 623.592C358.95 622.765 358.359 621.975 358.161 621.139C358.015 620.523 357.607 620.334 357.864 619.7C358.326 618.558 359.441 617.713 360.035 616.631C361.65 613.693 364.6 609.924 364.711 606.404C364.798 603.658 363.779 600.716 362.966 598.132C362.363 596.214 361.948 594.41 359.372 593.659C351.302 591.782 355.227 599.623 355.689 600.835C356.607 603.242 357.234 605.796 356.632 608.384C355.975 611.207 352.539 611.238 350.249 610.908C347.408 610.499 346.47 607.648 345.157 605.513C344.106 603.806 343.145 601.547 342.784 599.556C342.41 597.488 342.387 595.875 341.204 594.053C339.611 591.597 336.704 594.098 335.065 595.313C330.747 598.515 333.348 603.921 337.068 606.392C339.27 607.853 341.179 608.591 342.683 610.908C343.701 612.477 344.463 614.105 345.229 615.812C346.232 618.047 347.36 620.246 347.838 622.666C348.088 623.931 343.818 626.096 342.654 626.335C341.65 626.542 340.004 626.734 339.05 626.323C338.379 626.034 337.711 625.324 337.085 624.915C335.874 624.123 334.648 625.919 334.38 626.864C333.773 629.006 334.356 631.452 335.54 633.276C336.885 635.348 338.889 637.277 341.354 637.801C343.157 638.185 345.276 636.915 346.528 635.715C347.579 634.709 351.184 633.763 352.048 635.397Z" fill="#ED7B7B"/>
<path d="M25.0481 651.397C26.199 653.574 25.2101 657.859 27.9773 658.127C29.3742 657.97 31.212 657.341 32.6173 656.858C33.433 656.578 34.2699 656.158 34.0513 655.125C33.9132 654.472 33.8657 650.345 34.5305 650.195C36.853 649.669 39.544 649.919 41.3514 648.216C42.2674 647.353 43.0476 645.412 43.165 644.148C43.2774 642.939 43.8781 639.782 40.6881 640.417C39.1941 640.945 37.7513 641.422 36.2852 642.03C35.7844 642.237 34.0467 643.147 33.531 642.517C32.86 641.698 32.5845 640.566 32.2412 639.592C31.9498 638.765 31.3593 637.975 31.1612 637.139C31.0153 636.523 30.6073 636.334 30.8636 635.7C31.3255 634.558 32.4406 633.713 33.035 632.631C34.6505 629.693 37.6 625.924 37.7113 622.404C37.7982 619.658 36.779 616.716 35.9662 614.132C35.363 612.214 34.9482 610.41 32.372 609.659C24.3018 607.782 28.2265 615.623 28.689 616.835C29.6075 619.242 30.2341 621.796 29.6322 624.384C28.9753 627.207 25.5387 627.238 23.2486 626.908C20.4081 626.499 19.4699 623.648 18.1566 621.513C17.1064 619.806 16.145 617.547 15.7843 615.556C15.4096 613.488 15.3866 611.875 14.2045 610.053C12.6105 607.597 9.70371 610.098 8.06499 611.313C3.74697 614.515 6.34846 619.921 10.0684 622.392C12.2695 623.853 14.179 624.591 15.683 626.908C16.7012 628.477 17.463 630.105 18.2291 631.812C19.2324 634.047 20.3598 636.246 20.8382 638.666C21.0881 639.931 16.8184 642.096 15.6537 642.335C14.6498 642.542 13.0039 642.734 12.0496 642.323C11.3786 642.034 10.7107 641.324 10.0847 640.915C8.87396 640.123 7.64787 641.919 7.38002 642.864C6.77281 645.006 7.35649 647.452 8.53994 649.276C9.8851 651.348 11.8886 653.277 14.3539 653.801C16.1573 654.185 18.2759 652.915 19.5285 651.715C20.5788 650.709 24.1842 649.763 25.0481 651.397Z" fill="#ED7B7B"/>
<path d="M292.693 625.985C292.473 628.438 289.311 631.494 291.486 633.225C292.743 633.854 294.627 634.326 296.069 634.687C296.905 634.896 297.836 634.999 298.215 634.014C298.455 633.391 300.662 629.903 301.301 630.139C303.536 630.962 305.657 632.637 308.1 632.192C309.338 631.967 311.049 630.764 311.836 629.768C312.588 628.814 314.811 626.494 311.789 625.289C310.249 624.919 308.779 624.533 307.218 624.245C306.685 624.147 304.732 623.963 304.643 623.154C304.526 622.102 304.911 621.003 305.153 619.999C305.359 619.146 305.293 618.163 305.582 617.353C305.795 616.757 305.556 616.376 306.116 615.984C307.125 615.278 308.521 615.176 309.608 614.592C312.563 613.007 317.089 611.451 319.099 608.559C320.667 606.303 321.413 603.28 322.138 600.67C322.676 598.733 323.311 596.994 321.558 594.962C315.811 588.994 314.834 597.708 314.562 598.976C314.023 601.495 313.158 603.978 311.244 605.821C309.156 607.832 306.256 605.987 304.515 604.464C302.355 602.574 303.12 599.672 303.181 597.166C303.229 595.163 303.652 592.744 304.434 590.878C305.245 588.939 306.104 587.573 306.104 585.402C306.104 582.474 302.305 582.989 300.269 583.116C294.903 583.451 294.142 589.402 295.918 593.5C296.968 595.924 298.169 597.582 298.169 600.345C298.169 602.215 297.921 603.996 297.635 605.844C297.26 608.265 297.008 610.724 296.092 613.014C295.613 614.211 290.853 613.703 289.746 613.27C288.791 612.896 287.306 612.162 286.729 611.297C286.324 610.689 286.15 609.731 285.847 609.046C285.263 607.723 283.257 608.562 282.518 609.209C280.842 610.675 280 613.045 280 615.219C280 617.69 280.631 620.398 282.413 622.18C283.717 623.484 286.185 623.572 287.889 623.247C289.318 622.975 292.857 624.144 292.693 625.985Z" fill="#FFC4C4"/>
</g>
<defs>
<filter id="filter0_d_806_4983" x="-14" y="620" width="419" height="245" filterUnits="userSpaceOnUse" color-interpolation-filters="sRGB">
<feFlood flood-opacity="0" result="BackgroundImageFix"/>
<feColorMatrix in="SourceAlpha" type="matrix" values="0 0 0 0 0 0 0 0 0 0 0 0 0 0 0 0 0 0 127 0" result="hardAlpha"/>
<feOffset dy="4"/>
<feGaussianBlur stdDeviation="2"/>
<feComposite in2="hardAlpha" operator="out"/>
<feColorMatrix type="matrix" values="0 0 0 0 0 0 0 0 0 0 0 0 0 0 0 0 0 0 0.25 0"/>
<feBlend mode="normal" in2="BackgroundImageFix" result="effect1_dropShadow_806_4983"/>
<feBlend mode="normal" in="SourceGraphic" in2="effect1_dropShadow_806_4983" result="shape"/>
</filter>
<linearGradient id="paint0_linear_806_4983" x1="196.5" y1="170" x2="196.5" y2="844" gradientUnits="userSpaceOnUse">
<stop stop-color="#A2F1F1"/>
<stop offset="1" stop-color="#30B5DE"/>
</linearGradient>
<clipPath id="clip0_806_4983">
<rect width="390" height="844" fill="white"/>
</clipPath>
</defs>
</svg>
