<svg width="390" height="844" viewBox="0 0 390 844" fill="none" xmlns="http://www.w3.org/2000/svg">
<g clip-path="url(#clip0_806_4954)">
<rect width="390" height="844" fill="#C8F1FF"/>
<path fill-rule="evenodd" clip-rule="evenodd" d="M346.048 134C324.024 147.602 289.494 151.289 256.099 141.513C249.076 139.457 242.503 136.922 236.448 134C214.424 147.602 179.894 151.289 146.499 141.513C139.476 139.457 132.903 136.922 126.848 134C104.824 147.602 70.2941 151.289 36.8987 141.513C29.8764 139.457 23.3031 136.922 17.2482 134C9.2602 138.933 -0.372775 142.562 -11 144.718V844.017H400V146.966C388.802 146.645 377.183 144.875 365.699 141.513C358.676 139.457 352.103 136.922 346.048 134Z" fill="#6FBCCF"/>
<path fill-rule="evenodd" clip-rule="evenodd" d="M385.04 170C363.016 183.602 328.486 187.289 295.091 177.513C288.069 175.457 281.495 172.922 275.44 170C253.416 183.602 218.886 187.289 185.491 177.513C178.469 175.457 171.895 172.922 165.84 170C143.816 183.602 109.286 187.289 75.8909 177.513C68.8687 175.457 62.2954 172.922 56.2405 170C39.2047 180.521 14.6873 185.11 -11 182.125V844H400V176.047C394.724 174.292 389.727 172.262 385.04 170Z" fill="url(#paint0_linear_806_4954)"/>
<g filter="url(#filter0_d_806_4954)">
<path d="M-10 620C1.89206 620.892 13.6129 622.138 24.9256 623.484C33.0425 624.449 40.647 625.742 48.3739 627.055L49.3214 627.216C57.3427 628.579 65.5146 629.949 74.3719 630.932C91.5472 632.839 109.211 632.796 126.854 632.691C150.934 632.548 174.778 631.544 198.031 629.49C203.387 629.017 208.734 628.522 214.08 628.027L214.082 628.027C240.565 625.573 267.031 623.121 294.51 623.404C316.234 623.627 338.847 624.299 359.184 626.649C371.926 628.122 384.442 629.896 396.945 631.668L396.946 631.669C398.298 631.86 399.649 632.052 401 632.243V857H-10V620Z" fill="#E5C8A0"/>
<path d="M401 640.103C389.108 640.919 377.387 642.06 366.074 643.291C357.957 644.175 350.353 645.358 342.626 646.56L341.679 646.707C333.657 647.954 325.485 649.208 316.628 650.108C299.453 651.853 281.789 651.813 264.146 651.717C240.066 651.587 216.222 650.667 192.969 648.788C187.613 648.355 182.266 647.902 176.92 647.449L176.918 647.448C150.435 645.203 123.969 642.959 96.4896 643.218C74.7656 643.423 52.1526 644.037 31.8159 646.188C19.0743 647.536 6.55777 649.16 -5.9449 650.781L-5.94647 650.782C-7.29772 650.957 -8.64881 651.132 -10 651.307V857H401V640.103Z" fill="#D1AB7A"/>
<path d="M339.5 664.5C340.669 662 343.5 656 343.5 656C347.5 656 344.164 653.962 342 653C339.837 652.038 336 650.5 338.337 654C338.337 654 335.167 661.268 334.5 662.5C332.867 665.515 330.343 670.092 328.671 671.546C327 673 322.406 673.5 320.953 676L308.5 701.5C308.5 701.5 308.5 707 313.5 709.5C318.5 712 323.5 710.5 323.5 710.5L337 683C337.837 679.992 336.5 677 336.337 674.891C336.173 672.782 338.332 667 339.5 664.5Z" fill="#556B51"/>
<path d="M-10 697.237C1.89203 697.838 13.6129 698.678 24.9256 699.585C33.0425 700.236 40.647 701.107 48.3739 701.993L49.3214 702.101C57.3427 703.02 65.5146 703.943 74.372 704.606C91.5473 705.891 109.211 705.862 126.854 705.792C150.934 705.695 174.778 705.018 198.031 703.634C203.387 703.315 208.734 702.981 214.08 702.647L214.082 702.647C240.565 700.993 267.031 699.34 294.51 699.531C316.234 699.682 338.847 700.134 359.184 701.719C371.926 702.712 384.442 703.908 396.945 705.102L396.946 705.102C398.298 705.232 399.649 705.361 401 705.489V857H-10V697.237Z" fill="#B59269"/>
</g>
<path d="M49.2357 290.5C48.067 288 45.2356 282 45.2356 282C41.2357 282 44.5722 279.962 46.7356 279C48.8991 278.038 52.7357 276.5 50.399 280C50.399 280 53.5685 287.268 54.2357 288.5C55.8687 291.515 58.3932 296.092 60.0644 297.546C61.7357 299 66.3298 299.5 67.7827 302L80.2357 327.5C80.2357 327.5 80.2357 333 75.2357 335.5C70.2357 338 65.2357 336.5 65.2357 336.5L51.7357 309C50.8991 305.992 52.2357 303 52.3991 300.891C52.5624 298.782 50.4043 293 49.2357 290.5Z" fill="#509D9A"/>
<path d="M266 234.5L302.5 205L326 213.5" stroke="#CDA653" stroke-width="6"/>
<path fill-rule="evenodd" clip-rule="evenodd" d="M341.887 301.417C342.527 301.08 343.035 300.627 343.384 300.054C345.585 296.445 340.686 289.444 332.443 284.418C324.199 279.392 315.733 278.242 313.533 281.851C313.278 282.268 313.119 282.731 313.048 283.23L312.847 283.103L300.932 317.078C302.802 320.586 308.746 327.336 317.563 326.266L342.078 301.537L341.887 301.417Z" fill="white" fill-opacity="0.5"/>
<ellipse cx="328.459" cy="290.952" rx="17.4818" ry="7.65334" transform="rotate(31.3729 328.459 290.952)" fill="white" fill-opacity="0.5"/>
<path d="M331 402.059C346.722 385.292 364.241 399.479 366.487 402.059L373 396.9V411.768L366.487 407.218C348.698 415.988 335.846 411.768 331 402.059Z" fill="#F9FAE2" fill-opacity="0.8"/>
<path d="M50 488.059C65.7219 471.292 83.2406 485.479 85.4866 488.059L92 482.9V497.768L85.4866 493.218C67.6984 501.988 54.8462 497.768 50 488.059Z" fill="#F9FAE2" fill-opacity="0.8"/>
<path d="M99.2896 333.964C106.293 316.949 123.435 322.59 125.849 323.882L129.258 318.17L133.482 329.298L127.315 327.743C116.493 339.361 105.675 339.854 99.2896 333.964Z" fill="#F9FAE2"/>
</g>
<defs>
<filter id="filter0_d_806_4954" x="-14" y="620" width="419" height="245" filterUnits="userSpaceOnUse" color-interpolation-filters="sRGB">
<feFlood flood-opacity="0" result="BackgroundImageFix"/>
<feColorMatrix in="SourceAlpha" type="matrix" values="0 0 0 0 0 0 0 0 0 0 0 0 0 0 0 0 0 0 127 0" result="hardAlpha"/>
<feOffset dy="4"/>
<feGaussianBlur stdDeviation="2"/>
<feComposite in2="hardAlpha" operator="out"/>
<feColorMatrix type="matrix" values="0 0 0 0 0 0 0 0 0 0 0 0 0 0 0 0 0 0 0.25 0"/>
<feBlend mode="normal" in2="BackgroundImageFix" result="effect1_dropShadow_806_4954"/>
<feBlend mode="normal" in="SourceGraphic" in2="effect1_dropShadow_806_4954" result="shape"/>
</filter>
<linearGradient id="paint0_linear_806_4954" x1="194.5" y1="170" x2="194.5" y2="844" gradientUnits="userSpaceOnUse">
<stop stop-color="#7FD1E6"/>
<stop offset="1" stop-color="#009FC2"/>
</linearGradient>
<clipPath id="clip0_806_4954">
<rect width="390" height="844" fill="white"/>
</clipPath>
</defs>
</svg>
