<svg width="20" height="17" viewBox="0 0 20 17" fill="none" xmlns="http://www.w3.org/2000/svg">
<path fill-rule="evenodd" clip-rule="evenodd" d="M13.9959 0.977204C13.581 0.365289 12.8975 0 12.1674 0H7.85902C7.11433 0 6.41914 0.379946 6.00739 1.01199L5.13816 2.34626C4.7264 2.9783 4.03122 3.35824 3.28653 3.35824H2.22222C0.994923 3.35824 0 4.37167 0 5.6218V14.7364C0 15.9866 0.994923 17 2.22222 17H17.7778C19.0051 17 20 15.9866 20 14.7364V5.59389C20 4.35918 19.0173 3.35824 17.8052 3.35824H16.7763C16.0462 3.35824 15.3627 2.99296 14.9478 2.38104L13.9959 0.977204ZM10 15C12.7614 15 15 12.7614 15 10C15 7.23858 12.7614 5 10 5C7.23858 5 5 7.23858 5 10C5 12.7614 7.23858 15 10 15Z" fill="#7E725C"/>
<path d="M13 10C13 11.6569 11.6569 13 10 13C8.34315 13 7 11.6569 7 10C7 8.34315 8.34315 7 10 7C11.6569 7 13 8.34315 13 10Z" fill="#7E725C"/>
</svg>
