<svg width="1517" height="463" xmlns="http://www.w3.org/2000/svg" xmlns:xlink="http://www.w3.org/1999/xlink" xml:space="preserve" overflow="hidden"><g transform="translate(-1920 -499)"><g><path d="M2167.25 501 3192.75 501C3327.08 501 3436 580.326 3436 678.191 3436 727.123 3408.77 771.421 3364.75 803.486L3346.35 814.543 3346.95 814.957C3358.13 827.362 3364.32 841 3364.32 855.317 3364.32 912.583 3265.35 959 3143.3 959L2211.52 959C2089.47 959 1990.5 912.583 1990.5 855.317 1990.5 841 1996.69 827.362 2007.87 814.957L2010.87 812.872 1995.25 803.486C1951.23 771.421 1924 727.123 1924 678.191 1924 580.326 2032.92 501 2167.25 501Z" fill="#FFFAE5" fill-rule="evenodd" fill-opacity="1"/></g></g></svg>