<svg width="50" height="50" viewBox="0 0 50 50" fill="none" xmlns="http://www.w3.org/2000/svg">
<circle cx="25" cy="25" r="25" fill="#CEC6BA"/>
<path d="M37.8313 12.1003L34.2169 10C34.5783 12.6731 32.0775 17.8284 31.506 17.8284C30.9639 17.8284 30.9538 17.3821 30.9639 17.4465C30.6024 15.5371 27.3494 13.2459 22.2892 14.0097C14.3909 15.2017 13.4337 23.3655 13.0723 27.757C12.7831 31.2703 10.9036 35.3308 10 36.922C19.253 41.1989 26.3855 40.1042 28.7952 39.0223C28.012 38.6404 26.3012 37.4948 25.7229 35.9673C25 34.0579 26.6265 28.3298 31.6867 29.0936C35.7349 29.7046 36.0241 33.9306 35.6626 35.9673C37.1084 35.1399 40 32.3395 40 27.757C40 22.029 34.3976 19.5468 33.494 19.1649C32.7711 18.8594 33.0723 18.2739 33.3133 18.0193C34.9398 16.3009 37.1687 13.4368 37.8313 12.1003Z" fill="#BDB5A9"/>
</svg>
