<svg width="19" height="19" viewBox="0 0 19 19" fill="none" xmlns="http://www.w3.org/2000/svg">
<g clip-path="url(#clip0_463_2636)">
<path d="M10.7495 12.9873L11.5468 9.66658L15.2801 9.66658C15.6814 9.67077 16.0713 9.53367 16.3816 9.2793C16.6919 9.02493 16.9028 8.6695 16.9775 8.27525C17.0175 8.03639 17.0049 7.79168 16.9408 7.55815C16.8766 7.32463 16.7622 7.1079 16.6058 6.92305C16.4493 6.7382 16.2544 6.58968 16.0347 6.48782C15.8149 6.38596 15.5757 6.33321 15.3335 6.33325L5.6668 6.33325C5.48999 6.33325 5.32042 6.26301 5.19539 6.13799C5.07037 6.01296 5.00013 5.84339 5.00013 5.66658C5.00013 5.48977 5.07037 5.3202 5.19539 5.19518C5.32042 5.07015 5.48999 4.99991 5.6668 4.99991L10.5601 4.99991L8.13347 3.14058C7.49522 2.59524 6.67536 2.30964 5.83643 2.34038C4.9975 2.37113 4.20075 2.71598 3.60413 3.30658L1.98747 4.90658C1.35752 5.53441 1.00243 6.38654 1.00013 7.27591L1.00013 12.3332C1.00013 13.2173 1.35132 14.0652 1.97644 14.6903C2.60156 15.3154 3.44941 15.6666 4.33347 15.6666L7.4808 15.6666C8.25136 15.6666 8.99812 15.3997 9.59406 14.9112C10.19 14.4227 10.5983 13.7428 10.7495 12.9873Z" fill="white"/>
</g>
<g clip-path="url(#clip1_463_2636)">
<path d="M11.833 13.9162L12.3999 11.0836L15.8333 11.0836C16.6732 11.0836 17.4786 10.75 18.0725 10.1561C18.6664 9.56226 19 8.75681 19 7.91696C19 7.0771 18.6664 6.27165 18.0725 5.67778C17.4786 5.08392 16.6732 4.75029 15.8333 4.75029L12.3104 4.75029L8.72971 1.80371C7.92983 1.12039 6.90246 0.76248 5.85115 0.800896C4.79984 0.839312 3.80133 1.27125 3.05346 2.01112L1.29279 3.75279C0.8846 4.15858 0.560337 4.6408 0.338518 5.17191C0.116699 5.70303 0.0016706 6.27263 -2.64459e-07 6.84821L-5.36107e-07 13.0628C0.00125636 14.2172 0.460401 15.324 1.27669 16.1403C2.09299 16.9566 3.19975 17.4157 4.35417 17.417L7.56358 17.417C8.56969 17.415 9.5442 17.0654 10.3222 16.4275C11.1002 15.7896 11.6339 14.9024 11.833 13.9162ZM4.35417 15.042C3.82926 15.042 3.32585 14.8334 2.95468 14.4623C2.58352 14.0911 2.375 13.5877 2.375 13.0628L2.375 6.84821C2.37673 6.31974 2.58798 5.81354 2.96242 5.44062L4.72783 3.69896C5.05485 3.37752 5.49111 3.1913 5.94944 3.1775C6.40778 3.16371 6.85445 3.32335 7.20021 3.62454L8.57296 4.75029L5.9375 4.75029C5.62255 4.75029 5.32051 4.8754 5.09781 5.0981C4.87511 5.3208 4.75 5.62284 4.75 5.93779C4.75 6.25273 4.87511 6.55478 5.09781 6.77748C5.32051 7.00018 5.62255 7.12529 5.9375 7.12529L15.8333 7.12529C16.0433 7.12529 16.2447 7.2087 16.3931 7.35716C16.5416 7.50563 16.625 7.70699 16.625 7.91696C16.625 8.12692 16.5416 8.32828 16.3931 8.47675C16.2447 8.62522 16.0433 8.70862 15.8333 8.70862L11.4269 8.70862C11.1524 8.70861 10.8863 8.80373 10.674 8.9778C10.4616 9.15187 10.3162 9.39414 10.2624 9.66337L9.50475 13.4507C9.41394 13.8989 9.17119 14.3021 8.81751 14.592C8.46383 14.8819 8.02091 15.0409 7.56358 15.042L4.35417 15.042Z" fill="#626D75"/>
<path d="M11.833 13.9162L12.3999 11.0836L15.8333 11.0836C16.6732 11.0836 17.4786 10.75 18.0725 10.1561C18.6664 9.56226 19 8.75681 19 7.91696C19 7.0771 18.6664 6.27165 18.0725 5.67778C17.4786 5.08392 16.6732 4.75029 15.8333 4.75029L12.3104 4.75029L8.72971 1.80371C7.92983 1.12039 6.90246 0.76248 5.85115 0.800896C4.79984 0.839312 3.80133 1.27125 3.05346 2.01112L1.29279 3.75279C0.8846 4.15858 0.560337 4.6408 0.338518 5.17191C0.116699 5.70303 0.0016706 6.27263 -2.64459e-07 6.84821L-5.36107e-07 13.0628C0.00125636 14.2172 0.460401 15.324 1.27669 16.1403C2.09299 16.9566 3.19975 17.4157 4.35417 17.417L7.56358 17.417C8.56969 17.415 9.5442 17.0654 10.3222 16.4275C11.1002 15.7896 11.6339 14.9024 11.833 13.9162ZM4.35417 15.042C3.82926 15.042 3.32585 14.8334 2.95468 14.4623C2.58352 14.0911 2.375 13.5877 2.375 13.0628L2.375 6.84821C2.37673 6.31974 2.58798 5.81354 2.96242 5.44062L4.72783 3.69896C5.05485 3.37752 5.49111 3.1913 5.94944 3.1775C6.40778 3.16371 6.85445 3.32335 7.20021 3.62454L8.57296 4.75029L5.9375 4.75029C5.62255 4.75029 5.32051 4.8754 5.09781 5.0981C4.87511 5.3208 4.75 5.62284 4.75 5.93779C4.75 6.25273 4.87511 6.55478 5.09781 6.77748C5.32051 7.00018 5.62255 7.12529 5.9375 7.12529L15.8333 7.12529C16.0433 7.12529 16.2447 7.2087 16.3931 7.35716C16.5416 7.50563 16.625 7.70699 16.625 7.91696C16.625 8.12692 16.5416 8.32828 16.3931 8.47675C16.2447 8.62522 16.0433 8.70862 15.8333 8.70862L11.4269 8.70862C11.1524 8.70861 10.8863 8.80373 10.674 8.9778C10.4616 9.15187 10.3162 9.39414 10.2624 9.66337L9.50475 13.4507C9.41394 13.8989 9.17119 14.3021 8.81751 14.592C8.46383 14.8819 8.02091 15.0409 7.56358 15.042L4.35417 15.042Z" fill="black" fill-opacity="0.2"/>
</g>
<defs>
<clipPath id="clip0_463_2636">
<rect width="16" height="16" fill="white" transform="translate(17 1) rotate(90)"/>
</clipPath>
<clipPath id="clip1_463_2636">
<rect width="19" height="19" fill="white" transform="translate(19) rotate(90)"/>
</clipPath>
</defs>
</svg>
