<svg width="6" height="20" viewBox="0 0 6 20" fill="none" xmlns="http://www.w3.org/2000/svg">
<path d="M5.5 2.5C5.5 3.88071 4.38071 5 3 5C1.61929 5 0.5 3.88071 0.5 2.5C0.5 1.11929 1.61929 0 3 0C4.38071 0 5.5 1.11929 5.5 2.5Z" fill="#7E725C"/>
<path d="M5.5 10C5.5 11.3807 4.38071 12.5 3 12.5C1.61929 12.5 0.5 11.3807 0.5 10C0.5 8.61929 1.61929 7.5 3 7.5C4.38071 7.5 5.5 8.61929 5.5 10Z" fill="#7E725C"/>
<path d="M5.5 17.5C5.5 18.8807 4.38071 20 3 20C1.61929 20 0.5 18.8807 0.5 17.5C0.5 16.1193 1.61929 15 3 15C4.38071 15 5.5 16.1193 5.5 17.5Z" fill="#7E725C"/>
</svg>
