<svg width="21" height="20" viewBox="0 0 21 20" fill="none" xmlns="http://www.w3.org/2000/svg">
<path d="M15.1055 1.43099C15.9191 0.617403 17.2382 0.617403 18.0518 1.43099L19.5249 2.90413C20.3385 3.71773 20.3385 5.03682 19.5249 5.85041L18.0514 7.32391L13.632 2.90449L15.1055 1.43099Z" fill="#7E725C"/>
<path d="M7.00324 18.3721C7.37516 18.3125 16.5786 8.79669 16.5786 8.79669L12.1592 4.37727C12.1592 4.37727 2.68766 13.625 2.58382 13.9527L7.00324 18.3721Z" fill="#7E725C"/>
<path d="M7.00324 18.3721C6.36377 18.8124 2.70381 19.8258 2.37427 19.9165C2.35669 19.9213 2.34169 19.9261 2.32425 19.9314C1.52628 20.1757 0.776849 19.4235 1.02649 18.6253C1.03061 18.6121 1.03424 18.6008 1.03808 18.5875C1.12108 18.3003 2.18324 14.6385 2.58382 13.9527L7.00324 18.3721Z" fill="#7E725C"/>
</svg>
