<svg width="23" height="19" viewBox="0 0 23 19" fill="none" xmlns="http://www.w3.org/2000/svg">
<path d="M22.2596 9.89202C22.368 9.79722 22.4323 9.6618 22.4372 9.51791C22.4421 9.37403 22.3873 9.23452 22.2857 9.13252L13.986 0.799183C13.8372 0.649789 13.613 0.604843 13.4181 0.685334C13.2232 0.765826 13.0961 0.955874 13.0961 1.16672L13.0961 5.34114C9.54257 5.44741 6.46755 6.64343 4.24656 8.72982C1.91432 10.9207 0.5625 14.0576 0.5625 17.8334C0.5625 18.0546 0.702211 18.2516 0.910934 18.3249C1.11966 18.3981 1.35186 18.3315 1.49003 18.1588C2.51325 16.8797 3.78299 15.5058 5.66514 14.4461C7.45012 13.4411 9.81617 12.7021 13.0923 12.6307L13.0625 16.788C13.061 16.993 13.18 17.1798 13.3664 17.2652C13.5528 17.3506 13.772 17.3187 13.9263 17.1837L22.2596 9.89202Z" fill="#EEFAF9"/>
</svg>
