<svg width="267" height="61" viewBox="0 0 267 61" fill="none" xmlns="http://www.w3.org/2000/svg">
<g clip-path="url(#clip0_943_3789)">
<path d="M260.897 0.762512H6.10282C3.15362 0.762512 0.762817 3.15219 0.762817 6.10001V54.9C0.762817 57.8478 3.15362 60.2375 6.10282 60.2375H260.897C263.846 60.2375 266.237 57.8478 266.237 54.9V6.10001C266.237 3.15219 263.846 0.762512 260.897 0.762512Z" fill="white"/>
<mask id="mask0_943_3789" style="mask-type:luminance" maskUnits="userSpaceOnUse" x="18" y="15" width="31" height="31">
<path d="M48.8229 15.25H18.3086V45.75H48.8229V15.25Z" fill="white"/>
</mask>
<g mask="url(#mask0_943_3789)">
<path d="M48.2127 30.8466C48.2127 29.7652 48.1156 28.7255 47.9353 27.7272H33.5658V33.6262H41.7769C41.4232 35.5325 40.3484 37.1476 38.7325 38.229V42.0554H43.6633C46.5483 39.4005 48.2127 35.4909 48.2127 30.8466Z" fill="#4285F4"/>
<path d="M33.5658 45.75C37.6852 45.75 41.1388 44.3844 43.6631 42.0554L38.7323 38.229C37.3662 39.144 35.6185 39.6846 33.5658 39.6846C29.5919 39.6846 26.2285 37.002 25.0287 33.3975H19.9314V37.3486C22.442 42.3326 27.6016 45.75 33.5658 45.75Z" fill="#34A853"/>
<path d="M25.0286 33.3975C24.7235 32.4825 24.5501 31.5051 24.5501 30.5C24.5501 29.4949 24.7235 28.5175 25.0286 27.6025V23.6514H19.9313C18.8981 25.7101 18.3086 28.0392 18.3086 30.5C18.3086 32.9607 18.8981 35.2899 19.9313 37.3486L25.0286 33.3975Z" fill="#FBBC04"/>
<path d="M33.5658 21.3154C35.8057 21.3154 37.8169 22.0847 39.3981 23.5959L43.7742 19.2219C41.132 16.7611 37.6782 15.25 33.5658 15.25C27.6016 15.25 22.442 18.6674 19.9314 23.6514L25.0287 27.6025C26.2285 23.998 29.5919 21.3154 33.5658 21.3154Z" fill="#E94235"/>
</g>
<path d="M73.6126 34.2157C73.6126 33.9029 73.5639 33.625 73.4666 33.3816C73.3763 33.1384 73.2129 32.916 72.9765 32.7144C72.7401 32.513 72.4064 32.3184 71.9752 32.1307C71.5511 31.9361 71.0087 31.738 70.3482 31.5365C69.625 31.3142 68.9575 31.0674 68.3457 30.7963C67.7407 30.5183 67.2124 30.1986 66.7603 29.8372C66.3084 29.4689 65.9573 29.0485 65.707 28.5759C65.4566 28.0963 65.3315 27.5438 65.3315 26.9184C65.3315 26.2998 65.4601 25.7368 65.7173 25.2294C65.9816 24.7222 66.3536 24.2844 66.8334 23.916C67.3201 23.5407 67.8938 23.2523 68.5543 23.0507C69.2149 22.8422 69.9449 22.738 70.7446 22.738C71.8709 22.738 72.8409 22.9465 73.6544 23.3634C74.4749 23.7805 75.1042 24.3399 75.5422 25.0419C75.9872 25.7438 76.2097 26.5187 76.2097 27.3666H73.6126C73.6126 26.8662 73.5049 26.4249 73.2893 26.0426C73.0807 25.6534 72.761 25.3476 72.3298 25.1253C71.9056 24.9029 71.3668 24.7916 70.7133 24.7916C70.0945 24.7916 69.5798 24.8855 69.1696 25.0731C68.7595 25.2609 68.4534 25.5145 68.2519 25.8341C68.0502 26.1539 67.9493 26.5152 67.9493 26.9184C67.9493 27.2032 68.0154 27.4639 68.1475 27.7002C68.2796 27.9296 68.4813 28.1449 68.7525 28.3465C69.0236 28.5411 69.3643 28.7253 69.7745 28.899C70.1848 29.0727 70.668 29.2396 71.2243 29.3994C72.0655 29.6496 72.7991 29.9277 73.425 30.2334C74.0508 30.5323 74.5723 30.8729 74.9894 31.255C75.4065 31.6373 75.7195 32.0717 75.928 32.5581C76.1366 33.0377 76.241 33.5832 76.241 34.1949C76.241 34.8342 76.1123 35.4111 75.8551 35.9253C75.5979 36.4327 75.2293 36.867 74.7496 37.2284C74.2768 37.5829 73.7066 37.8574 73.0391 38.0519C72.3785 38.2397 71.6415 38.3335 70.828 38.3335C70.0978 38.3335 69.3783 38.2362 68.669 38.0416C67.9667 37.847 67.3271 37.5516 66.75 37.1555C66.1728 36.7523 65.714 36.252 65.3733 35.6543C65.0325 35.0497 64.8622 34.3442 64.8622 33.5381H67.48C67.48 34.0316 67.5635 34.452 67.7304 34.7994C67.9042 35.147 68.144 35.4318 68.4501 35.6543C68.756 35.8698 69.1105 36.0296 69.5138 36.1338C69.924 36.2381 70.3621 36.2903 70.828 36.2903C71.4398 36.2903 71.951 36.2033 72.3611 36.0296C72.7784 35.8558 73.0911 35.6125 73.2998 35.2999C73.5084 34.9871 73.6126 34.6257 73.6126 34.2157ZM80.9969 26.8453V38.125H78.4729V26.8453H80.9969ZM78.306 23.8847C78.306 23.5025 78.4311 23.1862 78.6815 22.936C78.9387 22.6789 79.2935 22.5503 79.7454 22.5503C80.1903 22.5503 80.5415 22.6789 80.7987 22.936C81.056 23.1862 81.1846 23.5025 81.1846 23.8847C81.1846 24.26 81.056 24.5728 80.7987 24.8229C80.5415 25.0731 80.1903 25.1982 79.7454 25.1982C79.2935 25.1982 78.9387 25.0731 78.6815 24.8229C78.4311 24.5728 78.306 24.26 78.306 23.8847ZM90.9781 26.8453H93.2623V37.8122C93.2623 38.8269 93.0467 39.6887 92.6155 40.3975C92.1845 41.1065 91.5831 41.6451 90.8112 42.0134C90.0394 42.3887 89.1459 42.5763 88.1309 42.5763C87.6997 42.5763 87.22 42.5138 86.6915 42.3887C86.17 42.2637 85.6624 42.0621 85.1688 41.7841C84.6821 41.5131 84.2754 41.1552 83.9486 40.7103L85.127 39.23C85.5303 39.7096 85.9753 40.0605 86.462 40.2829C86.9487 40.5054 87.4598 40.6165 87.9952 40.6165C88.5724 40.6165 89.0625 40.5089 89.4659 40.2934C89.8761 40.0849 90.1924 39.7756 90.4148 39.3656C90.6375 38.9555 90.7487 38.4551 90.7487 37.8644V29.3994L90.9781 26.8453ZM83.3123 32.6103V32.3913C83.3123 31.5365 83.4166 30.7582 83.6251 30.0562C83.8338 29.3472 84.1327 28.7392 84.5221 28.2319C84.9114 27.7176 85.3843 27.3249 85.9405 27.0538C86.4968 26.7758 87.126 26.6369 87.8283 26.6369C88.5584 26.6369 89.1807 26.7689 89.6953 27.0331C90.2168 27.297 90.6513 27.6758 90.999 28.1693C91.3466 28.6558 91.6179 29.2396 91.8126 29.9206C92.0141 30.5948 92.1636 31.3454 92.261 32.1725V32.8709C92.1706 33.677 92.0176 34.4137 91.802 35.0809C91.5864 35.7481 91.3014 36.325 90.9469 36.8115C90.5923 37.298 90.1541 37.6733 89.6326 37.9374C89.1181 38.2014 88.5097 38.3335 87.8076 38.3335C87.1192 38.3335 86.4968 38.191 85.9405 37.906C85.3913 37.6211 84.9185 37.2216 84.5221 36.7072C84.1327 36.193 83.8338 35.5883 83.6251 34.8934C83.4166 34.1914 83.3123 33.4303 83.3123 32.6103ZM85.8258 32.3913V32.6103C85.8258 33.1245 85.8745 33.6041 85.9718 34.0488C86.0762 34.4937 86.2326 34.8863 86.4411 35.2269C86.6567 35.5605 86.928 35.8245 87.2548 36.0191C87.5885 36.2068 87.9813 36.3006 88.4332 36.3006C89.0243 36.3006 89.5075 36.1756 89.883 35.9253C90.2655 35.6752 90.5575 35.3381 90.7591 34.9141C90.9676 34.4833 91.1138 34.0037 91.1971 33.4756V31.5887C91.1554 31.1786 91.0685 30.7963 90.9363 30.4419C90.8112 30.0875 90.641 29.7782 90.4254 29.5141C90.2098 29.2431 89.9387 29.0346 89.6119 28.8887C89.2851 28.7357 88.8992 28.6593 88.4542 28.6593C88.0022 28.6593 87.6094 28.7566 87.2755 28.9512C86.9419 29.1458 86.6672 29.4133 86.4517 29.7538C86.2431 30.0943 86.0865 30.4905 85.9823 30.9422C85.878 31.3941 85.8258 31.8771 85.8258 32.3913ZM98.3623 29.2535V38.125H95.8488V26.8453H98.2163L98.3623 29.2535ZM97.9139 32.0681L97.1004 32.0578C97.1072 31.2585 97.2186 30.5253 97.4341 29.8581C97.6567 29.1909 97.9626 28.6175 98.3519 28.1381C98.7483 27.6585 99.2211 27.2902 99.7704 27.0331C100.32 26.7689 100.931 26.6369 101.606 26.6369C102.148 26.6369 102.639 26.7133 103.077 26.8662C103.522 27.0122 103.9 27.2519 104.213 27.5856C104.533 27.9191 104.777 28.3534 104.943 28.8887C105.11 29.4168 105.194 30.0666 105.194 30.8381V38.125H102.67V30.8276C102.67 30.2856 102.59 29.8581 102.43 29.5453C102.277 29.2257 102.051 28.9998 101.752 28.8678C101.46 28.7287 101.095 28.6593 100.657 28.6593C100.226 28.6593 99.8399 28.7496 99.4991 28.9303C99.1584 29.111 98.8699 29.3578 98.6336 29.6705C98.4041 29.9832 98.2268 30.3446 98.1015 30.7547C97.9764 31.1647 97.9139 31.6026 97.9139 32.0681ZM115.769 26.8453V38.125H113.245V26.8453H115.769ZM113.079 23.8847C113.079 23.5025 113.204 23.1862 113.454 22.936C113.711 22.6789 114.066 22.5503 114.518 22.5503C114.963 22.5503 115.314 22.6789 115.571 22.936C115.829 23.1862 115.957 23.5025 115.957 23.8847C115.957 24.26 115.829 24.5728 115.571 24.8229C115.314 25.0731 114.963 25.1982 114.518 25.1982C114.066 25.1982 113.711 25.0731 113.454 24.8229C113.204 24.5728 113.079 24.26 113.079 23.8847ZM121.016 29.2535V38.125H118.502V26.8453H120.87L121.016 29.2535ZM120.567 32.0681L119.754 32.0578C119.761 31.2585 119.872 30.5253 120.087 29.8581C120.31 29.1909 120.616 28.6175 121.005 28.1381C121.401 27.6585 121.874 27.2902 122.424 27.0331C122.973 26.7689 123.585 26.6369 124.259 26.6369C124.802 26.6369 125.292 26.7133 125.73 26.8662C126.175 27.0122 126.554 27.2519 126.867 27.5856C127.187 27.9191 127.43 28.3534 127.597 28.8887C127.764 29.4168 127.847 30.0666 127.847 30.8381V38.125H125.323V30.8276C125.323 30.2856 125.243 29.8581 125.083 29.5453C124.93 29.2257 124.704 28.9998 124.405 28.8678C124.113 28.7287 123.748 28.6593 123.31 28.6593C122.879 28.6593 122.493 28.7496 122.152 28.9303C121.812 29.111 121.523 29.3578 121.287 29.6705C121.057 29.9832 120.88 30.3446 120.755 30.7547C120.63 31.1647 120.567 31.6026 120.567 32.0681ZM138.798 35.6231L141.406 26.8453H143.012L142.574 29.4724L139.945 38.125H138.506L138.798 35.6231ZM137.265 26.8453L139.299 35.6647L139.466 38.125H137.86L134.804 26.8453H137.265ZM145.452 35.5605L147.424 26.8453H149.875L146.829 38.125H145.223L145.452 35.5605ZM143.283 26.8453L145.859 35.5188L146.182 38.125H144.743L142.084 29.4619L141.646 26.8453H143.283ZM154.276 26.8453V38.125H151.752V26.8453H154.276ZM151.585 23.8847C151.585 23.5025 151.71 23.1862 151.96 22.936C152.218 22.6789 152.573 22.5503 153.025 22.5503C153.47 22.5503 153.821 22.6789 154.077 22.936C154.335 23.1862 154.463 23.5025 154.463 23.8847C154.463 24.26 154.335 24.5728 154.077 24.8229C153.821 25.0731 153.47 25.1982 153.025 25.1982C152.573 25.1982 152.218 25.0731 151.96 24.8229C151.71 24.5728 151.585 24.26 151.585 23.8847ZM162.202 26.8453V28.6801H155.841V26.8453H162.202ZM157.676 24.0828H160.189V35.008C160.189 35.3554 160.238 35.6231 160.336 35.8106C160.439 35.9914 160.583 36.1131 160.763 36.1756C160.945 36.2381 161.157 36.2694 161.399 36.2694C161.573 36.2694 161.739 36.259 161.9 36.2381C162.06 36.2172 162.188 36.1965 162.286 36.1756L162.296 38.0937C162.087 38.1563 161.845 38.2119 161.567 38.2606C161.295 38.3092 160.983 38.3335 160.627 38.3335C160.05 38.3335 159.539 38.2327 159.094 38.0312C158.65 37.8227 158.302 37.4856 158.052 37.02C157.802 36.5544 157.676 35.9358 157.676 35.1644V24.0828ZM166.625 22.1125V38.125H164.121V22.1125H166.625ZM166.187 32.0681L165.374 32.0578C165.38 31.2794 165.488 30.5601 165.697 29.8997C165.912 29.2396 166.211 28.6662 166.593 28.1797C166.983 27.6862 167.449 27.3076 167.99 27.0434C168.533 26.7724 169.135 26.6369 169.795 26.6369C170.352 26.6369 170.852 26.7133 171.296 26.8662C171.75 27.019 172.139 27.2658 172.465 27.6063C172.792 27.94 173.039 28.3778 173.205 28.9199C173.379 29.4551 173.466 30.1084 173.466 30.8797V38.125H170.943V30.859C170.943 30.3168 170.863 29.8859 170.703 29.5662C170.55 29.2466 170.323 29.0172 170.024 28.8782C169.725 28.7322 169.36 28.6593 168.93 28.6593C168.477 28.6593 168.077 28.7496 167.731 28.9303C167.389 29.111 167.104 29.3578 166.875 29.6705C166.646 29.9832 166.472 30.3446 166.353 30.7547C166.242 31.1647 166.187 31.6026 166.187 32.0681ZM193.241 30.369V36.1651C193.026 36.4501 192.689 36.7629 192.229 37.1034C191.778 37.4369 191.177 37.7254 190.426 37.9687C189.674 38.2119 188.738 38.3335 187.62 38.3335C186.667 38.3335 185.794 38.1736 185.002 37.854C184.209 37.5273 183.524 37.0512 182.947 36.4257C182.376 35.8003 181.935 35.0393 181.623 34.1428C181.31 33.2392 181.153 32.2106 181.153 31.0569V30.0041C181.153 28.8574 181.296 27.8357 181.581 26.9391C181.873 26.0357 182.291 25.2712 182.832 24.6457C183.374 24.0203 184.029 23.5477 184.793 23.2279C185.565 22.9014 186.438 22.738 187.411 22.738C188.656 22.738 189.684 22.9465 190.498 23.3634C191.318 23.7735 191.952 24.3434 192.397 25.0731C192.841 25.8028 193.123 26.6369 193.241 27.575H190.676C190.592 27.0469 190.429 26.5743 190.185 26.1572C189.948 25.7403 189.608 25.4137 189.163 25.1774C188.725 24.9342 188.156 24.8125 187.452 24.8125C186.848 24.8125 186.316 24.9272 185.856 25.1565C185.399 25.3859 185.016 25.7229 184.709 26.1678C184.41 26.6125 184.184 27.1546 184.032 27.794C183.879 28.4335 183.803 29.1632 183.803 29.9832V31.0569C183.803 31.8909 183.89 32.6312 184.064 33.2775C184.244 33.9238 184.502 34.4694 184.834 34.9141C185.176 35.3589 185.589 35.696 186.076 35.9253C186.563 36.1478 187.112 36.259 187.724 36.259C188.322 36.259 188.812 36.2104 189.195 36.1131C189.578 36.0087 189.88 35.8872 190.102 35.7481C190.331 35.6022 190.508 35.4633 190.633 35.3312V32.3184H187.474V30.369H193.241ZM195.41 32.6103V32.3706C195.41 31.5574 195.529 30.8033 195.766 30.1084C196.001 29.4064 196.343 28.7982 196.787 28.284C197.24 27.7628 197.789 27.3597 198.436 27.0747C199.089 26.7828 199.826 26.6369 200.647 26.6369C201.474 26.6369 202.211 26.7828 202.857 27.0747C203.51 27.3597 204.064 27.7628 204.516 28.284C204.967 28.7982 205.312 29.4064 205.549 30.1084C205.785 30.8033 205.903 31.5574 205.903 32.3706V32.6103C205.903 33.4234 205.785 34.1775 205.549 34.8725C205.312 35.5674 204.967 36.1756 204.516 36.6968C204.064 37.2111 203.515 37.6141 202.868 37.906C202.221 38.191 201.487 38.3335 200.666 38.3335C199.84 38.3335 199.1 38.191 198.445 37.906C197.8 37.6141 197.25 37.2111 196.797 36.6968C196.346 36.1756 196.001 35.5674 195.766 34.8725C195.529 34.1775 195.41 33.4234 195.41 32.6103ZM197.925 32.3706V32.6103C197.925 33.1177 197.977 33.5971 198.08 34.0488C198.184 34.5007 198.349 34.8967 198.57 35.2372C198.793 35.5779 199.078 35.8454 199.426 36.04C199.774 36.2346 200.187 36.3319 200.666 36.3319C201.133 36.3319 201.536 36.2346 201.876 36.04C202.224 35.8454 202.51 35.5779 202.732 35.2372C202.955 34.8967 203.118 34.5007 203.222 34.0488C203.333 33.5971 203.39 33.1177 203.39 32.6103V32.3706C203.39 31.87 203.333 31.3974 203.222 30.9528C203.118 30.5011 202.952 30.1014 202.722 29.7538C202.499 29.4064 202.214 29.1353 201.867 28.9407C201.525 28.7392 201.12 28.6384 200.647 28.6384C200.174 28.6384 199.763 28.7392 199.415 28.9407C199.075 29.1353 198.793 29.4064 198.57 29.7538C198.349 30.1014 198.184 30.5011 198.08 30.9528C197.977 31.3974 197.925 31.87 197.925 32.3706ZM207.529 32.6103V32.3706C207.529 31.5574 207.648 30.8033 207.885 30.1084C208.121 29.4064 208.461 28.7982 208.907 28.284C209.358 27.7628 209.908 27.3597 210.555 27.0747C211.208 26.7828 211.945 26.6369 212.765 26.6369C213.592 26.6369 214.331 26.7828 214.976 27.0747C215.631 27.3597 216.183 27.7628 216.635 28.284C217.086 28.7982 217.431 29.4064 217.668 30.1084C217.904 30.8033 218.021 31.5574 218.021 32.3706V32.6103C218.021 33.4234 217.904 34.1775 217.668 34.8725C217.431 35.5674 217.086 36.1756 216.635 36.6968C216.183 37.2111 215.634 37.6141 214.987 37.906C214.34 38.191 213.608 38.3335 212.787 38.3335C211.958 38.3335 211.218 38.191 210.565 37.906C209.918 37.6141 209.369 37.2111 208.918 36.6968C208.464 36.1756 208.121 35.5674 207.885 34.8725C207.648 34.1775 207.529 33.4234 207.529 32.6103ZM210.044 32.3706V32.6103C210.044 33.1177 210.095 33.5971 210.199 34.0488C210.304 34.5007 210.468 34.8967 210.69 35.2372C210.913 35.5779 211.197 35.8454 211.545 36.04C211.893 36.2346 212.306 36.3319 212.787 36.3319C213.252 36.3319 213.655 36.2346 213.997 36.04C214.345 35.8454 214.628 35.5779 214.851 35.2372C215.074 34.8967 215.237 34.5007 215.342 34.0488C215.454 33.5971 215.509 33.1177 215.509 32.6103V32.3706C215.509 31.87 215.454 31.3974 215.342 30.9528C215.237 30.5011 215.071 30.1014 214.84 29.7538C214.619 29.4064 214.334 29.1353 213.986 28.9407C213.646 28.7392 213.238 28.6384 212.765 28.6384C212.292 28.6384 211.882 28.7392 211.534 28.9407C211.194 29.1353 210.913 29.4064 210.69 29.7538C210.468 30.1014 210.304 30.5011 210.199 30.9528C210.095 31.3974 210.044 31.87 210.044 32.3706ZM227.357 26.8453H229.641V37.8122C229.641 38.8269 229.425 39.6887 228.994 40.3975C228.563 41.1065 227.962 41.6451 227.189 42.0134C226.417 42.3887 225.525 42.5763 224.509 42.5763C224.079 42.5763 223.598 42.5138 223.07 42.3887C222.548 42.2637 222.042 42.0621 221.547 41.7841C221.061 41.5131 220.653 41.1552 220.327 40.7103L221.506 39.23C221.909 39.7096 222.355 40.0605 222.841 40.2829C223.328 40.5054 223.839 40.6165 224.375 40.6165C224.951 40.6165 225.441 40.5089 225.844 40.2934C226.254 40.0849 226.572 39.7756 226.793 39.3656C227.016 38.9555 227.127 38.4551 227.127 37.8644V29.3994L227.357 26.8453ZM219.691 32.6103V32.3913C219.691 31.5365 219.796 30.7582 220.003 30.0562C220.212 29.3472 220.511 28.7392 220.901 28.2319C221.29 27.7176 221.763 27.3249 222.319 27.0538C222.875 26.7758 223.505 26.6369 224.207 26.6369C224.938 26.6369 225.56 26.7689 226.074 27.0331C226.596 27.297 227.029 27.6758 227.377 28.1693C227.725 28.6558 227.997 29.2396 228.19 29.9206C228.393 30.5948 228.543 31.3454 228.639 32.1725V32.8709C228.549 33.677 228.396 34.4137 228.181 35.0809C227.965 35.7481 227.681 36.325 227.325 36.8115C226.971 37.298 226.533 37.6733 226.012 37.9374C225.497 38.2014 224.889 38.3335 224.185 38.3335C223.497 38.3335 222.875 38.191 222.319 37.906C221.77 37.6211 221.297 37.2216 220.901 36.7072C220.511 36.193 220.212 35.5883 220.003 34.8934C219.796 34.1914 219.691 33.4303 219.691 32.6103ZM222.205 32.3913V32.6103C222.205 33.1245 222.254 33.6041 222.35 34.0488C222.455 34.4937 222.611 34.8863 222.82 35.2269C223.035 35.5605 223.307 35.8245 223.633 36.0191C223.967 36.2068 224.359 36.3006 224.812 36.3006C225.403 36.3006 225.887 36.1756 226.262 35.9253C226.643 35.6752 226.936 35.3381 227.138 34.9141C227.347 34.4833 227.492 34.0037 227.576 33.4756V31.5887C227.534 31.1786 227.447 30.7963 227.315 30.4419C227.189 30.0875 227.02 29.7782 226.804 29.5141C226.588 29.2431 226.317 29.0346 225.99 28.8887C225.664 28.7357 225.278 28.6593 224.832 28.6593C224.381 28.6593 223.989 28.7566 223.654 28.9512C223.32 29.1458 223.046 29.4133 222.831 29.7538C222.622 30.0943 222.466 30.4905 222.361 30.9422C222.257 31.3941 222.205 31.8771 222.205 32.3913ZM234.939 22.1125V38.125H232.415V22.1125H234.939ZM242.668 38.3335C241.833 38.3335 241.078 38.198 240.404 37.9269C239.737 37.6489 239.166 37.2632 238.693 36.7697C238.228 36.2764 237.869 35.696 237.619 35.0288C237.369 34.3616 237.244 33.6423 237.244 32.8709V32.4538C237.244 31.5713 237.372 30.772 237.63 30.0562C237.888 29.3404 238.245 28.7287 238.704 28.2215C239.163 27.7071 239.705 27.3144 240.332 27.0434C240.958 26.7724 241.635 26.6369 242.366 26.6369C243.171 26.6369 243.878 26.7724 244.482 27.0434C245.088 27.3144 245.588 27.6967 245.985 28.1902C246.388 28.6767 246.687 29.257 246.88 29.9312C247.083 30.6052 247.184 31.3488 247.184 32.1619V33.2357H238.465V31.4322H244.702V31.2341C244.688 30.7824 244.596 30.3585 244.43 29.9624C244.27 29.5662 244.023 29.2466 243.69 29.0034C243.356 28.76 242.91 28.6384 242.355 28.6384C241.937 28.6384 241.565 28.7287 241.238 28.9094C240.919 29.0833 240.651 29.3369 240.436 29.6705C240.221 30.0041 240.053 30.4071 239.935 30.8797C239.824 31.3454 239.768 31.87 239.768 32.4538V32.8709C239.768 33.3644 239.835 33.823 239.966 34.2469C240.105 34.664 240.308 35.0288 240.572 35.3416C240.835 35.6543 241.156 35.9011 241.531 36.0818C241.907 36.2555 242.334 36.3424 242.813 36.3424C243.419 36.3424 243.957 36.2207 244.43 35.9775C244.903 35.7342 245.313 35.3902 245.661 34.9454L246.986 36.2277C246.742 36.5821 246.426 36.9227 246.037 37.2493C245.648 37.569 245.17 37.8296 244.607 38.0312C244.052 38.2327 243.405 38.3335 242.668 38.3335Z" fill="#1F1F1F"/>
</g>
<defs>
<clipPath id="clip0_943_3789">
<rect width="267" height="61" fill="white"/>
</clipPath>
</defs>
</svg>
