<svg width="60" height="60" viewBox="0 0 60 60" fill="none" xmlns="http://www.w3.org/2000/svg">
<circle cx="30" cy="30" r="30" fill="white"/>
<g clip-path="url(#clip0_295_1172)">
<path d="M41.5909 29.9235C41.5909 28.9452 41.512 28.2314 41.3412 27.4911H30.2366V31.9064H36.7548C36.6234 33.0037 35.9138 34.6562 34.3367 35.7665L34.3146 35.9144L37.8257 38.6505L38.069 38.675C40.303 36.5994 41.5909 33.5457 41.5909 29.9235Z" fill="#4285F4"/>
<path d="M30.2365 41.5568C33.4299 41.5568 36.1108 40.4992 38.0689 38.6749L34.3367 35.7665C33.338 36.4672 31.9975 36.9563 30.2365 36.9563C27.1089 36.9563 24.4543 34.8809 23.508 32.0122L23.3693 32.0241L19.7184 34.8663L19.6707 34.9998C21.6156 38.8864 25.6107 41.5568 30.2365 41.5568Z" fill="#34A853"/>
<path d="M23.508 32.0122C23.2583 31.2719 23.1138 30.4786 23.1138 29.6591C23.1138 28.8394 23.2583 28.0462 23.4948 27.3059L23.4882 27.1483L19.7916 24.2604L19.6706 24.3182C18.869 25.9311 18.4091 27.7422 18.4091 29.6591C18.4091 31.5759 18.869 33.3869 19.6706 34.9998L23.508 32.0122Z" fill="#FBBC05"/>
<path d="M30.2365 22.3618C32.4574 22.3618 33.9556 23.3268 34.8098 24.1333L38.1478 20.8548C36.0977 18.9379 33.4299 17.7614 30.2365 17.7614C25.6107 17.7614 21.6156 20.4317 19.6707 24.3183L23.4949 27.306C24.4543 24.4373 27.1089 22.3618 30.2365 22.3618Z" fill="#EB4335"/>
</g>
<defs>
<clipPath id="clip0_295_1172">
<rect width="23.1818" height="23.8636" fill="white" transform="translate(18.4091 17.7273)"/>
</clipPath>
</defs>
</svg>
