<svg width="46" height="64" viewBox="0 0 46 64" fill="none" xmlns="http://www.w3.org/2000/svg">
<path fill-rule="evenodd" clip-rule="evenodd" d="M42.7193 34.8451C44.8021 31.3853 46 27.3326 46 23C46 10.2975 35.7025 0 23 0C10.2975 0 0 10.2975 0 23C0 27.3326 1.19795 31.3853 3.28068 34.8451L18.6699 61.5C20.5944 64.8333 25.4056 64.8333 27.3301 61.5L42.7193 34.8451Z" fill="#1AC8B9"/>
<circle cx="23" cy="23" r="20" fill="#FFF9E4"/>
<circle cx="23.1169" cy="23.4933" r="18" fill="#A8D5DE"/>
<ellipse cx="22.2935" cy="22.9747" rx="17.2601" ry="17.122" transform="rotate(-20.1814 22.2935 22.9747)" fill="#D5EAEE"/>
<ellipse cx="21.6593" cy="20.1425" rx="14.7707" ry="13.9001" transform="rotate(-20.1814 21.6593 20.1425)" fill="#F9FEFF"/>
<path d="M13.9116 21.3423C15.7006 21.8665 17.5695 20.5943 18.1469 18.6235C18.7244 16.6527 17.8376 14.5731 16.0485 14.0489C14.2595 13.5247 12.3906 14.797 11.8132 16.7677C11.2358 18.7385 12.1225 20.8181 13.9116 21.3423Z" fill="#302626" stroke="#5DBFEB" stroke-width="0.6"/>
<path d="M12.7805 29.2656C13.7889 28.7061 13.9525 27.3014 13.3389 26.1956C12.7253 25.0898 11.4469 24.4853 10.4385 25.0448C9.43012 25.6044 9.26647 27.009 9.88007 28.1148C10.4937 29.2207 11.7721 29.8251 12.7805 29.2656Z" fill="#302626" stroke="#5DBFEB" stroke-width="0.6"/>
<path d="M16.9129 33.4535C17.2769 33.0403 17.369 32.4868 17.2592 31.9524C17.1495 31.4182 16.8366 30.8837 16.3587 30.4627C15.8807 30.0417 15.311 29.7989 14.7672 29.7575C14.2232 29.716 13.6858 29.8773 13.3218 30.2905C12.9578 30.7037 12.8657 31.2572 12.9755 31.7916C13.0852 32.3259 13.3981 32.8604 13.876 33.2813C14.354 33.7023 14.9237 33.9452 15.4675 33.9866C16.0115 34.028 16.5489 33.8668 16.9129 33.4535Z" fill="#302626" stroke="#5DBFEB" stroke-width="0.6"/>
<path d="M22.4496 35.4513C22.6139 34.9691 22.4954 34.4652 22.214 34.051C21.9328 33.637 21.4802 33.2952 20.929 33.1074C20.3777 32.9196 19.8106 32.9139 19.3351 33.0701C18.8594 33.2264 18.4579 33.5532 18.2936 34.0353C18.1293 34.5175 18.2478 35.0214 18.5291 35.4356C18.8104 35.8497 19.263 36.1914 19.8142 36.3792C20.3654 36.567 20.9326 36.5727 21.4081 36.4165C21.8838 36.2602 22.2853 35.9335 22.4496 35.4513Z" fill="#302626" stroke="#5DBFEB" stroke-width="0.6"/>
<path d="M33.9627 29.2656C32.9543 28.7061 32.7906 27.3014 33.4042 26.1956C34.0178 25.0898 35.2963 24.4853 36.3047 25.0448C37.313 25.6044 37.4767 27.009 36.8631 28.1148C36.2495 29.2207 34.971 29.8251 33.9627 29.2656Z" fill="#302626" stroke="#5DBFEB" stroke-width="0.6"/>
<path d="M29.8302 33.4535C29.4663 33.0403 29.3742 32.4868 29.4839 31.9524C29.5937 31.4182 29.9065 30.8837 30.3845 30.4627C30.8624 30.0417 31.4321 29.7989 31.9759 29.7575C32.5199 29.716 33.0574 29.8773 33.4214 30.2905C33.7853 30.7037 33.8774 31.2572 33.7677 31.7916C33.6579 32.3259 33.3451 32.8604 32.8671 33.2813C32.3892 33.7023 31.8195 33.9452 31.2757 33.9866C30.7317 34.028 30.1942 33.8668 29.8302 33.4535Z" fill="#302626" stroke="#5DBFEB" stroke-width="0.6"/>
<path d="M24.2936 35.4513C24.1293 34.9691 24.2478 34.4652 24.5291 34.051C24.8104 33.637 25.263 33.2952 25.8142 33.1074C26.3654 32.9196 26.9325 32.9139 27.4081 33.0701C27.8838 33.2264 28.2853 33.5532 28.4496 34.0353C28.6138 34.5175 28.4953 35.0214 28.214 35.4356C27.9328 35.8497 27.4802 36.1914 26.9289 36.3792C26.3777 36.567 25.8106 36.5727 25.3351 36.4165C24.8594 36.2602 24.4579 35.9335 24.2936 35.4513Z" fill="#302626" stroke="#5DBFEB" stroke-width="0.6"/>
<path d="M32.0484 21.3423C30.2593 21.8665 28.3905 20.5943 27.813 18.6235C27.2356 16.6527 28.1224 14.5731 29.9114 14.0489C31.7005 13.5247 33.5693 14.797 34.1468 16.7677C34.7242 18.7385 33.8374 20.8181 32.0484 21.3423Z" fill="#302626" stroke="#5DBFEB" stroke-width="0.6"/>
<path fill-rule="evenodd" clip-rule="evenodd" d="M26.0036 24.2076C24.692 21.8442 23.1169 18.4933 23.1169 18.4933C23.1169 18.4933 21.5417 21.8442 20.2301 24.2076C19.1374 26.1764 17.1169 29.0647 17.1169 29.0647L23.1169 29.4933L29.1169 29.0647C29.1169 29.0647 27.0963 26.1764 26.0036 24.2076Z" fill="#FF0200"/>
<path d="M23.1169 30.4933L29.1169 29.0647L23.1169 29.4933L17.1169 29.0647L23.1169 30.4933Z" fill="#451717"/>
<path d="M23.1169 18.4933L22.8454 18.3657L22.8454 18.3658L22.8452 18.3662L22.8443 18.368L22.841 18.3751L22.8276 18.4034L22.7756 18.5134C22.7301 18.6093 22.6637 18.749 22.5798 18.9242C22.4119 19.2745 22.1745 19.7663 21.8962 20.3317C21.3391 21.4635 20.62 22.8868 19.9678 24.062C19.4274 25.0356 18.6546 26.2417 18.0137 27.2087C17.6939 27.6913 17.408 28.1126 17.2022 28.4132C17.0993 28.5634 17.0164 28.6835 16.9593 28.7659L16.8937 28.8604L16.8768 28.8847L16.8725 28.8908L16.8714 28.8923L16.8712 28.8927L16.8711 28.8927L17.1169 29.0647L16.8711 28.8928L16.6182 29.2543L17.0475 29.3566L23.0475 30.7851L23.1169 30.8017L23.1864 30.7851L29.1864 29.3566L29.6157 29.2543L29.3628 28.8927L29.1169 29.0647L29.3627 28.8927L29.3627 28.8926L29.3624 28.8923L29.3614 28.8908L29.3571 28.8847L29.3402 28.8604L29.2746 28.7659C29.2175 28.6835 29.1346 28.5634 29.0317 28.4131C28.8258 28.1126 28.5399 27.6913 28.2201 27.2087C27.5791 26.2418 26.8062 25.0356 26.2659 24.062C25.6137 22.8869 24.8946 21.4635 24.3376 20.3317C24.0593 19.7663 23.8219 19.2745 23.6541 18.9242C23.5702 18.7491 23.5037 18.6093 23.4583 18.5134L23.4063 18.4035L23.3929 18.3751L23.3895 18.368L23.3887 18.3662L23.3885 18.3658L23.3885 18.3657L23.1169 18.4933ZM23.1169 18.4933L23.3884 18.3657L23.117 17.7881L22.8454 18.3657L23.1169 18.4933Z" stroke="#5DBFEB" stroke-width="0.6"/>
</svg>
